<?xml version="1.0" encoding="utf-8"?>
<!-- Generator: Adobe Illustrator 25.4.1, SVG Export Plug-In . SVG Version: 6.00 Build 0)  -->
<svg version="1.1" id="objects" xmlns="http://www.w3.org/2000/svg" xmlns:xlink="http://www.w3.org/1999/xlink" x="0px" y="0px"
	 viewBox="0 0 800 800" style="enable-background:new 0 0 800 800;" xml:space="preserve">
<style type="text/css">
	.st0{fill:#141B1C;}
	.st1{fill:#FFFFFF;}
	.st2{fill:#A0A0A0;}
	.st3{fill:#D1A588;}
	.st4{fill:#F9E8D5;}
	.st5{fill:#F7CEBB;}
	.st6{fill:#F7BBA1;}
	.st7{fill:#F27060;}
	.st8{fill:#0096AE;}
</style>
<g>
	<g>
		<g>
			<g>
				<g>
					<path class="st0" d="M652.7,442.34L393.04,315.37c-10.93-5.34-24.04-0.66-29.3,10.45l-63.91,135.25
						c-5.25,11.12-0.65,24.46,10.27,29.8l259.65,126.96c10.93,5.34,24.04,0.66,29.3-10.45l63.91-135.25
						C668.22,461.02,663.62,447.68,652.7,442.34z M570.18,607.07L336.32,492.72l74.51-157.68l233.85,114.35L570.18,607.07z"/>
					<polygon class="st1" points="336.32,492.72 570.18,607.07 644.68,449.39 410.83,335.04 					"/>
				</g>
				<path class="st2" d="M336.15,435.13c-1.16,2.46-0.14,5.42,2.28,6.6l0,0c2.42,1.18,5.32,0.15,6.49-2.31l30.78-65.13
					c1.16-2.46,0.14-5.42-2.28-6.6l0,0c-2.42-1.18-5.32-0.15-6.49,2.32L336.15,435.13z"/>
				<path class="st2" d="M602.15,562.24c-0.72,1.52-0.09,3.33,1.4,4.06l0,0c1.49,0.73,3.28,0.09,3.99-1.42l22.35-47.3
					c0.72-1.51,0.09-3.33-1.4-4.06l0,0c-1.49-0.73-3.27-0.09-3.99,1.42L602.15,562.24z"/>
				<path class="st2" d="M627.77,499.23c-1.52,3.22-0.19,7.08,2.97,8.63c3.16,1.55,6.96,0.19,8.48-3.03
					c1.52-3.22,0.19-7.08-2.98-8.63C633.09,494.66,629.29,496.02,627.77,499.23z"/>
				<path class="st2" d="M634.86,484.22c-1.52,3.22-0.19,7.08,2.98,8.63c3.16,1.55,6.96,0.19,8.48-3.03
					c1.52-3.22,0.19-7.08-2.98-8.63C640.18,479.65,636.38,481,634.86,484.22z"/>
			</g>
			<g>
				<path d="M501.37,457.97c-7.02-3.43-15.45-0.42-18.83,6.72c-3.38,7.14-0.42,15.72,6.61,19.15c7.02,3.43,15.45,0.43,18.83-6.72
					C511.35,469.98,508.39,461.4,501.37,457.97z M541.39,461.61l-10.17-4.97c-1.4-0.68-2.38-2.52-2.19-4.09l1.16-9.31
					c0.19-1.56-0.79-3.4-2.19-4.09l-28.82-14.09c-1.4-0.68-3.43-0.32-4.51,0.82l-6.42,6.74c-1.08,1.13-3.11,1.5-4.51,0.82
					l-10.17-4.97c-4.66-2.28-10.31-0.27-12.55,4.48l-18.34,38.8c-2.24,4.74-0.26,10.49,4.4,12.77l67.81,33.16
					c4.66,2.28,10.31,0.26,12.55-4.48l18.33-38.8C548.03,469.64,546.05,463.89,541.39,461.61z M485.07,492.46
					c-11.71-5.72-16.63-20.01-11.01-31.92c5.63-11.91,19.68-16.92,31.38-11.19c11.7,5.72,16.63,20.01,11,31.92
					C510.82,493.17,496.77,498.18,485.07,492.46z M531.5,474.82c-1.64-0.8-2.33-2.8-1.54-4.47c0.79-1.67,2.76-2.37,4.39-1.57
					c1.64,0.8,2.33,2.8,1.54,4.47C535.1,474.92,533.14,475.62,531.5,474.82z"/>
			</g>
		</g>
		<g>
			<path class="st3" d="M277.44,296.11l25.75,18.76l38.24-6.54l25.59,2.14l-56.18,43.62c0,0-25.19,4.49-34.57,11.95
				C276.27,366.05,265.91,314.2,277.44,296.11"/>
			<g>
				<g>
					<path class="st4" d="M384.9,544.97c0,0,8.9,2.32,10.28,5.38c0,0-1.66,2.25-9.5,0.89C385.69,551.24,382.32,546.31,384.9,544.97"
						/>
					<path class="st5" d="M384.9,544.97c0,0,4.31,5.97,0.79,6.27c0,0-16.05,0.51-28.89-4.32
						C356.8,546.92,364.85,536.01,384.9,544.97"/>
					<path class="st4" d="M477.26,318.79c0,0,7.62,1.61,5.25,4.85c0,0-9.93,3.2-16.09,0.49L477.26,318.79z"/>
					<path class="st5" d="M454.76,309.93l22.49,8.86c0,0,0.97,4.98-6.67,6.02C470.59,324.81,457.91,325.19,454.76,309.93"/>
					<path class="st6" d="M28.05,524.62l212.76-211.52c0,0,25.36-28.63,39.68-14.84c14.31,13.78-4.02,30.16-4.02,30.16
						s92.21-61.35,96.81-59.92c4.6,1.43,81.49,41.44,81.49,41.44s2.31,20.24,27.75,13.71c0,0,3.11,12-14.5,17.57
						c-17.6,5.57-46.03-14.29-46.03-14.29s-20.06-0.61-52-19.55c0,0-56.26,58.93-74.83,76.09c0,0-50.82,63.16-28.73,92.95
						c22.09,29.78,66.97,19.95,101.4,36.58c34.42,16.63,27.36,37.36,27.36,37.36s-25.82-17.36-38.38-3.43
						c0,0-54.66-5.09-79.74-13.73c0,0-82.45-29.85-130.73-14.28c-48.28,15.57-70.77,56.97-70.77,56.97L28.05,524.62z"/>
				</g>
				<polygon class="st7" points="0,694.6 90.78,591.69 16.8,521.35 0,535.92 0,694.6 				"/>
				<polygon class="st8" points="83.21,576.31 27.19,522.79 22.68,526.95 79.23,580.71 				"/>
			</g>
		</g>
		<g>
			<g>
				<path class="st7" d="M687.14,310.33c0.31-7.84,1.71-15.55,2.85-23.3c0.28-1.91-2.72-1.95-3-0.06
					c-1.14,7.75-2.54,15.46-2.85,23.3C684.06,312.2,687.06,312.26,687.14,310.33"/>
				<path class="st7" d="M723.61,306.84c-4.63,4-8.6,8.53-11.85,13.72c-1.03,1.64,1.53,3.2,2.56,1.56
					c3.11-4.97,6.91-9.27,11.34-13.09C727.13,307.76,725.07,305.58,723.61,306.84"/>
				<path class="st7" d="M758.06,339.34c-7.94,0.38-15.85,1.71-23.4,4.2c-1.83,0.6-1.14,3.52,0.7,2.92
					c7.31-2.41,14.96-3.75,22.64-4.11C759.93,342.25,760,339.25,758.06,339.34"/>
				<path class="st7" d="M646.87,376.28c-6.84,3.86-13.05,8.62-19.42,13.18c-1.57,1.12-2.98-1.53-1.42-2.64
					c6.37-4.56,12.59-9.32,19.43-13.18C647.13,372.69,648.55,375.33,646.87,376.28"/>
				<path class="st7" d="M660.43,410.32c1.44-5.95,3.66-11.55,6.79-16.81c0.99-1.66,3.55-0.1,2.56,1.56
					c-2.99,5.04-5.09,10.38-6.46,16.07C662.86,413.03,659.98,412.19,660.43,410.32"/>
				<path class="st7" d="M705.08,426.12c-3.29-7.23-5.72-14.88-6.96-22.73c-0.3-1.9,2.61-2.62,2.92-0.71
					c1.2,7.6,3.5,15.02,6.69,22.02C708.52,426.44,705.89,427.88,705.08,426.12"/>
			</g>
			<g>
				<path class="st7" d="M652.87,350.25c-1.68-0.14-4.64-1.07-7.94-3.08c-7.63-4.66-10.43-12.99-5.01-21.86
					c5.17-8.47,14.42-10.71,22.82-5.59c3.37,2.06,5.06,4.08,5.69,5.13l-2.58,2.34c-0.93-1.45-2.53-3.09-4.78-4.46
					c-6.34-3.87-13.04-2.39-17.38,4.72c-4.05,6.63-2.83,13.21,3.76,17.24c2.13,1.3,4.57,2.18,6.39,2.36L652.87,350.25z"/>
				<path class="st7" d="M671.22,325.5l3.5,2.13l-14.74,24.14l11.57,7.06l-1.79,2.93l-15.06-9.2L671.22,325.5z"/>
				<path class="st7" d="M691.66,337.99l-16.53,27.07l-3.5-2.13l16.53-27.07L691.66,337.99z"/>
				<path class="st7" d="M698.69,378.22c-1.68-0.14-4.64-1.07-7.93-3.08c-7.63-4.66-10.43-12.99-5.01-21.86
					c5.17-8.47,14.42-10.71,22.82-5.59c3.37,2.06,5.06,4.08,5.69,5.13l-2.58,2.34c-0.93-1.45-2.53-3.09-4.78-4.46
					c-6.35-3.88-13.04-2.39-17.38,4.72c-4.05,6.63-2.83,13.21,3.76,17.23c2.13,1.3,4.57,2.18,6.39,2.36L698.69,378.22z"/>
				<path class="st7" d="M717.04,353.48l3.5,2.13l-7.97,13.05l0.12,0.07c1.36-0.6,2.67-1.12,3.89-1.59l14.48-5.11l4.34,2.65
					l-16.81,5.5l1.05,22.03l-4.14-2.53l-0.8-18.74l-4.38,1.4l-6.3,10.32l-3.49-2.13L717.04,353.48z"/>
			</g>
		</g>
	</g>
</g>
</svg>
