<?xml version="1.0" encoding="utf-8"?>
<!-- Generator: Adobe Illustrator 25.4.1, SVG Export Plug-In . SVG Version: 6.00 Build 0)  -->
<svg version="1.1" xmlns="http://www.w3.org/2000/svg" xmlns:xlink="http://www.w3.org/1999/xlink" x="0px" y="0px"
	 viewBox="0 0 3710 3710" style="enable-background:new 0 0 3710 3710;" xml:space="preserve">
<style type="text/css">
	.st0{fill:#FFFFFF;}
	.st1{fill:#F4F7FA;}
	.st2{clip-path:url(#SVGID_00000163768976700598922410000002157920263006152124_);}
	.st3{fill:#FCFDFE;}
	.st4{clip-path:url(#SVGID_00000142893039586728212060000004838584962209470621_);}
	.st5{fill:url(#SVGID_00000075862424470295147470000017404830027047303814_);}
	.st6{fill:url(#SVGID_00000098216071655209093540000017638712813457579956_);}
	.st7{fill:url(#SVGID_00000024710069958245364840000007688595233654594720_);}
	.st8{fill:url(#SVGID_00000035531012359991424540000007571486945182987153_);}
	.st9{opacity:0.48;fill:#FFFFFF;}
	.st10{fill:url(#SVGID_00000023998044027269027450000003817053319739692467_);}
	.st11{opacity:0.3;fill:url(#SVGID_00000072268692846475920630000014906194392507216523_);}
	.st12{fill:#BFC6D1;}
	.st13{fill:#D8DEE8;}
	.st14{fill:url(#SVGID_00000183938533916538522440000008849312195424026281_);}
	.st15{fill:url(#SVGID_00000136412983289623900430000016512336509445660341_);}
	.st16{fill:url(#SVGID_00000026147364216497912340000013638616957181339288_);}
	.st17{fill:url(#SVGID_00000110432496729575289520000011205744039768714371_);}
	.st18{fill:url(#SVGID_00000163765145433359739150000001226790639438428061_);}
	.st19{fill:url(#SVGID_00000129182264921938401290000018009496212396470714_);}
	.st20{fill:url(#SVGID_00000042697756853375839630000018283622353958946212_);}
	.st21{fill:url(#SVGID_00000021834731649399534480000008326832530189469835_);}
	.st22{fill:url(#SVGID_00000182492059910778363650000000448855195606872211_);}
	.st23{fill:url(#SVGID_00000117666151757643356280000009638420247319481010_);}
	.st24{fill:url(#SVGID_00000094612167510329636290000010981629910082434716_);}
	.st25{fill:url(#SVGID_00000057836528266769980540000002065062703297740474_);}
	.st26{fill:url(#SVGID_00000005257102089061272400000002151144032262404490_);}
	.st27{fill:url(#SVGID_00000024691049888328981970000010504224527130050467_);}
	.st28{fill:url(#SVGID_00000106130970957711163910000017378998702111338171_);}
	.st29{fill:url(#SVGID_00000058564488157675698020000005753208265014828418_);}
	.st30{fill:url(#SVGID_00000163751703181480230520000005308843748884838562_);}
	.st31{fill:url(#SVGID_00000021822887671243870880000011085035224542681490_);}
	.st32{fill:url(#SVGID_00000110437378188770016710000004887136735728536245_);}
	.st33{fill:url(#SVGID_00000117637461367388112390000013834469618655660207_);}
	.st34{fill:url(#SVGID_00000181069187015881335970000015026880270524955580_);}
	.st35{fill:url(#SVGID_00000033358827683375674360000007585340992666286728_);}
	.st36{opacity:0.3;fill:url(#SVGID_00000044148127947432566550000001028473867716002180_);}
	.st37{fill:url(#SVGID_00000104705511377320601150000001886293185307047306_);}
	.st38{fill:url(#SVGID_00000026847344587827937740000000951379801607113348_);}
	.st39{fill:url(#SVGID_00000102527218557330355750000007920403318118583970_);}
	.st40{fill:url(#SVGID_00000153705275038279007220000006296634391571923131_);}
	.st41{fill:url(#SVGID_00000124862601732945551610000016700846219682944918_);}
	.st42{fill:url(#SVGID_00000066488242417629263660000002505589250653062820_);}
	.st43{fill:url(#SVGID_00000074413448596465133670000004874984924967485071_);}
	.st44{fill:url(#SVGID_00000026868903572449463010000001806413551623588285_);}
	.st45{opacity:0.3;fill:url(#SVGID_00000104683394914783326300000017637103878180313221_);}
	.st46{fill:url(#SVGID_00000087406060976906817550000005736502804401756066_);}
	.st47{fill:url(#SVGID_00000163778401045020498040000005751684615548937150_);}
	.st48{fill:url(#SVGID_00000034791464748964495900000010944230169752158348_);}
</style>
<g id="Background">
	<g>
		<g>
			<rect class="st0" width="3710" height="3710"/>
		</g>
	</g>
</g>
<g id="Illustration">
	<g>
		<path class="st1" d="M1067.05,520.31c-96.98,140.33,16.73,367.83-127.18,473.36c-140.08,102.73-312.17-65.66-444.19,22.77
			C299.84,1147.63,335.6,1747.9,621.94,2120.86c86.11,112.16,158.06,155.8,189.93,282.65c68.43,272.38-172.06,434.4-126.3,569.12
			c103.04,303.32,1687.79,557.85,2323.66-353.74c296.98-425.75,341.41-1040.54,76.07-1507.47
			C2605.84,267.67,1284.67,205.45,1067.05,520.31z"/>
		<g>
			<g>
				<g>
					<g>
						<g>
							<defs>
								<path id="SVGID_1_" d="M1104.53,2014.82c-10.48,36.19-31.95,87.26-54.33,145.81l615-72.32
									c-114.36-162.63-258.28-327.07-202.4-677.39c26.22-164.4,131.2-469.15,13.63-622.31
									c-133.95-174.49-272.69-46.67-354.19-187.69C994.85,380.52,748.59,269.27,562.91,445.27
									c-183.25,173.7-62.45,597.41,344.27,987.64C1167.26,1745.91,1159.28,1825.84,1104.53,2014.82z"/>
							</defs>
							
								<linearGradient id="SVGID_00000088125496474574939110000016989845528973814203_" gradientUnits="userSpaceOnUse" x1="1863.3925" y1="2510.4614" x2="94.8753" y2="-547.5955">
								<stop  offset="0" style="stop-color:#AA80F9"/>
								<stop  offset="0.9964" style="stop-color:#6165D7"/>
							</linearGradient>
							
								<use xlink:href="#SVGID_1_"  style="overflow:visible;fill:url(#SVGID_00000088125496474574939110000016989845528973814203_);"/>
							<clipPath id="SVGID_00000128458080115977028780000003076797901991422125_">
								<use xlink:href="#SVGID_1_"  style="overflow:visible;"/>
							</clipPath>
							<g style="clip-path:url(#SVGID_00000128458080115977028780000003076797901991422125_);">
								<g>
									<path class="st3" d="M1363.96,2087.62c-16.48-78.9-36.03-152.49-56.72-230.4l-6.89-25.98
										c-12.28-36.9-23.38-73.62-34.11-109.13c-24.24-80.18-47.14-155.91-82.48-233.37c-1.53-4.67-2.78-9.26-4.11-14.13
										c-4.74-17.38-9.63-35.35-24.33-49.86l-0.42-0.65c-155.2-418.13-399.26-811.24-725.38-1168.42l2.65-2.42
										c326.34,357.41,570.59,750.8,725.96,1169.22c15.16,15.14,20.38,34.29,24.98,51.19c1.32,4.82,2.56,9.38,3.99,13.77
										c35.37,77.49,58.3,153.33,82.58,233.63c10.73,35.48,21.82,72.18,34.12,109.14l6.92,26.08
										c20.71,77.95,40.26,151.58,56.77,230.58L1363.96,2087.62z"/>
									<path class="st3" d="M1258.43,1708.27c-57.96-201.86-15.28-471.42,30.73-662c49.83-206.39,114.17-367.2,114.82-368.8
										l3.33,1.34c-0.64,1.6-64.91,162.2-114.67,368.35c-45.9,190.15-88.49,459.02-30.76,660.12L1258.43,1708.27z"/>
									<path class="st3" d="M886.81,862.93c-73.44-210.78-101.7-449-110.98-527.28c-1.78-14.97-2.95-24.86-3.51-26.7l3.44-1.04
										c0.62,2.05,1.56,9.86,3.64,27.32c9.27,78.18,37.5,316.1,110.81,526.51L886.81,862.93z"/>
									<path class="st3" d="M1055.96,1186.17c-122.03-165.91-545.29-228.91-549.55-229.53l0.51-3.55
										c4.28,0.62,429.02,63.85,551.93,230.95L1055.96,1186.17z"/>
								</g>
							</g>
						</g>
					</g>
					<g>
						<g>
							<defs>
								<path id="SVGID_00000011734507210129545030000002274961742702376856_" d="M918.1,1340.76
									c36.54,282.16,161.87,173.03,290.81,186.14c169.71,192.78,206.26,385.86,9.49,579.46l-245.52-7.74
									c-90.01,6.37-198.28-8.64-206.37-128.54c-9.15-135.61,12.66-224.99-147.3-273.3c-159.96-48.32-239.53-161.44-194.07-306.11
									c47.84-152.24-127.18-329.28-27.42-439.25C571.57,759.82,880.06,1046.95,918.1,1340.76z"/>
							</defs>
							
								<linearGradient id="SVGID_00000096041435588489725670000007772167063986772370_" gradientUnits="userSpaceOnUse" x1="548.3944" y1="1082.531" x2="1472.1864" y2="2603.3306">
								<stop  offset="3.597120e-03" style="stop-color:#E38DDD"/>
								<stop  offset="1" style="stop-color:#9571F6"/>
							</linearGradient>
							
								<use xlink:href="#SVGID_00000011734507210129545030000002274961742702376856_"  style="overflow:visible;fill:url(#SVGID_00000096041435588489725670000007772167063986772370_);"/>
							<clipPath id="SVGID_00000031919650946384275630000007189176376065782165_">
								<use xlink:href="#SVGID_00000011734507210129545030000002274961742702376856_"  style="overflow:visible;"/>
							</clipPath>
							<g style="clip-path:url(#SVGID_00000031919650946384275630000007189176376065782165_);">
								<g>
									<path class="st3" d="M1037.46,1839.35c-113.69-98.36-215.37-210.56-302.21-333.49
										c-87.59-123.99-158.9-257.24-211.97-396.06c-30.43-79.6-54.93-161.47-72.81-243.32l3.59-0.78
										c17.85,81.67,42.3,163.36,72.66,242.79c52.95,138.53,124.12,271.52,211.54,395.25
										c86.67,122.68,188.15,234.66,301.61,332.83L1037.46,1839.35z"/>
									<path class="st3" d="M796.02,2025.08l-2.04-3.06c42.13-28.1,92.9-52.12,150.89-71.39c27.64-9.18,55.32-16.36,82.28-21.32
										l0.67,3.61c-26.8,4.93-54.31,12.06-81.79,21.19C888.34,1973.29,837.87,1997.16,796.02,2025.08z"/>
									<path class="st3" d="M791.7,1580.96c-138.76-105.87-402.68-63.67-405.32-63.21l-0.6-3.63
										c2.67-0.43,268.12-42.92,408.15,63.92L791.7,1580.96z"/>
									<path class="st3" d="M601.08,1284.48c-59.9-187.89,58.07-427.02,59.27-429.41l3.28,1.64
										c-1.19,2.38-118.5,240.2-59.05,426.65L601.08,1284.48z"/>
								</g>
							</g>
						</g>
					</g>
				</g>
			</g>
		</g>
		<g>
			
				<linearGradient id="SVGID_00000044875242682021269790000002758337246166848387_" gradientUnits="userSpaceOnUse" x1="1641.0521" y1="3002.1628" x2="1442.0488" y2="3085.7441">
				<stop  offset="0" style="stop-color:#40447E"/>
				<stop  offset="0.9964" style="stop-color:#3C3B6B"/>
			</linearGradient>
			<path style="fill:url(#SVGID_00000044875242682021269790000002758337246166848387_);" d="M3278.71,2896.55l-2836.82-21.11v62.46
				c0,16.95,12.37,31.37,29.13,33.94l802.17,122.99c9.52,1.46,19.17,1.85,28.78,1.15l1945.91-140.23
				c17.37-1.25,30.83-15.71,30.83-33.13V2896.55z"/>
			<g>
				
					<linearGradient id="SVGID_00000150788653428194163990000008076971080549789337_" gradientUnits="userSpaceOnUse" x1="1320.0232" y1="2239.7991" x2="1121.0214" y2="2323.3799">
					<stop  offset="0" style="stop-color:#40447E"/>
					<stop  offset="0.9964" style="stop-color:#3C3B6B"/>
				</linearGradient>
				<path style="fill:url(#SVGID_00000150788653428194163990000008076971080549789337_);" d="M2249.24,2795.3L471.23,2909.57
					c-31.82,2.04-57.69-19.68-57.69-48.53V1705.17c0-28.85,25.87-52.24,57.69-52.24h1778.01c26.21,0,47.41,21.14,47.41,47.22
					v1044.88C2296.65,2771.11,2275.45,2793.62,2249.24,2795.3z"/>
				
					<linearGradient id="SVGID_00000024701646312904245670000011295232186707652772_" gradientUnits="userSpaceOnUse" x1="441.8942" y1="2281.3142" x2="2324.9963" y2="2281.3142">
					<stop  offset="0" style="stop-color:#40447E"/>
					<stop  offset="0.9964" style="stop-color:#3C3B6B"/>
				</linearGradient>
				<path style="fill:url(#SVGID_00000024701646312904245670000011295232186707652772_);" d="M2277.59,2795.3L499.58,2909.57
					c-31.82,2.04-57.69-19.68-57.69-48.53V1705.17c0-28.85,25.87-52.24,57.69-52.24h1778.01c26.21,0,47.41,21.14,47.41,47.22
					v1044.88C2325,2771.11,2303.8,2793.62,2277.59,2795.3z"/>
				
					<linearGradient id="SVGID_00000125564489655217201970000018182619476926614149_" gradientUnits="userSpaceOnUse" x1="1620.7341" y1="1848.1021" x2="247.479" y2="4093.0769">
					<stop  offset="0" style="stop-color:#FFC444"/>
					<stop  offset="0.9964" style="stop-color:#F36F56"/>
				</linearGradient>
				<path style="fill:url(#SVGID_00000125564489655217201970000018182619476926614149_);" d="M2222.2,2721.64l-1656.03,99.25
					c-25.89,1.55-46.93-16.28-46.93-39.83V1769.09c0-23.55,21.04-42.73,46.93-42.82l1656.03-6.23c21.62-0.08,39.11,17.24,39.11,38.7
					v921.72C2261.31,2701.9,2243.82,2720.34,2222.2,2721.64z"/>
				<path class="st0" d="M1451.38,1684.54c0,10.74-9.15,19.47-20.45,19.5c-11.31,0.03-20.5-8.67-20.5-19.43
					c0-10.76,9.18-19.5,20.5-19.5C1442.23,1665.1,1451.38,1673.8,1451.38,1684.54z"/>
				<path class="st9" d="M1849.21,2478.29c-137.07-67.07-244.85,17.91-348.86-65.93c-63.06-50.83-32.1-88.74-109.69-164.7
					c-85.94-84.14-141.89-55.85-228.26-131.58c-109.21-95.75-54.59-170.24-148.66-238.98c-114.12-83.4-237.19-6.21-345.82-86.19
					c-46.85-34.5-72.56-84.65-85.99-137.98H475.65c-18.63,0-33.75,13.73-33.75,30.66v1198.16c0,16.93,15.13,29.69,33.75,28.48
					l1812.09-116.97c8.89-0.57,16.78-5.3,21.84-12.14c-132.65-4.4-214.14-44.83-266.24-86.64
					C1941.43,2612.71,1959.1,2532.06,1849.21,2478.29z"/>
			</g>
			
				<linearGradient id="SVGID_00000046306364804833172390000012013622900447752585_" gradientUnits="userSpaceOnUse" x1="441.8942" y1="2914.5652" x2="3278.7104" y2="2914.5652">
				<stop  offset="0" style="stop-color:#40447E"/>
				<stop  offset="0.9964" style="stop-color:#3C3B6B"/>
			</linearGradient>
			<path style="fill:url(#SVGID_00000046306364804833172390000012013622900447752585_);" d="M2348.46,2790.12L441.89,2910.39
				l831.3,127.46c9.52,1.46,19.17,1.85,28.78,1.16l1976.74-142.46l-899.92-105.61C2368.72,2789.76,2358.57,2789.48,2348.46,2790.12z
				"/>
			
				<linearGradient id="SVGID_00000044864732123535924890000010468826927393755025_" gradientUnits="userSpaceOnUse" x1="720.0916" y1="2894.7061" x2="2798.6089" y2="2894.7061">
				<stop  offset="0" style="stop-color:#40447E"/>
				<stop  offset="0.9964" style="stop-color:#3C3B6B"/>
			</linearGradient>
			<polygon style="opacity:0.3;fill:url(#SVGID_00000044864732123535924890000010468826927393755025_);" points="720.09,2913.42 
				2307.36,2811.8 2798.61,2868.99 1225.01,2977.61 			"/>
		</g>
		<g>
			<path class="st12" d="M3088.46,1218.88c52.03,4.38,98.06-37.74,102.8-94.08c4.75-56.34-33.59-105.56-85.62-109.94
				c-2.7-0.23-5.36-0.25-8.02-0.24c-2.48-29.1-7.02-57.6-13.55-85.3c2.47-1.01,4.93-2.06,7.36-3.31
				c47.43-24.37,68.13-85.46,46.22-136.44c-21.91-50.98-78.11-72.55-125.55-48.18c-2.48,1.28-4.84,2.71-7.17,4.17
				c-15.49-23.38-32.64-45.41-51.3-65.88c1.72-2.24,3.42-4.53,5-6.96c30.12-46.6,19.94-110.29-22.75-142.25
				c-42.69-31.96-101.71-20.1-131.84,26.5c-1.54,2.39-2.91,4.85-4.24,7.32c-24.1-11.63-49.26-21.26-75.3-28.79
				c0.46-2.84,0.89-5.69,1.13-8.61c4.75-56.34,15.01-119.94-37.08-123.51c-120.51-8.25-146.59,51.3-151.34,107.64
				c-0.25,2.92-0.31,5.8-0.32,8.68c-26.94,3.07-53.36,8.36-79.06,15.79c-0.9-2.66-1.84-5.31-2.96-7.92
				c-21.91-50.98-17.95-84.99-67.74-65.89c-108.58,41.66-125.93,103.17-104.03,154.15c1.14,2.66,2.44,5.2,3.76,7.7
				c-21.83,17.06-42.42,35.91-61.6,56.37c-2.05-1.84-4.14-3.64-6.37-5.32c-42.69-31.96-101.71-20.1-131.84,26.5
				c-30.12,46.6-19.94,110.29,22.75,142.25c2.19,1.64,4.44,3.09,6.71,4.49c-11.07,26.22-20.31,53.56-27.63,81.84
				c-2.62-0.46-5.25-0.88-7.95-1.11c-52.03-4.38-98.06,37.74-102.8,94.08c-4.74,56.34,33.59,105.56,85.62,109.94
				c2.7,0.23,5.36,0.25,8.02,0.24c2.48,29.1,7.02,57.6,13.55,85.3c-2.47,1.01-4.93,2.06-7.36,3.31
				c-47.43,24.38-68.12,85.46-46.22,136.45c21.91,50.98,78.12,72.55,125.55,48.18c2.48-1.27,4.84-2.7,7.17-4.17
				c15.49,23.39,32.63,45.41,51.3,65.88c-1.73,2.25-3.42,4.53-5,6.96c-30.12,46.6-19.94,110.29,22.75,142.25
				c42.69,31.96,135.09,17.34,165.22-29.26c1.54-2.39-30.47-2.09-29.14-4.56c24.1,11.63,49.26,21.26,75.31,28.79
				c-0.46,2.84-0.89,5.69-1.13,8.61c-4.75,56.34,33.59,105.56,85.62,109.95c52.03,4.38,98.06-37.74,102.8-94.08
				c0.25-2.92,0.31-5.81,0.32-8.68c26.94-3.07,53.36-8.36,79.06-15.79c0.9,2.66,1.84,5.31,2.96,7.92
				c21.91,50.98,78.12,72.55,125.55,48.18c47.43-24.37,68.13-85.46,46.22-136.44c-1.14-2.66-2.44-5.2-3.76-7.7
				c21.83-17.06,42.42-35.91,61.6-56.37c2.05,1.84,4.14,3.64,6.37,5.31c42.69,31.96,101.71,20.1,131.84-26.5
				c30.12-46.6,19.94-110.29-22.75-142.25c-2.19-1.63-4.44-3.08-6.71-4.49c11.07-26.22,20.31-53.56,27.62-81.84
				C3083.13,1218.23,3085.77,1218.65,3088.46,1218.88z M2553.5,1444.09c-188.91-15.91-328.09-194.63-310.86-399.18
				c17.23-204.55,184.34-357.48,373.25-341.56c188.91,15.91,328.09,194.63,310.86,399.18
				C2909.52,1307.08,2742.41,1460,2553.5,1444.09z"/>
			<path class="st12" d="M3091.44,926.01c47.43-24.38,68.12-85.46,46.22-136.44c-21.91-50.98-78.12-72.55-125.55-48.18
				c-2.48,1.27-4.84,2.71-7.17,4.17c-15.49-23.39-32.64-45.41-51.3-65.88c1.73-2.24,3.42-4.53,5-6.96
				c30.12-46.6,53.27-139.03,7.53-166.45c-86.81-52.03-131.99,4.1-162.11,50.69c-1.54,2.39-2.91,4.84-4.24,7.32
				c-24.1-11.63-49.25-21.26-75.31-28.79c0.46-2.84,0.89-5.69,1.13-8.61c2.58-30.66-7.66-59.15-25.86-79.52
				c-11.6,88.1-22.53,176.27-32.58,264.54c162.13,40.81,275.18,205.08,259.56,390.63c-13.24,157.23-115.07,283.85-247.25,326.85
				c0.3,17.19,0.75,34.41,0.59,51.62c-0.43,46.7-3.46,93.5-6.54,140.26c12.82-2.59,25.51-5.68,38.01-9.3
				c0.9,2.66,1.84,5.31,2.96,7.92c21.91,50.98,70.85,81.98,158.12,41.02c48.28-22.66,35.55-78.31,13.65-129.29
				c-1.14-2.66-2.44-5.2-3.76-7.7c21.83-17.06,42.42-35.91,61.6-56.37c2.05,1.84,4.14,3.64,6.37,5.31
				c42.69,31.97,138.45,14.02,168.57-32.58c30.13-46.6-16.8-104.2-59.48-136.17c-2.19-1.64-4.44-3.08-6.71-4.49
				c11.07-26.22,20.31-53.56,27.63-81.83c2.62,0.46,5.25,0.88,7.95,1.11c52.03,4.38,98.06-37.74,102.8-94.08
				c4.74-56.34-33.59-105.56-85.62-109.94c-2.7-0.23-5.36-0.25-8.02-0.24c-2.48-29.1-7.02-57.6-13.55-85.3
				C3086.54,928.31,3089.01,927.26,3091.44,926.01z"/>
			<path class="st13" d="M3137,1205.31c52.03,4.38,98.06-37.74,102.8-94.07c4.75-56.34-33.59-105.56-85.62-109.94
				c-2.7-0.23-5.36-0.25-8.02-0.24c-2.48-29.1-7.02-57.6-13.55-85.3c2.47-1.01,4.94-2.06,7.36-3.31
				c47.43-24.37,68.13-85.46,46.22-136.44c-21.91-50.98-78.12-72.55-125.55-48.18c-2.48,1.28-4.84,2.71-7.17,4.17
				c-15.49-23.39-32.64-45.41-51.3-65.88c1.73-2.24,3.42-4.53,5-6.96c30.12-46.6,19.94-110.29-22.75-142.25
				c-42.69-31.97-101.71-20.1-131.84,26.5c-1.54,2.39-2.91,4.85-4.24,7.32c-24.1-11.63-49.26-21.26-75.31-28.79
				c0.46-2.84,0.89-5.7,1.13-8.61c4.75-56.34-33.59-105.56-85.62-109.94c-52.03-4.38-98.06,37.74-102.8,94.07
				c-0.25,2.92-0.31,5.81-0.33,8.68c-26.94,3.07-53.36,8.36-79.06,15.79c-0.9-2.66-1.84-5.31-2.96-7.92
				c-21.91-50.98-78.12-72.55-125.55-48.18c-47.43,24.37-68.12,85.46-46.22,136.44c1.15,2.67,2.44,5.2,3.76,7.7
				c-21.83,17.06-42.42,35.91-61.6,56.37c-2.05-1.84-4.14-3.64-6.37-5.32c-42.69-31.96-101.71-20.1-131.84,26.5
				c-30.12,46.6-19.94,110.29,22.75,142.25c2.19,1.64,4.44,3.08,6.71,4.49c-11.07,26.22-20.31,53.56-27.63,81.84
				c-2.62-0.46-5.25-0.88-7.95-1.11c-52.03-4.38-98.06,37.74-102.8,94.07c-4.74,56.34,33.59,105.56,85.62,109.95
				c2.7,0.23,5.36,0.25,8.02,0.24c2.48,29.1,7.02,57.6,13.55,85.3c-2.47,1.01-4.93,2.06-7.36,3.31
				c-47.43,24.38-68.12,85.46-46.22,136.45c21.91,50.98,78.12,72.55,125.55,48.18c2.48-1.27,4.84-2.7,7.17-4.17
				c15.49,23.39,32.63,45.41,51.3,65.88c-1.73,2.24-3.42,4.53-5,6.96c-30.12,46.6-19.94,110.29,22.75,142.25
				c42.69,31.96,101.71,20.1,131.84-26.5c1.54-2.39,2.91-4.85,4.24-7.32c24.1,11.63,49.26,21.26,75.3,28.79
				c-0.46,2.84-0.89,5.69-1.13,8.61c-4.74,56.34,33.59,105.56,85.62,109.94c52.03,4.38,98.06-37.74,102.8-94.08
				c0.25-2.92,0.31-5.81,0.33-8.68c26.94-3.07,53.36-8.36,79.06-15.79c0.9,2.66,1.84,5.31,2.96,7.92
				c21.91,50.98,78.12,72.55,125.55,48.18c47.43-24.37,68.13-85.46,46.22-136.44c-1.15-2.67-2.44-5.2-3.76-7.7
				c21.83-17.06,42.42-35.91,61.6-56.37c2.05,1.84,4.14,3.64,6.37,5.31c42.69,31.96,101.71,20.1,131.84-26.5
				c30.13-46.6,19.94-110.29-22.75-142.25c-2.19-1.63-4.44-3.08-6.71-4.49c11.07-26.22,20.31-53.56,27.63-81.83
				C3131.67,1204.66,3134.3,1205.08,3137,1205.31z M2602.04,1430.52c-188.91-15.91-328.09-194.63-310.86-399.18
				c17.23-204.55,184.34-357.48,373.25-341.56c188.91,15.91,328.09,194.63,310.86,399.18
				C2958.06,1293.51,2790.95,1446.43,2602.04,1430.52z"/>
		</g>
		<g>
			<g>
				<path class="st0" d="M2210.88,993.49v482.03c0,16,10.93,28.71,24.4,28.38l796.31-19.49c12.25-0.3,22.18-12.89,22.18-28.13
					v-458.9L2210.88,993.49z"/>
				
					<linearGradient id="SVGID_00000132054823875207531820000003206326752221748399_" gradientUnits="userSpaceOnUse" x1="2701.3604" y1="869.9616" x2="2329.6487" y2="1477.6296">
					<stop  offset="0" style="stop-color:#FFC444"/>
					<stop  offset="0.9964" style="stop-color:#F36F56"/>
				</linearGradient>
				<path style="fill:url(#SVGID_00000132054823875207531820000003206326752221748399_);" d="M3031.6,938.94l-796.31-6.44
					c-13.47-0.11-24.4,12.78-24.4,28.78v49.39l842.89,3.06v-47.02C3053.77,951.47,3043.85,939.04,3031.6,938.94z"/>
				<g>
					<g>
						<g>
							
								<linearGradient id="SVGID_00000080888207578090314980000004012478593428681357_" gradientUnits="userSpaceOnUse" x1="-7860.8516" y1="1073.9902" x2="-7684.7949" y2="1696.4756" gradientTransform="matrix(-1 1.300000e-03 1.300000e-03 1 -5324.9741 3.598)">
								<stop  offset="0" style="stop-color:#FFC444"/>
								<stop  offset="0.9964" style="stop-color:#F36F56"/>
							</linearGradient>
							<path style="fill:url(#SVGID_00000080888207578090314980000004012478593428681357_);" d="M2409.79,1247.98l44.51-186.61
								c67.1,26.02,115.41,101.27,115.77,190.27L2409.79,1247.98z"/>
						</g>
						<g>
							<path class="st1" d="M2528.81,1263.78c-2.48,42.44-19.4,80.31-44.94,106.46l-69.78-109.17L2528.81,1263.78z"/>
							<path class="st1" d="M2399.82,1241.69c-27.04-30.77-59.71-68.05-85.74-97.88c23.09-26.32,54.24-42.48,88.41-42.53
								c10.34-0.02,20.39,1.45,30,4.22L2399.82,1241.69z"/>
							<path class="st1" d="M2394.18,1253.44l-98.33,87.57c-13.81-24.3-21.87-53.69-21.87-85.44c0-39.15,12.26-74.97,32.43-102.23
								c7.22,8.26,15.24,17.43,24.02,27.46C2357,1211.14,2383.65,1241.46,2394.18,1253.44z"/>
							<path class="st1" d="M2397.02,1267.18l-1.89,139.89c-37.35-1.83-70.55-22.99-92.72-55.54L2397.02,1267.18z"/>
							<path class="st1" d="M2407.88,1272.98l67.39,105.35c-19.64,16.91-43.43,27.38-69.2,28.72L2407.88,1272.98z"/>
						</g>
					</g>
					<polygon class="st13" points="2996.18,1146.64 2592.63,1148.37 2592.63,1101.32 2996.18,1100.69 					"/>
					<polygon class="st13" points="2996.18,1229.77 2592.63,1233.51 2592.63,1186.46 2996.18,1183.83 					"/>
					<polygon class="st13" points="2996.18,1312.91 2592.63,1318.64 2592.63,1271.6 2996.18,1266.97 					"/>
					<polygon class="st13" points="2996.18,1396.05 2592.63,1403.78 2592.63,1356.73 2996.18,1350.1 					"/>
				</g>
				<path class="st0" d="M2266.85,971.28c0,7.09-4.83,12.82-10.8,12.79c-5.97-0.03-10.81-5.81-10.81-12.91
					c0-7.1,4.84-12.83,10.81-12.79C2262.01,958.4,2266.85,964.19,2266.85,971.28z"/>
			</g>
			<g>
				<path class="st0" d="M1373.49,2038.85v584.25c0,19.4,13.54,34.31,30.22,33.31l979.85-58.78c14.98-0.9,27.11-16.5,27.11-34.84
					v-552.59L1373.49,2038.85z"/>
				
					<linearGradient id="SVGID_00000044165095442301923930000007447933643933534910_" gradientUnits="userSpaceOnUse" x1="1980.4286" y1="1864.735" x2="1502.8984" y2="2645.3933">
					<stop  offset="0" style="stop-color:#AA80F9"/>
					<stop  offset="0.9964" style="stop-color:#6165D7"/>
				</linearGradient>
				<path style="fill:url(#SVGID_00000044165095442301923930000007447933643933534910_);" d="M2383.56,1940.68l-979.85,23.28
					c-16.68,0.4-30.22,16.44-30.22,35.84v59.87l1037.19-29.79v-56.62C2410.67,1954.91,2398.54,1940.33,2383.56,1940.68z"/>
				<polygon class="st1" points="2305.24,2502.06 1489.95,2546.48 1489.95,2148.15 2305.24,2120.8 				"/>
				
					<linearGradient id="SVGID_00000023271953987819642940000018320764172622798267_" gradientUnits="userSpaceOnUse" x1="1852.9919" y1="2220.6587" x2="1945.675" y2="2744.7979">
					<stop  offset="0" style="stop-color:#AA80F9"/>
					<stop  offset="0.9964" style="stop-color:#6165D7"/>
				</linearGradient>
				<path style="fill:url(#SVGID_00000023271953987819642940000018320764172622798267_);" d="M2305.24,2502.06l-815.3,44.42v-256.07
					c26.69,172.81,55.1,209.93,76.5,210.68c30.12,1.06,46.33-69.94,91.85-74.02c45.16-4.05,60.39,63.25,94.2,59.19
					c64.23-7.72,81.67-260.25,133.7-264.03c41.3-3,69.23,153.71,105.6,145.8c26.57-5.78,32.98-94.17,53.11-94.1
					c18.23,0.06,19,72.72,42.99,78.38c35.14,8.29,69.31-139.41,117.7-142.29c26.79-1.59,60.14,41.06,99.64,189.3
					C2305.24,2481.01,2305.24,2420.36,2305.24,2502.06z"/>
				<path class="st0" d="M1443.69,2008.39c0,8.59-5.98,15.72-13.37,15.92c-7.39,0.2-13.38-6.61-13.38-15.22
					c0-8.6,5.99-15.73,13.38-15.92C1437.71,1992.98,1443.69,1999.79,1443.69,2008.39z"/>
			</g>
			<g>
				<g>
					<path class="st0" d="M555.36,962.84v837.65c0,27.81,20.24,50.01,45.14,49.58l1431.12-24.44c21.4-0.37,38.72-21.49,38.72-47.19
						v-774.06L555.36,962.84z"/>
					
						<linearGradient id="SVGID_00000156563790384497215460000004196975895308602286_" gradientUnits="userSpaceOnUse" x1="1431.5763" y1="767.6707" x2="789.7536" y2="1816.9117">
						<stop  offset="0" style="stop-color:#FF9085"/>
						<stop  offset="1" style="stop-color:#FB6FBB"/>
					</linearGradient>
					<path style="fill:url(#SVGID_00000156563790384497215460000004196975895308602286_);" d="M2031.63,904.84L600.5,857.98
						c-24.91-0.82-45.14,21.07-45.14,48.88v85.83l1514.99,39.27v-79.32C2070.34,926.94,2053.03,905.54,2031.63,904.84z"/>
					<path class="st0" d="M658.78,926.7c0,12.3-8.92,22.02-19.93,21.71c-11.02-0.31-19.97-10.55-19.97-22.88
						c0-12.32,8.95-22.04,19.97-21.71C649.86,904.16,658.78,914.4,658.78,926.7z"/>
				</g>
				<g>
					<polygon class="st1" points="864.79,1737.19 752.04,1738.5 752.04,1116 864.79,1118.25 					"/>
					
						<linearGradient id="SVGID_00000006674759576916905270000007520917589160422572_" gradientUnits="userSpaceOnUse" x1="874.976" y1="1382.3691" x2="716.7141" y2="1876.2566">
						<stop  offset="0" style="stop-color:#FF9085"/>
						<stop  offset="1" style="stop-color:#FB6FBB"/>
					</linearGradient>
					<polygon style="fill:url(#SVGID_00000006674759576916905270000007520917589160422572_);" points="864.79,1737.19 
						752.04,1738.5 752.04,1442.95 864.79,1443.33 					"/>
					<polygon class="st1" points="1019.54,1735.41 908.56,1736.69 908.56,1119.12 1019.54,1121.34 					"/>
					
						<linearGradient id="SVGID_00000030458179812185324390000006622174814785631637_" gradientUnits="userSpaceOnUse" x1="1000.7545" y1="1548.2081" x2="913.5164" y2="1820.4519">
						<stop  offset="0" style="stop-color:#FF9085"/>
						<stop  offset="1" style="stop-color:#FB6FBB"/>
					</linearGradient>
					<polygon style="fill:url(#SVGID_00000030458179812185324390000006622174814785631637_);" points="1019.54,1735.41 
						908.56,1736.69 908.56,1590.09 1019.54,1589.63 					"/>
					<polygon class="st1" points="1171.87,1733.64 1062.62,1734.91 1062.62,1122.19 1171.87,1124.37 					"/>
					
						<linearGradient id="SVGID_00000151531502197919975160000011591519394067590050_" gradientUnits="userSpaceOnUse" x1="1139.8081" y1="1625.6849" x2="1086.2083" y2="1792.9539">
						<stop  offset="0" style="stop-color:#FF9085"/>
						<stop  offset="1" style="stop-color:#FB6FBB"/>
					</linearGradient>
					<polygon style="fill:url(#SVGID_00000151531502197919975160000011591519394067590050_);" points="1171.87,1733.64 
						1062.62,1734.91 1062.62,1658.55 1171.87,1657.71 					"/>
					<polygon class="st1" points="1321.83,1731.91 1214.28,1733.15 1214.28,1125.22 1321.83,1127.36 					"/>
					
						<linearGradient id="SVGID_00000101794813734057554030000004786242975408242319_" gradientUnits="userSpaceOnUse" x1="1370.3667" y1="1175.1329" x2="1127.0704" y2="1934.387">
						<stop  offset="0" style="stop-color:#FF9085"/>
						<stop  offset="1" style="stop-color:#FB6FBB"/>
					</linearGradient>
					<polygon style="fill:url(#SVGID_00000101794813734057554030000004786242975408242319_);" points="1321.83,1731.91 
						1214.28,1733.15 1214.28,1256.91 1321.83,1258.32 					"/>
					<polygon class="st1" points="1469.49,1730.2 1363.59,1731.43 1363.59,1128.2 1469.49,1130.31 					"/>
					
						<linearGradient id="SVGID_00000160166385969815172530000008037455902613635718_" gradientUnits="userSpaceOnUse" x1="1507.2867" y1="1238.1974" x2="1291.5045" y2="1911.5886">
						<stop  offset="0" style="stop-color:#FF9085"/>
						<stop  offset="1" style="stop-color:#FB6FBB"/>
					</linearGradient>
					<polygon style="fill:url(#SVGID_00000160166385969815172530000008037455902613635718_);" points="1469.49,1730.2 
						1363.59,1731.43 1363.59,1312.57 1469.49,1313.66 					"/>
					<polygon class="st1" points="1614.89,1728.52 1510.61,1729.73 1510.61,1131.13 1614.89,1133.21 					"/>
					
						<linearGradient id="SVGID_00000108307868185679821210000008696052656694825106_" gradientUnits="userSpaceOnUse" x1="1671.9114" y1="1132.6912" x2="1412.3351" y2="1942.7502">
						<stop  offset="0" style="stop-color:#FF9085"/>
						<stop  offset="1" style="stop-color:#FB6FBB"/>
					</linearGradient>
					<polygon style="fill:url(#SVGID_00000108307868185679821210000008696052656694825106_);" points="1614.89,1728.52 
						1510.61,1729.73 1510.61,1218.16 1614.89,1219.76 					"/>
					<polygon class="st1" points="1758.09,1726.86 1655.39,1728.05 1655.39,1134.01 1758.09,1136.06 					"/>
					
						<linearGradient id="SVGID_00000098906106173256258600000015778592435482010758_" gradientUnits="userSpaceOnUse" x1="1786.5028" y1="1296.1056" x2="1596.8549" y2="1887.9396">
						<stop  offset="0" style="stop-color:#FF9085"/>
						<stop  offset="1" style="stop-color:#FB6FBB"/>
					</linearGradient>
					<polygon style="fill:url(#SVGID_00000098906106173256258600000015778592435482010758_);" points="1758.09,1726.86 
						1655.39,1728.05 1655.39,1363.17 1758.09,1363.97 					"/>
					<polygon class="st1" points="1899.14,1725.23 1797.98,1726.4 1797.98,1136.86 1899.14,1138.87 					"/>
					
						<linearGradient id="SVGID_00000129197853486305711920000011821448926134916257_" gradientUnits="userSpaceOnUse" x1="1896.2189" y1="1474.7463" x2="1782.9258" y2="1828.2998">
						<stop  offset="0" style="stop-color:#FF9085"/>
						<stop  offset="1" style="stop-color:#FB6FBB"/>
					</linearGradient>
					<polygon style="fill:url(#SVGID_00000129197853486305711920000011821448926134916257_);" points="1899.14,1725.23 
						1797.98,1726.4 1797.98,1521.72 1899.14,1521.66 					"/>
				</g>
			</g>
			<g>
				<g>
					<path class="st0" d="M499.79,2106.29v486.27c0,16.14,10.58,28.64,23.61,27.91l772.38-43.17c11.92-0.67,21.56-13.7,21.56-29.11
						v-464.14L499.79,2106.29z"/>
					
						<linearGradient id="SVGID_00000070810468474187366440000000068621441084312725_" gradientUnits="userSpaceOnUse" x1="978.8376" y1="1967.3428" x2="599.8936" y2="2586.8342">
						<stop  offset="3.597120e-03" style="stop-color:#E38DDD"/>
						<stop  offset="1" style="stop-color:#9571F6"/>
					</linearGradient>
					<path style="fill:url(#SVGID_00000070810468474187366440000000068621441084312725_);" d="M1295.78,2025.65L523.4,2044
						c-13.03,0.31-23.61,13.65-23.61,29.79v49.83l817.55-23.02v-47.56C1317.34,2037.63,1307.69,2025.36,1295.78,2025.65z"/>
					<path class="st0" d="M554.66,2081.04c0,7.16-4.68,13.08-10.45,13.23c-5.78,0.15-10.46-5.53-10.46-12.69s4.69-13.09,10.46-13.23
						C549.98,2068.2,554.66,2073.89,554.66,2081.04z"/>
				</g>
				<g>
					
						<linearGradient id="SVGID_00000060734768818163766760000005089798178120563371_" gradientUnits="userSpaceOnUse" x1="670.325" y1="2211.3284" x2="513.8314" y2="2459.7207">
						<stop  offset="0" style="stop-color:#FF9085"/>
						<stop  offset="1" style="stop-color:#FB6FBB"/>
					</linearGradient>
					<path style="fill:url(#SVGID_00000060734768818163766760000005089798178120563371_);" d="M624.1,2339.23
						c7.17-17.07,20.61-29.56,36.4-32.47l1.1-83.14c-44.91,3.68-83.33,39.61-100.47,89.13L624.1,2339.23z"/>
					<path class="st13" d="M673.13,2306.53c21.34,3.17,37.97,24.31,39.95,51.3l65.92,0.63c-0.84-73.48-46.59-131.81-104.77-135.01
						L673.13,2306.53z"/>
					<path class="st13" d="M712.58,2373.56c-3.88,27.86-23.21,49.78-46.54,50.83c-6.88,0.31-13.42-1.22-19.33-4.25l-35.14,72.5
						c16.22,10.2,34.78,15.51,54.47,14.53c58.9-2.94,107.01-61.28,112.46-133.04L712.58,2373.56z"/>
					<path class="st13" d="M600.76,2484.84l35.18-72.52c-10.62-10.4-17.4-26.59-17.4-45.06c0-4.46,0.4-8.82,1.15-13.04l-63-26.43
						c-3.3,13.43-5.08,27.63-5.08,42.28C551.61,2418.57,571.08,2460.5,600.76,2484.84z"/>
				</g>
				<g>
					<path class="st13" d="M869.43,2329.3c6.98-16.83,20.05-29.14,35.41-32l1.07-82c-43.68,3.61-81.06,39.03-97.73,87.85
						L869.43,2329.3z"/>
					
						<linearGradient id="SVGID_00000163757353095216543280000013403724141567311758_" gradientUnits="userSpaceOnUse" x1="963.483" y1="2222.8623" x2="991.9243" y2="2767.3188">
						<stop  offset="0" style="stop-color:#FFC444"/>
						<stop  offset="0.9964" style="stop-color:#F36F56"/>
					</linearGradient>
					<path style="fill:url(#SVGID_00000163757353095216543280000013403724141567311758_);" d="M917.13,2297.08
						c20.75,3.14,36.93,23.99,38.87,50.62l64.13,0.66c-0.82-72.48-45.33-130.04-101.92-133.22L917.13,2297.08z"/>
					<path class="st13" d="M955.5,2363.22c-3.77,27.47-22.58,49.08-45.27,50.11c-6.69,0.3-13.05-1.22-18.8-4.2l-34.18,71.48
						c15.78,10.07,33.83,15.32,52.98,14.37c57.3-2.86,104.11-60.38,109.4-131.15L955.5,2363.22z"/>
					<path class="st13" d="M846.73,2472.91l34.22-71.5c-10.33-10.26-16.93-26.24-16.93-44.45c0-4.4,0.39-8.7,1.12-12.85l-61.27-26.1
						c-3.21,13.24-4.94,27.25-4.94,41.69C798.93,2407.51,817.86,2448.88,846.73,2472.91z"/>
				</g>
				<g>
					<path class="st13" d="M1108.11,2319.65c6.79-16.6,19.51-28.74,34.46-31.55l1.05-80.89c-42.5,3.54-78.87,38.46-95.09,86.61
						L1108.11,2319.65z"/>
					<path class="st13" d="M1154.52,2287.89c20.2,3.11,35.94,23.69,37.82,49.96l62.41,0.69c-0.8-71.51-44.12-128.31-99.19-131.47
						L1154.52,2287.89z"/>
					<path class="st13" d="M1191.86,2353.16c-3.67,27.1-21.97,48.4-44.05,49.41c-6.51,0.29-12.7-1.21-18.3-4.16l-33.26,70.49
						c15.35,9.94,32.92,15.14,51.55,14.21c55.76-2.79,101.31-59.49,106.47-129.31L1191.86,2353.16z"/>
					
						<linearGradient id="SVGID_00000015328982263547868320000003886229810675267774_" gradientUnits="userSpaceOnUse" x1="1085.5686" y1="2296.3303" x2="1043.8429" y2="2769.916">
						<stop  offset="0" style="stop-color:#AA80F9"/>
						<stop  offset="0.9964" style="stop-color:#6165D7"/>
					</linearGradient>
					<path style="fill:url(#SVGID_00000015328982263547868320000003886229810675267774_);" d="M1086.02,2461.29l33.3-70.51
						c-10.05-10.13-16.47-25.89-16.47-43.85c0-4.34,0.38-8.58,1.09-12.68l-59.62-25.78c-3.12,13.06-4.81,26.87-4.81,41.12
						C1039.51,2396.76,1057.93,2437.57,1086.02,2461.29z"/>
				</g>
			</g>
		</g>
		<g>
			
				<linearGradient id="SVGID_00000123406572622375703240000007912465147135890102_" gradientUnits="userSpaceOnUse" x1="2914.1047" y1="2749.3357" x2="2934.1907" y2="3004.9729" gradientTransform="matrix(1 0 0 1 -626.2627 0)">
				<stop  offset="0" style="stop-color:#AA80F9"/>
				<stop  offset="0.9964" style="stop-color:#6165D7"/>
			</linearGradient>
			<path style="fill:url(#SVGID_00000123406572622375703240000007912465147135890102_);" d="M2324.17,2877.2
				c0,0-72.09,36.63-73.26,42.48c-1.18,5.85,46.36-1.96,65.76-1.12c19.41,0.84,35.37-5.57,33.61-14.76
				c-1.76-9.19-8.55-32.31-8.55-32.31L2324.17,2877.2z"/>
			
				<linearGradient id="SVGID_00000003103874965426346680000001872370881175102372_" gradientUnits="userSpaceOnUse" x1="2961.8103" y1="2891.9849" x2="2958.1685" y2="2627.9355" gradientTransform="matrix(1 0 0 1 -626.2627 0)">
				<stop  offset="0" style="stop-color:#FFC444"/>
				<stop  offset="0.9964" style="stop-color:#F36F56"/>
			</linearGradient>
			<path style="fill:url(#SVGID_00000003103874965426346680000001872370881175102372_);" d="M2321.54,2847.47l4.39,36.29
				c0,0,11.41,4.54,19.08-0.83l3.27-39.8L2321.54,2847.47z"/>
			
				<linearGradient id="SVGID_00000174568837289815674390000004525032668151630222_" gradientUnits="userSpaceOnUse" x1="3252.3516" y1="2719.436" x2="3272.4902" y2="2975.7454" gradientTransform="matrix(1 0 0 1 -626.2627 0)">
				<stop  offset="0" style="stop-color:#AA80F9"/>
				<stop  offset="0.9964" style="stop-color:#6165D7"/>
			</linearGradient>
			<path style="fill:url(#SVGID_00000174568837289815674390000004525032668151630222_);" d="M2661.02,2848.34l8.39,15.05
				c2.34,4.21,3.04,9.27,1.92,14.07c-2.93,12.52-8.79,36.91-11.34,43.27c-3.48,8.66-50.13,13.81-50.13,13.81s-4.16-6.54,5.53-14.45
				c9.68-7.91,15.91-9.15,19.33-20.82c3.42-11.67,5.7-44.66,5.7-44.66L2661.02,2848.34z"/>
			
				<linearGradient id="SVGID_00000183934438055391584500000011688423029509416378_" gradientUnits="userSpaceOnUse" x1="3271.9663" y1="2887.2014" x2="3268.325" y2="2623.1858" gradientTransform="matrix(1 0 0 1 -626.2627 0)">
				<stop  offset="0" style="stop-color:#FFC444"/>
				<stop  offset="0.9964" style="stop-color:#F36F56"/>
			</linearGradient>
			<path style="fill:url(#SVGID_00000183934438055391584500000011688423029509416378_);" d="M2626.12,2810.1
				c3.06,2.73,18.05,53.58,18.05,53.58s4.85,6.93,14.06-3.3c9.21-10.23,4.17-4.59,4.17-4.59l-1.73-50.01L2626.12,2810.1z"/>
			
				<linearGradient id="SVGID_00000155834960219188948270000018386472407165885065_" gradientUnits="userSpaceOnUse" x1="2279.145" y1="2464.4272" x2="2453.678" y2="2464.4272">
				<stop  offset="0" style="stop-color:#FF9085"/>
				<stop  offset="1" style="stop-color:#FB6FBB"/>
			</linearGradient>
			<path style="fill:url(#SVGID_00000155834960219188948270000018386472407165885065_);" d="M2281.88,2118.42
				c-3.8,108.25-3.96,225.85,1.61,351.49c6.27,141.48,18.88,272.24,34.76,390.78c5.9,0.21,12.11,0.25,18.59,0.04
				c4.38-0.14,8.62-0.38,12.72-0.69c8.24-24.58,17.99-56.9,26.71-95.51c9.17-40.6,14.71-77.01,18.65-111.83
				c13.88-122.6-2.39-133.3,8.88-224.16c9.98-80.47,24.17-83.61,40.82-197.87c18.07-123.97,4.62-142.57-1.92-149.28
				C2414.84,2052.78,2349.42,2072.25,2281.88,2118.42z"/>
			
				<linearGradient id="SVGID_00000174566381064575180610000006272743279245507991_" gradientUnits="userSpaceOnUse" x1="2291.2126" y1="2464.4351" x2="2453.6772" y2="2464.4351">
				<stop  offset="0" style="stop-color:#FF9085"/>
				<stop  offset="1" style="stop-color:#FB6FBB"/>
			</linearGradient>
			<path style="opacity:0.3;fill:url(#SVGID_00000174566381064575180610000006272743279245507991_);" d="M2442.7,2081.38
				c-26.57-27.28-87.32-10.77-151.48,30.87c73.82,89.17,81.86,147.01,73.01,184.55c-10,42.42-40.41,54.64-40.29,101.02
				c0.14,57,46.15,72.1,45.18,132.42c-0.65,39.89-20.87,39.47-25.64,88.73c-5.65,58.29,20.76,78.37,12.21,121.5
				c-3.68,18.55-14.19,42.8-44.1,67.77c2.16,17.71,4.37,35.24,6.67,52.44c5.9,0.21,12.11,0.24,18.59,0.04
				c4.38-0.13,8.62-0.37,12.72-0.69c8.24-24.58,17.99-56.9,26.71-95.51c9.17-40.6,14.71-77.01,18.65-111.83
				c13.88-122.6-2.39-133.3,8.88-224.16c9.98-80.47,24.17-83.62,40.82-197.87C2462.69,2106.7,2449.24,2088.1,2442.7,2081.38z"/>
			
				<linearGradient id="SVGID_00000026165094229360584150000016798153211034293892_" gradientUnits="userSpaceOnUse" x1="2327.5981" y1="2445.1914" x2="2678.9524" y2="2445.1914">
				<stop  offset="0" style="stop-color:#FF9085"/>
				<stop  offset="1" style="stop-color:#FB6FBB"/>
			</linearGradient>
			<path style="fill:url(#SVGID_00000026165094229360584150000016798153211034293892_);" d="M2327.6,2116.6
				c63.56,103.98,132.11,233.39,193.42,388.29c46.33,117.06,79.93,226.96,104.6,324.91c3.34,1.73,11.21,5.18,21.28,3.69
				c13.72-2.03,21.95-11.82,24.1-14.56c10.04-70.22,8.93-129.68,5.53-172.6c-2.18-27.48-6.04-73.24-21.71-129.73
				c-17.55-63.28-29.61-66.84-52.5-133.79c-23.76-69.49-18-86.83-40.76-173.79c-9.35-35.72-24.99-88.89-50.81-152.48
				C2449.7,2076.56,2388.65,2096.58,2327.6,2116.6z"/>
			
				<linearGradient id="SVGID_00000134956738351036720000000012209469794210429357_" gradientUnits="userSpaceOnUse" x1="2578.3979" y1="1549.3533" x2="2914.1736" y2="1856.673">
				<stop  offset="3.597000e-03" style="stop-color:#26264F"/>
				<stop  offset="1" style="stop-color:#444B8C"/>
			</linearGradient>
			<path style="fill:url(#SVGID_00000134956738351036720000000012209469794210429357_);" d="M2310.68,1664.81
				c-70.18-45.84-100.25-40.55-120.6-81.72c-20.12-40.72-20.08-105.33,13.22-139.55c2.45-2.51,27.81-27.77,62.14-23.44
				c51.92,6.55,55.74,72.14,113.98,102.18c49.34,25.46,103.16,7.55,139.57-4.57c87.69-29.18,100.71-84.39,146.18-75.59
				c56.97,11.02,62.01,102.63,118.77,108.28c37.94,3.77,46.97-36.03,96.85-46.99c58.6-12.88,122.91,25.2,158.97,71.5
				c65.92,84.63,48.55,210.96,7.31,288.07c-33.88,63.35-106.74,136.22-168.11,120.54c-48.49-12.38-64.27-73.5-105.98-67.42
				c-29.66,4.33-30.73,36.54-65.78,53.12c-57.56,27.23-128.62-24.67-148.01-38.82c-55.25-40.35-46.45-66.15-117.69-147.04
				C2413.36,1751.41,2372.83,1705.4,2310.68,1664.81z"/>
			
				<linearGradient id="SVGID_00000076562215767534036300000002490891059287599491_" gradientUnits="userSpaceOnUse" x1="1745.5293" y1="1461.757" x2="1808.0302" y2="1461.757">
				<stop  offset="0" style="stop-color:#893976"/>
				<stop  offset="1" style="stop-color:#311944"/>
			</linearGradient>
			<path style="fill:url(#SVGID_00000076562215767534036300000002490891059287599491_);" d="M1808.03,1486.53
				c0,0-11.86-16.59-19.39-28.93c-7.53-12.33-42.66-46.98-42.66-46.98s-2.68,5.5,4.89,14.3c7.56,8.8,23.48,23.87,19.82,30.25
				c-3.66,6.38-13.96,12-6.53,24.05c7.43,12.04,20.36,3.82,26.97,13.48c6.61,9.66,13.38,20.2,13.38,20.2L1808.03,1486.53z"/>
			
				<linearGradient id="SVGID_00000012447296695641842720000005604644115229526929_" gradientUnits="userSpaceOnUse" x1="2106.113" y1="1689.9165" x2="2765.4741" y2="2081.7793">
				<stop  offset="0" style="stop-color:#AA80F9"/>
				<stop  offset="0.9964" style="stop-color:#6165D7"/>
			</linearGradient>
			<path style="fill:url(#SVGID_00000012447296695641842720000005604644115229526929_);" d="M1812.66,1475.7
				c-8,13.53-16,27.06-24,40.59c8.33,27.2,22.68,64.97,47.83,104.82c11.09,17.58,45.49,69.15,103.72,110.62
				c79.27,56.45,223.69,109.12,265.97,49.04c37.72-53.6-23.16-172.42-34.38-193.75c-22.69,11.9-59.99,27.68-107.92,31.41
				c-15.71,1.22-56.6,4.01-102.66-11.81C1875.96,1577.34,1828.63,1503.44,1812.66,1475.7z"/>
			
				<linearGradient id="SVGID_00000067222260246266524570000006986471226683949469_" gradientUnits="userSpaceOnUse" x1="2062.4526" y1="1763.3813" x2="2721.8137" y2="2155.2441">
				<stop  offset="0" style="stop-color:#AA80F9"/>
				<stop  offset="0.9964" style="stop-color:#6165D7"/>
			</linearGradient>
			<path style="fill:url(#SVGID_00000067222260246266524570000006986471226683949469_);" d="M2079.31,1657.06
				c3.99,20.05,66.34,9.29,79.2,45.68c6.9,19.52-7.76,31.93-8.37,65.09c-0.69,37.12,17.01,58.2,30.58,87.41
				c19.88,42.77,19.95,84.7,20.1,168.55c0.21,119.36-26.18,143.36-3.66,181.83c29.32,50.07,99.74,53.27,118.77,54.14
				c65.09,2.96,72.81-31.62,143.44-35.75c80.66-4.72,92.15,39.13,149.84,20.43c52.7-17.08,70.43-62.52,111.46-53.11
				c25.65,5.88,32.45,26.78,56.65,24.52c24.31-2.27,49.45-26.37,51.16-51.08c2.13-30.71-31.44-69.4-84.05-69.46
				c-20.91,8.21-55.56,17.72-94.1,7.15c-63.15-17.31-96-77.35-132.48-144.03c-25.24-46.13-71.62-130.92-72.18-242.1
				c-0.23-45.85,7.52-59.26-3.65-83.77c-36.29-79.58-177.09-67.7-189.01-66.55C2157.08,1575.24,2074.5,1632.85,2079.31,1657.06z"/>
			<g>
				
					<linearGradient id="SVGID_00000047767500838334827900000014710188970238346147_" gradientUnits="userSpaceOnUse" x1="2203.6655" y1="1853.6068" x2="2094.2939" y2="2034.8942">
					<stop  offset="3.597000e-03" style="stop-color:#6165D7"/>
					<stop  offset="1" style="stop-color:#AA80F9"/>
				</linearGradient>
				<path style="fill:url(#SVGID_00000047767500838334827900000014710188970238346147_);" d="M2047.86,1757.21l176.85,7.72
					c1.94,0.08,3.64,1.48,4.3,3.52l83.31,258.4c1.2,3.71-2.55,12.98-6.05,12.56l-174.84-26.59c-1.78-0.21-3.3-1.52-3.94-3.39
					l-86.67-241.19C2039.57,1764.65,2044.43,1757.06,2047.86,1757.21z"/>
				<path class="st0" d="M2045.11,1763.53l176.85,7.72c1.94,0.08,3.64,1.48,4.3,3.52l83.31,258.4c1.19,3.71-1.49,7.53-5,7.11
					l-175.9-21.15c-1.78-0.21-3.3-1.52-3.94-3.39l-84.25-244.97C2039.25,1767.2,2041.69,1763.38,2045.11,1763.53z"/>
				
					<linearGradient id="SVGID_00000077296443213037787230000012474876460687213217_" gradientUnits="userSpaceOnUse" x1="2154.8459" y1="1663.5465" x2="2122.6877" y2="1768.7916">
					<stop  offset="3.597000e-03" style="stop-color:#26264F"/>
					<stop  offset="1" style="stop-color:#444B8C"/>
				</linearGradient>
				<path style="fill:url(#SVGID_00000077296443213037787230000012474876460687213217_);" d="M2093.47,1773.16l-6.81-20.6
					c-0.61-1.86,0.62-3.84,2.39-3.84h64.37c1.11,0,2.09,0.8,2.43,1.99l6.47,22.78c0.53,1.87-0.75,3.77-2.5,3.71l-64.03-2.19
					C2094.75,1774.98,2093.83,1774.24,2093.47,1773.16z"/>
				<path class="st1" d="M2202.33,1977.73c-11.49-41.65,7.42-68.77-11.88-101.13c-27.29-45.78-85.93-26.4-104.15-63.34
					c-4.92-9.96-7.27-24.8-0.64-47.96l-40.55-1.77c-3.42-0.15-5.87,3.66-4.64,7.24l84.25,244.97c0.64,1.87,2.16,3.17,3.94,3.39
					l106.91,12.86C2216.54,2013.42,2207,1994.66,2202.33,1977.73z"/>
			</g>
			
				<linearGradient id="SVGID_00000039821467437303843740000010411114676472129184_" gradientUnits="userSpaceOnUse" x1="2232.7915" y1="1941.4326" x2="2331.4763" y2="1941.4326">
				<stop  offset="0" style="stop-color:#893976"/>
				<stop  offset="1" style="stop-color:#311944"/>
			</linearGradient>
			<path style="fill:url(#SVGID_00000039821467437303843740000010411114676472129184_);" d="M2331.48,1946.78
				c0,0-26.72-5.94-37.03-13.2c-10.31-7.26-21.24-18.91-36.43-18.28c-15.19,0.64-30.49,9.27-23.47,11.26
				c7.02,1.98,20.13,17.55,30.15,23.68c10.02,6.13,32.91,6.68,37.17,6.35c4.26-0.33,21.09,10.98,21.09,10.98L2331.48,1946.78z"/>
			
				<linearGradient id="SVGID_00000034049320929384009520000002525818981447890878_" gradientUnits="userSpaceOnUse" x1="2192.8354" y1="1559.1627" x2="2643.7764" y2="2431.2458">
				<stop  offset="0" style="stop-color:#AA80F9"/>
				<stop  offset="0.9964" style="stop-color:#6165D7"/>
			</linearGradient>
			<path style="opacity:0.3;fill:url(#SVGID_00000034049320929384009520000002525818981447890878_);" d="M2744.44,2095.29
				c-20.91,8.21-55.56,17.72-94.1,7.15c-63.15-17.31-96-77.35-132.48-144.03c-25.24-46.13-71.62-130.92-72.18-242.1
				c-0.23-45.85,7.52-59.26-3.65-83.77c-1.78-3.9-3.88-7.52-6.13-10.99c-27.57,20.84-38.26,41.7-41.38,60.02
				c-7.6,44.59,28.25,81.05,9.59,119.52c-17.87,36.84-62.05,26.65-71.26,58.23c-9.94,34.07,38.96,54.62,41.11,107.26
				c2.59,63.18-65.36,94.12-53.45,136.37c10.32,36.62,67.18,33.98,67.15,53.63c-0.03,23.35,1.76-24.87-67.15-53.63
				c-20.88-8.71-119.17,63.83-131.12,51.1c-2.57,20.58-2.11,34.69,7.78,51.57c29.32,50.07,99.74,53.27,118.77,54.14
				c65.09,2.96,72.81-31.62,143.44-35.75c80.66-4.72,92.15,39.13,149.84,20.43c52.7-17.08,70.43-62.52,111.46-53.11
				c25.65,5.88,32.45,26.78,56.65,24.52c24.31-2.27,49.45-26.37,51.16-51.08C2830.62,2134.04,2797.05,2095.35,2744.44,2095.29z"/>
			
				<linearGradient id="SVGID_00000066491632784806397280000001661795040450869161_" gradientUnits="userSpaceOnUse" x1="2228.7053" y1="1809.4457" x2="2852.8706" y2="1755.4764">
				<stop  offset="0" style="stop-color:#AA80F9"/>
				<stop  offset="0.9964" style="stop-color:#6165D7"/>
			</linearGradient>
			<path style="fill:url(#SVGID_00000066491632784806397280000001661795040450869161_);" d="M2330.79,1934.4
				c-8.22,16.35-16.45,32.69-24.67,49.03c12.68,6.94,148.21,78.64,246.45,7.66c12.15-8.77,44.43-32.1,61.83-77.78
				c19.18-50.34,8.42-97.15,1.44-127.55c-17.28-75.26-66.13-154.2-135.45-185.91c-26.48-12.12-57.91-18.24-87.48-24.01
				c-25.07-4.89-64.48-10.88-65.32-6.64c-0.41,2.07,8.75,4.72,15.11,8.74c39.06,24.7-10.53,126.72,35.37,175.64
				c43.97,46.87,101.04,39.13,110.24,81.6c4.28,19.75-4.57,37.51-8.52,45.42C2457.79,1924.77,2398.57,1944.53,2330.79,1934.4z"/>
			
				<linearGradient id="SVGID_00000023281361869328416350000015111897104417110197_" gradientUnits="userSpaceOnUse" x1="2545.5562" y1="1783.3492" x2="2671.8425" y2="1600.0299" gradientTransform="matrix(0.9787 -0.2054 0.2054 0.9787 -614.8153 371.9818)">
				<stop  offset="0" style="stop-color:#893976"/>
				<stop  offset="1" style="stop-color:#311944"/>
			</linearGradient>
			<path style="fill:url(#SVGID_00000023281361869328416350000015111897104417110197_);" d="M2238.8,1492.62
				c0,0,15.92,51.74,35.74,59.79c19.82,8.05,51.16,17.3,55.1,20.88c3.93,3.58-105.32,43.24-166.58,24.99l0,0
				c17.46-8.54,22.12-11.27,22.12-11.27c4.66-2.73,13.36-7.81,21.51-15.89c5.55-5.49,14.25-15.72,20.79-32.72l-5.73-29.37
				L2238.8,1492.62z"/>
			
				<linearGradient id="SVGID_00000088104476566174781550000002972530625313326735_" gradientUnits="userSpaceOnUse" x1="2531.2288" y1="1693.3794" x2="2754.4243" y2="1559.0063" gradientTransform="matrix(0.9787 -0.2054 0.2054 0.9787 -614.8153 371.9818)">
				<stop  offset="0" style="stop-color:#893976"/>
				<stop  offset="1" style="stop-color:#311944"/>
			</linearGradient>
			<path style="fill:url(#SVGID_00000088104476566174781550000002972530625313326735_);" d="M2245.95,1515.2
				c0,0-9.23,22.93-31.1,19.41c-19.59-3.15-18.59-58.25-5.28-67.63c4.44-3.13,13.44-4.32,20.13-1.58
				c4.7,1.92,18.69,14.73,15.57,33.5c4.32-2.57,8.62-2.17,10.11,0.14c1.89,2.93-1.17,8.24-1.87,9.44
				C2251.09,1512.66,2247.59,1514.49,2245.95,1515.2z"/>
		</g>
	</g>
</g>
</svg>
