<?xml version="1.0" encoding="utf-8"?>
<!-- Generator: Adobe Illustrator 25.4.1, SVG Export Plug-In . SVG Version: 6.00 Build 0)  -->
<svg version="1.1" xmlns="http://www.w3.org/2000/svg" xmlns:xlink="http://www.w3.org/1999/xlink" x="0px" y="0px"
	 viewBox="0 0 3710 3710" style="enable-background:new 0 0 3710 3710;" xml:space="preserve">
<style type="text/css">
	.st0{fill:#FFFFFF;}
	.st1{fill:#F4F7FA;}
	.st2{opacity:0.3;}
	.st3{clip-path:url(#SVGID_00000105427743365995484000000002992987794889024668_);}
	.st4{opacity:0.5;}
	.st5{clip-path:url(#SVGID_00000003070143303096302180000018222233279734351521_);}
	.st6{fill:url(#SVGID_00000144335784423081121990000003252492013566615948_);}
	.st7{fill:url(#SVGID_00000096048065737146630430000015653101613925864852_);}
	.st8{fill:url(#SVGID_00000124847939181343161480000009628440988054325951_);}
	.st9{fill:url(#SVGID_00000136413867678621358120000007796449319814793867_);}
	.st10{fill:url(#SVGID_00000012471757408980214530000012240882856228638851_);}
	.st11{fill:url(#SVGID_00000173159144995172309360000002594086625417958826_);}
	.st12{fill:url(#SVGID_00000134231389366150504460000015662276888613360276_);}
	.st13{opacity:0.2;}
	.st14{fill:url(#SVGID_00000080913190221769652720000011166639949044690086_);}
	.st15{fill:url(#SVGID_00000091709702842206526710000014546785455525574333_);}
	.st16{fill:url(#SVGID_00000094577792590234477670000007742178426829061295_);}
	.st17{fill:url(#SVGID_00000098188996092578988620000017776721773087106726_);}
	.st18{fill:url(#SVGID_00000060737911289940453620000015904676890155785897_);}
	.st19{fill:url(#SVGID_00000025402302015691756740000011539771985083321997_);}
	.st20{fill:url(#SVGID_00000095311870303175104700000018113193831371870863_);}
	.st21{fill:url(#SVGID_00000182507611331942637460000011013225961305989016_);}
	.st22{fill:url(#SVGID_00000007400780268882358820000009527131568320281018_);}
	.st23{fill:url(#SVGID_00000090259672171536348930000010823755629621831094_);}
	.st24{fill:url(#SVGID_00000067228706623730779420000016624876380878715290_);}
	.st25{fill:url(#SVGID_00000059285353728181335220000002814819395334581904_);}
	.st26{fill:url(#SVGID_00000109733363096339068820000013126968854194723715_);}
	.st27{fill:url(#SVGID_00000174601447990170944830000009845704092617580208_);}
	.st28{fill:url(#SVGID_00000022531596318134224140000006742979070375552939_);}
	.st29{fill:url(#SVGID_00000016768288313625363440000006510732263924501670_);}
	.st30{fill:url(#SVGID_00000038402068609922213220000013162477275764001204_);}
	.st31{fill:url(#SVGID_00000069378059389943056090000008671924830815982725_);}
	.st32{fill:url(#SVGID_00000057149631811331068780000004204972622587294594_);}
	.st33{fill:url(#SVGID_00000065781996313700898350000002851457096066068382_);}
	.st34{fill:url(#SVGID_00000141414591395596116580000004852410348872554922_);}
	.st35{fill:url(#SVGID_00000053524277023517031450000007364523566203743886_);}
	.st36{fill:url(#SVGID_00000126289974569272441180000012238582762932122545_);}
	.st37{fill:url(#SVGID_00000173868603213839165380000003009995611640774533_);}
	.st38{fill:url(#SVGID_00000170251636288645536780000015169181834572362901_);}
	.st39{fill:url(#SVGID_00000052824268997467824470000007028240447589759931_);}
	.st40{fill:url(#SVGID_00000113320310574182283710000015248584238764987010_);}
	.st41{fill:url(#SVGID_00000073703362701474397980000012189213058142485683_);}
	.st42{fill:#BFC8D6;}
	.st43{opacity:0.3;fill:#BFC8D6;}
	.st44{fill:url(#SVGID_00000181775193880001476590000015916425358052876705_);}
	.st45{opacity:0.1;fill:url(#SVGID_00000176038461127829164450000011179263827950715068_);}
	.st46{fill:url(#SVGID_00000100379771566879698900000012697168786495899544_);}
	.st47{fill:url(#SVGID_00000070116397508957113360000015297290741231732927_);}
	.st48{fill:url(#SVGID_00000005966590892042992620000000299428536684123305_);}
	.st49{fill:url(#SVGID_00000103264078739919772810000012816102839851943346_);}
	.st50{fill:url(#SVGID_00000106831257213422159340000007697381668822398873_);}
	.st51{opacity:0.3;fill:url(#SVGID_00000103973042828461478990000005834931472043017406_);}
	.st52{fill:url(#SVGID_00000169537184940508938660000012058967905352795527_);}
	.st53{opacity:0.1;fill:url(#SVGID_00000011746747342605506190000012217607834163689661_);}
	.st54{fill:url(#SVGID_00000142157775649978356650000015700365066525032349_);}
	.st55{fill:url(#SVGID_00000103242232504241017480000008952825024971301803_);}
	.st56{fill:url(#SVGID_00000121964712630625042180000016250427205612128413_);}
	.st57{fill:url(#SVGID_00000014619176687911442730000005493938867707233695_);}
	.st58{fill:url(#SVGID_00000086663319347361526800000005633544202392400059_);}
	.st59{fill:url(#SVGID_00000037652138828061204600000006816036846130039193_);}
	.st60{fill:url(#SVGID_00000182519323451100072030000011248013205930127497_);}
	.st61{fill:url(#SVGID_00000093892443281490947650000016167359782858690979_);}
	.st62{fill:url(#SVGID_00000143605623025788254610000010757690064020313250_);}
	.st63{fill:url(#SVGID_00000080186844943200038010000006106097719660096417_);}
	.st64{fill:url(#SVGID_00000037668788840555980180000002228214925539567504_);}
	.st65{fill:url(#SVGID_00000058572309730830633000000000317638871237055885_);}
	.st66{fill:url(#SVGID_00000108999253268382522130000000567217784039817880_);}
	.st67{opacity:0.3;fill:url(#SVGID_00000067956050508551191210000018240042451999707327_);}
	.st68{fill:url(#SVGID_00000117659500636406855580000003116014706817144710_);}
	.st69{fill:url(#SVGID_00000126320177827355622980000001776836736656440453_);}
	.st70{fill:url(#SVGID_00000039831467792146623970000014733416434956575650_);}
	.st71{fill:url(#SVGID_00000103249641012841764760000006463002171249339782_);}
	.st72{fill:url(#SVGID_00000096755071732945699720000007164073507490625929_);}
	.st73{opacity:0.3;fill:url(#SVGID_00000060725534331876709600000011743906241203184546_);}
	.st74{fill:url(#SVGID_00000126323351319093754220000017843758334563306671_);}
	.st75{opacity:0.3;fill:url(#SVGID_00000121269933400125469760000011675283158538094259_);}
	.st76{fill:url(#SVGID_00000098221681539367617980000013130600295189511870_);}
	.st77{fill:url(#SVGID_00000029727699824579391770000006475723278047926400_);}
	.st78{fill:url(#SVGID_00000090262040742399267210000017348324721519403688_);}
	.st79{fill:url(#SVGID_00000150093934512124939480000013392182040368252323_);}
	.st80{fill:url(#SVGID_00000150092113007167308630000000635823781577324424_);}
	.st81{fill:url(#SVGID_00000168814798719353282620000014499222298732152461_);}
	.st82{fill:url(#SVGID_00000154400462726725127240000001714730640078604713_);}
	.st83{fill:url(#SVGID_00000111167919938226907620000000612711675815960986_);}
	.st84{fill:url(#SVGID_00000047057676401524472170000004579181467390111114_);}
	.st85{opacity:0.3;fill:url(#SVGID_00000108284481613396893760000000611010776832388013_);}
	.st86{opacity:0.15;fill:url(#SVGID_00000174579056701588746420000009762676666203913899_);}
	.st87{opacity:0.15;}
	.st88{fill:url(#SVGID_00000003788022535302142780000005226567326682895283_);}
	.st89{fill:url(#SVGID_00000088853363974639524610000012824480458838736523_);}
	.st90{fill:url(#SVGID_00000060030724696251479190000015441015151752284312_);}
	.st91{fill:url(#SVGID_00000143577500067908533940000014874550004996066717_);}
	.st92{fill:url(#SVGID_00000037678612906909722690000001369500454244005014_);}
	.st93{fill:url(#SVGID_00000068645243244636415630000014580901931445669507_);}
	.st94{opacity:0.3;fill:url(#SVGID_00000162334923038535864670000007263612374913699772_);}
	.st95{fill:url(#SVGID_00000009561646878543503890000005865799875015309194_);}
	.st96{fill:url(#SVGID_00000049925539987636456530000012966897361028788407_);}
	.st97{opacity:0.5;fill:#FFFFFF;}
	.st98{opacity:0.49;fill:#D8DEE8;}
	.st99{fill:url(#SVGID_00000096755117260904250850000001886093989713050788_);}
	.st100{opacity:0.3;fill:url(#SVGID_00000053534291417663699610000018430136564098814894_);}
	.st101{fill:url(#SVGID_00000015354530139008186020000001807420483669926272_);}
	.st102{opacity:0.3;fill:url(#SVGID_00000023975273076007708840000009012686324577087876_);}
	.st103{fill:url(#SVGID_00000005978263587788901330000010964807204958796191_);}
	.st104{opacity:0.3;fill:#D8DEE8;}
	.st105{fill:#D8DEE8;}
</style>
<g id="Background">
	<g>
		<g>
			<rect class="st0" width="3710" height="3710"/>
		</g>
	</g>
</g>
<g id="Illustration">
	<g>
		<path class="st1" d="M3224.79,1539.2c-30.82-373.58-46.23-560.37-117.95-681.22c-205.35-346.03-802.39-428.32-1179.47-396.77
			c-504.82,42.24-1082.33,327.58-1336.54,878.5C359.94,1840.1,466.41,2406.51,814.3,2777.02
			c637.75,679.22,1953.3,557.95,2274.66,112.26c128.25-177.87,137.5-461.97,151.08-879.3
			C3246.58,1809.1,3233.85,1649.01,3224.79,1539.2z"/>
		<g>
			<g>
				<g class="st2">
					<defs>
						<path id="SVGID_1_" class="st2" d="M1781.53,2859.84c-82.99-101.51-188.91-262.55-218.42-474.31
							c-38.71-277.72,88-398.67,135.86-853.82c30.26-287.79,48.48-488.93-81.9-615.1c-102.18-98.87-283.38-139.86-404.99-76.89
							c-101.12,52.35-172.89,182.7-202.23,278.64c-23.92,78.19-20.92,137.67-72.59,173.68c-52.81,36.8-100.43,5.69-148.7,31.73
							c-97.89,52.82-74.57,273.85-70.8,309.57c41.94,397.37,362.3,704.09,503.65,836.2C1338.28,2578.77,1521.7,2728,1781.53,2859.84
							z"/>
					</defs>
					
						<linearGradient id="SVGID_00000134227064349340187590000003411591536968208048_" gradientUnits="userSpaceOnUse" x1="912.3393" y1="1061.9712" x2="1395.4735" y2="1688.4532">
						<stop  offset="0" style="stop-color:#AA80F9"/>
						<stop  offset="0.9964" style="stop-color:#6165D7"/>
					</linearGradient>
					
						<use xlink:href="#SVGID_1_"  style="overflow:visible;fill:url(#SVGID_00000134227064349340187590000003411591536968208048_);"/>
					<clipPath id="SVGID_00000134222887363227433740000009342869028468659089_">
						<use xlink:href="#SVGID_1_"  style="overflow:visible;"/>
					</clipPath>
					<g style="clip-path:url(#SVGID_00000134222887363227433740000009342869028468659089_);">
						<path class="st0" d="M1880.67,2944.87c-156.9-84.68-289.17-178.43-393.15-278.63c-153.89-148.3-240.97-306.76-258.83-470.99
							c-13.97-128.45,15.21-261.81,52.16-430.65c30.63-139.96,64.92-236.32,95.19-321.33c39.23-110.21,70.22-197.26,74.13-328.56
							c3.97-133.4-22.09-270.03-77.47-406.1l6.38-2.6c55.74,136.96,81.98,274.54,77.98,408.9
							c-3.94,132.39-35.09,219.89-74.53,330.67c-30.19,84.82-64.42,180.95-94.95,320.49c-38.25,174.8-65.88,301.1-52.04,428.43
							c37.65,346.25,373.39,595.87,648.41,744.32L1880.67,2944.87z"/>
						<path class="st0" d="M1306.54,1666.58l-0.61-3.84c-42.35-266.29-158.14-444.73-247.82-547.53
							c-97.09-111.3-185.13-160.23-186.01-160.71l3.31-6.04c0.89,0.49,90,50.01,187.89,162.22
							c89.83,102.98,205.69,281.31,248.8,547.05c18.92-6.11,107.06-37.11,200.98-111.27c97.28-76.81,220.85-217,257.17-448.7
							l6.8,1.07c-36.68,234.04-161.59,375.64-259.93,453.22c-106.54,84.06-205.85,113.18-206.84,113.46L1306.54,1666.58z"/>
						<path class="st0" d="M1234.12,2045.85l-2.29-1.02c-149.02-66.07-279.96-298.41-363.57-481.69
							c-90.41-198.2-146.51-383.28-147.06-385.12l6.59-1.98c0.55,1.84,56.54,186.53,146.76,384.32
							c118.4,259.55,242.06,424.44,357.79,477.17c14.5-15.89,119.75-129.66,246.35-224.72c136.36-102.4,422.73-106.05,425.6-106.08
							l0.06,6.89c-2.85,0.02-286.98,3.66-421.53,104.7c-135.2,101.53-245.95,224.45-247.06,225.68L1234.12,2045.85z"/>
						<path class="st0" d="M1449.85,2623.4l-6.62-1.66c-1.38-0.35-140.32-35.64-315.93-123.25
							c-162.12-80.88-389.63-224.18-552.84-447.56L259.3,1619.59l5.56-4.06l315.16,431.35c162.35,222.21,388.81,364.85,550.2,445.38
							c153.35,76.52,278.56,112.98,308.09,121.06c-29.99-76.28-34.66-152.27-13.87-225.96c17.07-60.51,51.24-119.56,101.57-175.5
							c85.51-95.05,189.62-149,190.66-149.53l3.14,6.13c-1.03,0.53-104.16,53.99-188.81,148.15
							c-77.8,86.53-155.48,226.26-83.76,400.51L1449.85,2623.4z"/>
					</g>
				</g>
			</g>
			<g>
				<g class="st4">
					<defs>
						<path id="SVGID_00000109724865696113313270000000392978650809746334_" class="st4" d="M1669.8,2759.5
							c-181.9,32.3-417.5,43.95-654.12-32.66c-60.39-19.55-433.42-140.32-414.74-328.86c6.58-66.41,56.21-85.15,66.38-173.77
							c12.04-105.02-49.93-145.94-104.24-265.05c-32.41-71.08-127.24-279.08-26.82-420.21c60.01-84.33,187.03-140.97,290.31-131.4
							c151.48,14.03,222.19,167.75,337.85,430.23c102.53,232.67,91.58,295.92,167.99,461.98
							C1389.13,2422.99,1487.68,2589.2,1669.8,2759.5z"/>
					</defs>
					
						<linearGradient id="SVGID_00000049183492702275265330000016519256800036487815_" gradientUnits="userSpaceOnUse" x1="491.3775" y1="2095.4407" x2="1669.8029" y2="2095.4407">
						<stop  offset="0" style="stop-color:#FF9085"/>
						<stop  offset="1" style="stop-color:#FB6FBB"/>
					</linearGradient>
					
						<use xlink:href="#SVGID_00000109724865696113313270000000392978650809746334_"  style="overflow:visible;fill:url(#SVGID_00000049183492702275265330000016519256800036487815_);"/>
					<clipPath id="SVGID_00000160904896935180274880000012320922652191102087_">
						<use xlink:href="#SVGID_00000109724865696113313270000000392978650809746334_"  style="overflow:visible;"/>
					</clipPath>
					<g style="clip-path:url(#SVGID_00000160904896935180274880000012320922652191102087_);">
						<path class="st0" d="M1975.85,2807.49c-32.22,0-64.36-1.62-96.39-4.86c-254.22-25.71-488.25-156.82-695.58-389.67
							c-215.47-242-348.17-533.37-421.56-735.19c-51.09-140.52-65.01-303.21-41.37-483.56l6.83,0.89
							c-23.5,179.24-9.7,340.84,41.01,480.31c89.26,245.48,433.21,1051.78,1111.36,1120.36c189.47,19.18,382.81-18.87,574.6-113.05
							l3.04,6.18C2297.22,2767.76,2135.53,2807.49,1975.85,2807.49z"/>
						<path class="st0" d="M944.65,2069.87l-3.04-1.58c-428.52-221.98-466.03-554.35-467.33-650.93c-0.03-1.98-0.03-3.25-0.09-3.76
							l6.83-0.9c0.09,0.68,0.11,1.7,0.15,4.57c1.27,95.38,38.33,423.09,460.52,643.3c7.82-15.75,43.48-90.8,67.71-194.61
							c25.07-107.43,42.68-268.55-15.84-426.01l6.46-2.4c59.14,159.14,41.37,321.76,16.04,430.17
							c-27.42,117.37-69.39,198.31-69.81,199.12L944.65,2069.87z"/>
						<path class="st0" d="M915.83,2458.42c-96.9,0-172.23-21.38-226.34-45.47c-104.84-46.67-155.02-113.49-155.52-114.17l5.54-4.09
							c0.49,0.66,49.82,66.24,153.16,112.14c95.15,42.27,256.86,75.99,487.33-2.85c6.08-23.83,69.25-285.14,6.37-610.33
							l-66.57-344.32l6.76-1.3l66.57,344.32c65.96,341.16-6.21,612.5-6.95,615.2l-0.48,1.76l-1.72,0.59
							C1081.21,2445.25,991.88,2458.42,915.83,2458.42z"/>
					</g>
				</g>
			</g>
		</g>
		<g>
			
				<linearGradient id="SVGID_00000078761547325758865120000004841686200043976347_" gradientUnits="userSpaceOnUse" x1="1545.9756" y1="1536.1375" x2="2671.3381" y2="1536.1375">
				<stop  offset="3.597120e-03" style="stop-color:#E38DDD"/>
				<stop  offset="1" style="stop-color:#9571F6"/>
			</linearGradient>
			<path style="fill:url(#SVGID_00000078761547325758865120000004841686200043976347_);" d="M2619.17,1031.87l-911.78,7.34
				c-30.02,0.24-58.01,31.5-62.61,69.77l-98.15,816.26c-4.57,38.01,15.72,69.82,45.41,71.27l901.75,43.85
				c33.07,1.61,64.2-30,69.22-70.3l107.65-865.39C2675.69,1064.07,2652.61,1031.6,2619.17,1031.87z"/>
			
				<linearGradient id="SVGID_00000181793086794453653520000000019973219274207373_" gradientUnits="userSpaceOnUse" x1="1487.0023" y1="2381.0693" x2="2519.738" y2="2381.0693">
				<stop  offset="3.597120e-03" style="stop-color:#E38DDD"/>
				<stop  offset="1" style="stop-color:#9571F6"/>
			</linearGradient>
			<path style="fill:url(#SVGID_00000181793086794453653520000000019973219274207373_);" d="M2468.1,2253.55l-899.98-54.63
				c-29.64-1.8-57.24,26.38-61.8,64.31l-18.67,154.45c-4.55,37.87,15.54,72.93,45.08,75.25l896.97,70.25
				c32.89,2.58,63.85-31.2,68.83-71.34l20.52-164.07C2524.05,2287.54,2501.11,2255.55,2468.1,2253.55z"/>
			
				<linearGradient id="SVGID_00000080920601526260153090000001733557736220032146_" gradientUnits="userSpaceOnUse" x1="1437.2012" y1="2803.2454" x2="2464.946" y2="2803.2454">
				<stop  offset="3.597120e-03" style="stop-color:#E38DDD"/>
				<stop  offset="1" style="stop-color:#9571F6"/>
			</linearGradient>
			<path style="fill:url(#SVGID_00000080920601526260153090000001733557736220032146_);" d="M2413.74,2686.88l-895.67-76.47
				c-29.5-2.52-57.03,26.49-61.58,64.3l-18.66,155.46c-4.54,37.74,15.54,70.78,44.94,73.81l892.69,92.01
				c32.73,3.37,63.39-26.3,68.36-66.29l20.42-164.61C2469.24,2725.01,2446.59,2689.68,2413.74,2686.88z"/>
		</g>
		<g>
			<g>
				<g>
					
						<linearGradient id="SVGID_00000132808984179913506100000001128705088349157780_" gradientUnits="userSpaceOnUse" x1="1345.0769" y1="1930.2136" x2="939.299" y2="1974.4801" gradientTransform="matrix(-1 0 0 1 3475.8816 0)">
						<stop  offset="0" style="stop-color:#444B8C"/>
						<stop  offset="0.9964" style="stop-color:#26264F"/>
					</linearGradient>
					<path style="fill:url(#SVGID_00000132808984179913506100000001128705088349157780_);" d="M1646.29,907.87l-247.21,2054.74
						c-3.71,30.81,17.53,58.42,47.27,61.38L2476,3137.02c63.08,3.92,97.61-28.3,101.5-61.06l259.54-2184.53
						c3.87-32.58-27.07-62.08-90.42-62.08l-1039.02,21.88C1677.53,851.74,1649.97,877.23,1646.29,907.87z"/>
					
						<linearGradient id="SVGID_00000004541219037163398540000017112588747608669089_" gradientUnits="userSpaceOnUse" x1="1702.6056" y1="907.3696" x2="699.2344" y2="4323.2666" gradientTransform="matrix(-1 0 0 1 3475.8816 0)">
						<stop  offset="0" style="stop-color:#444B8C"/>
						<stop  offset="0.9964" style="stop-color:#26264F"/>
					</linearGradient>
					<path style="fill:url(#SVGID_00000004541219037163398540000017112588747608669089_);" d="M1599.94,904.34l-248.56,2065.01
						c-3.73,30.96,17.58,58.72,47.43,61.7l1067.46,106.28c33.47,3.33,64.14-20.88,68.05-53.81l261-2195.82
						c3.89-32.75-20.69-59.07-54.52-58.5l-1079.29,18.21C1631.32,847.92,1603.65,873.54,1599.94,904.34z"/>
					
						<linearGradient id="SVGID_00000074427696046628584310000000086367657049834161_" gradientUnits="userSpaceOnUse" x1="1389.4181" y1="2021.4302" x2="2742.9797" y2="2021.4302">
						<stop  offset="3.597120e-03" style="stop-color:#E38DDD"/>
						<stop  offset="1" style="stop-color:#9571F6"/>
					</linearGradient>
					<path style="fill:url(#SVGID_00000074427696046628584310000000086367657049834161_);" d="M1620.2,1018.24l-230.39,1914.68
						c-3.48,28.93,16.47,54.81,44.42,57.53l1003.91,97.59c31.11,3.02,59.62-19.57,63.27-50.22l241.2-2028.42
						c3.63-30.49-19.19-55.16-50.62-54.83l-1014.21,10.8C1649.54,965.66,1623.66,989.45,1620.2,1018.24z"/>
					
						<linearGradient id="SVGID_00000152976346616739697880000012484079861173935757_" gradientUnits="userSpaceOnUse" x1="1326.6187" y1="823.2334" x2="147.3866" y2="4016.9866" gradientTransform="matrix(-1 0 0 1 3475.8816 0)">
						<stop  offset="0" style="stop-color:#FFC444"/>
						<stop  offset="0.9964" style="stop-color:#F36F56"/>
					</linearGradient>
					<path style="fill:url(#SVGID_00000152976346616739697880000012484079861173935757_);" d="M2158.55,902.92
						c-1.32,10.99,6.57,19.79,17.63,19.65c11.07-0.14,21.12-9.18,22.44-20.2c1.32-11.01-6.6-19.81-17.67-19.65
						C2169.89,882.88,2159.86,891.92,2158.55,902.92z"/>
					<g class="st13">
						<path class="st0" d="M1793.77,2303.49c205.52-379.98,512.54-493.72,604.98-885.33c49.97-211.68,15.92-414.29-41.41-582.49
							l383.47-6.47c33.83-0.57,58.41,25.75,54.52,58.5l-261,2195.82c-3.91,32.93-34.58,57.14-68.05,53.81l-839.12-83.54
							C1620.94,2713.3,1702.15,2472.87,1793.77,2303.49z"/>
					</g>
				</g>
			</g>
			<g>
				<path class="st0" d="M2562.92,1953.46c-5.01,40.28-36.14,71.88-69.2,70.28l-901.55-43.73c-29.69-1.44-49.97-33.24-45.4-71.23
					l98.13-815.92c4.6-38.26,32.59-69.5,62.6-69.75l911.59-7.44c33.44-0.27,56.51,32.19,51.47,72.76L2562.92,1953.46z"/>
				<path class="st0" d="M2498.48,2475.02c-4.99,40.13-35.93,73.89-68.82,71.32l-896.78-70.12c-29.53-2.31-49.62-37.36-45.07-75.21
					l18.66-154.39c4.56-37.91,32.16-66.08,61.79-64.28l899.79,54.51c33,2,55.94,33.97,50.94,74.17L2498.48,2475.02z"/>
				<path class="st0" d="M2443.8,2912.69c-4.97,39.98-35.62,69.64-68.35,66.27l-892.5-91.87c-29.39-3.03-49.47-36.05-44.93-73.77
					l18.65-155.39c4.54-37.79,32.07-66.79,61.56-64.27l895.48,76.34c32.84,2.8,55.48,38.11,50.5,78.16L2443.8,2912.69z"/>
				<g>
					<g>
						
							<linearGradient id="SVGID_00000119821351083770816270000016118041926491359635_" gradientUnits="userSpaceOnUse" x1="1675.8062" y1="1075.3654" x2="2976.6533" y2="2738.7456">
							<stop  offset="3.597120e-03" style="stop-color:#E38DDD"/>
							<stop  offset="1" style="stop-color:#9571F6"/>
						</linearGradient>
						<path style="fill:url(#SVGID_00000119821351083770816270000016118041926491359635_);" d="M1732.09,1195.74l-6.6-54.96l-0.34,0
							c-0.87,11.18-1.53,18.63-1.98,22.37l-3.93,32.56l-10.39-0.02l8.44-69.98l15.85-0.03l6.55,53.58l0.23,0l20.3-53.64l15.93-0.03
							l-8.48,70.22l-10.9-0.02l4.01-33.21c0.19-1.57,0.43-3.38,0.71-5.42c0.29-2.05,1.11-7.49,2.48-16.32l-0.34,0l-20.84,54.93
							L1732.09,1195.74z"/>
						
							<linearGradient id="SVGID_00000062155764363950180070000016752846771239379127_" gradientUnits="userSpaceOnUse" x1="1718.7954" y1="1041.7455" x2="3019.6431" y2="2705.1262">
							<stop  offset="3.597120e-03" style="stop-color:#E38DDD"/>
							<stop  offset="1" style="stop-color:#9571F6"/>
						</linearGradient>
						<path style="fill:url(#SVGID_00000062155764363950180070000016752846771239379127_);" d="M1838.12,1160.6
							c-1.41,11.67-4.78,20.63-10.1,26.89c-5.32,6.26-12.23,9.37-20.73,9.36c-8.49-0.02-14.63-3.16-18.42-9.42
							c-3.79-6.26-4.97-15.23-3.56-26.93c1.41-11.7,4.77-20.63,10.07-26.81c5.3-6.18,12.22-9.28,20.74-9.3
							c8.53-0.02,14.69,3.08,18.46,9.31C1838.35,1139.93,1839.53,1148.9,1838.12,1160.6z M1797.6,1160.6
							c-0.95,7.86-0.49,13.77,1.38,17.75c1.87,3.98,5.14,5.97,9.82,5.98c9.39,0.01,15.04-7.9,16.96-23.73
							c1.92-15.87-1.79-23.8-11.14-23.79c-4.68,0.01-8.45,2.01-11.31,6.01C1800.45,1146.82,1798.55,1152.75,1797.6,1160.6z"/>
						
							<linearGradient id="SVGID_00000120553130516375218450000003729034068169635999_" gradientUnits="userSpaceOnUse" x1="1758.8972" y1="1010.3837" x2="3059.7441" y2="2673.7637">
							<stop  offset="3.597120e-03" style="stop-color:#E38DDD"/>
							<stop  offset="1" style="stop-color:#9571F6"/>
						</linearGradient>
						<path style="fill:url(#SVGID_00000120553130516375218450000003729034068169635999_);" d="M1896.9,1196.07l-15.09-0.03
							l-17.83-53.45l-0.34,0c-0.66,9.43-1.23,16.16-1.72,20.18l-4.02,33.22l-10.56-0.02l8.54-70.55l14.93-0.03l17.87,52.92l0.27,0
							c0.73-9.19,1.33-15.69,1.79-19.49l4.06-33.47l10.7-0.02L1896.9,1196.07z"/>
						
							<linearGradient id="SVGID_00000011723256175528492340000008764006172112333245_" gradientUnits="userSpaceOnUse" x1="1793.8209" y1="983.072" x2="3094.6685" y2="2646.4526">
							<stop  offset="3.597120e-03" style="stop-color:#E38DDD"/>
							<stop  offset="1" style="stop-color:#9571F6"/>
						</linearGradient>
						<path style="fill:url(#SVGID_00000011723256175528492340000008764006172112333245_);" d="M1964.08,1160.01
							c-1.42,11.69-5.15,20.64-11.2,26.85c-6.04,6.2-14.04,9.29-24,9.27l-15.91-0.03l8.6-70.82l17.66-0.04
							c9.2-0.02,15.97,3.02,20.32,9.13C1963.91,1140.48,1965.42,1149.03,1964.08,1160.01z M1951.61,1160.4
							c1.85-15.24-2.57-22.86-13.26-22.84l-6.35,0.01l-5.6,46.15l5.12,0.01C1943.02,1183.74,1949.72,1175.96,1951.61,1160.4z"/>
						
							<linearGradient id="SVGID_00000059998661742473543960000009600986194350891161_" gradientUnits="userSpaceOnUse" x1="1828.17" y1="956.2084" x2="3129.0215" y2="2619.594">
							<stop  offset="3.597120e-03" style="stop-color:#E38DDD"/>
							<stop  offset="1" style="stop-color:#9571F6"/>
						</linearGradient>
						<path style="fill:url(#SVGID_00000059998661742473543960000009600986194350891161_);" d="M2008.05,1196.29l-2.05-16.95
							l-20.66-0.02l-6.16,16.92l-12.92-0.03l28.65-71.38l14.7-0.03l11.42,71.52L2008.05,1196.29z M2004.67,1166.68
							c-1.93-15.35-3.02-24.03-3.25-26.04c-0.23-2.01-0.38-3.6-0.45-4.77c-1.36,4.15-5.05,14.43-11.07,30.81L2004.67,1166.68z"/>
						
							<linearGradient id="SVGID_00000120556176206318180600000013339189357261453700_" gradientUnits="userSpaceOnUse" x1="1873.9017" y1="920.4439" x2="3174.751" y2="2583.8269">
							<stop  offset="3.597120e-03" style="stop-color:#E38DDD"/>
							<stop  offset="1" style="stop-color:#9571F6"/>
						</linearGradient>
						<path style="fill:url(#SVGID_00000120556176206318180600000013339189357261453700_);" d="M2053.03,1154.39l15.5-29.42
							l13.07-0.03l-24.29,43.66l-3.39,27.79l-12.01-0.02l3.32-27.28l-13.53-44.04l13.09-0.03L2053.03,1154.39z"/>
					</g>
					
						<linearGradient id="SVGID_00000040546747400529817050000014436149055636096691_" gradientUnits="userSpaceOnUse" x1="1507.594" y1="1206.9167" x2="2808.4419" y2="2870.2979">
						<stop  offset="3.597120e-03" style="stop-color:#E38DDD"/>
						<stop  offset="1" style="stop-color:#9571F6"/>
					</linearGradient>
					<polygon style="fill:url(#SVGID_00000040546747400529817050000014436149055636096691_);" points="2494.53,1938.74 
						1602.85,1899.76 1606.89,1866.4 2499.05,1903.63 					"/>
					
						<linearGradient id="SVGID_00000013911062776398145630000012650006956290093446_" gradientUnits="userSpaceOnUse" x1="1396.6041" y1="1293.7169" x2="2697.4531" y2="2957.0994">
						<stop  offset="3.597120e-03" style="stop-color:#E38DDD"/>
						<stop  offset="1" style="stop-color:#9571F6"/>
					</linearGradient>
					<polygon style="fill:url(#SVGID_00000013911062776398145630000012650006956290093446_);" points="1733.43,1827.88 
						1643.63,1824.36 1676.52,1549.96 1766.57,1552.02 					"/>
					
						<linearGradient id="SVGID_00000134958703283831994420000000554393828491888021_" gradientUnits="userSpaceOnUse" x1="1510.3254" y1="1204.7793" x2="2811.176" y2="2868.1641">
						<stop  offset="3.597120e-03" style="stop-color:#E38DDD"/>
						<stop  offset="1" style="stop-color:#9571F6"/>
					</linearGradient>
					<polygon style="fill:url(#SVGID_00000134958703283831994420000000554393828491888021_);" points="1851.06,1832.49 
						1760.02,1828.92 1811.96,1401.28 1903.42,1402.57 					"/>
					
						<linearGradient id="SVGID_00000010991061234903079950000015188549878103319225_" gradientUnits="userSpaceOnUse" x1="1517.63" y1="1199.0663" x2="2818.4851" y2="2862.4568">
						<stop  offset="3.597120e-03" style="stop-color:#E38DDD"/>
						<stop  offset="1" style="stop-color:#9571F6"/>
					</linearGradient>
					<polygon style="fill:url(#SVGID_00000010991061234903079950000015188549878103319225_);" points="1973.05,1837.26 
						1880.72,1833.65 1904.19,1638.77 1996.69,1641.34 					"/>
					
						<linearGradient id="SVGID_00000169548456037031217890000008274948601513674124_" gradientUnits="userSpaceOnUse" x1="1633.1163" y1="1108.7522" x2="2933.9661" y2="2772.1357">
						<stop  offset="3.597120e-03" style="stop-color:#E38DDD"/>
						<stop  offset="1" style="stop-color:#9571F6"/>
					</linearGradient>
					<polygon style="fill:url(#SVGID_00000169548456037031217890000008274948601513674124_);" points="2094.03,1842 2000.4,1838.33 
						2042.96,1491.27 2136.95,1493.06 					"/>
					
						<linearGradient id="SVGID_00000094605132379629973760000015401424205721664135_" gradientUnits="userSpaceOnUse" x1="1688.0923" y1="1065.7583" x2="2988.9424" y2="2729.1423">
						<stop  offset="3.597120e-03" style="stop-color:#E38DDD"/>
						<stop  offset="1" style="stop-color:#9571F6"/>
					</linearGradient>
					<polygon style="fill:url(#SVGID_00000094605132379629973760000015401424205721664135_);" points="2216.72,1846.8 
						2121.76,1843.09 2156.05,1560.93 2251.29,1563.12 					"/>
					
						<linearGradient id="SVGID_00000096755033735285594190000000462287238690428588_" gradientUnits="userSpaceOnUse" x1="1740.7778" y1="1024.5529" x2="3041.6323" y2="2687.9424">
						<stop  offset="3.597120e-03" style="stop-color:#E38DDD"/>
						<stop  offset="1" style="stop-color:#9571F6"/>
					</linearGradient>
					<polygon style="fill:url(#SVGID_00000096755033735285594190000000462287238690428588_);" points="2344,1851.79 
						2247.66,1848.01 2271.79,1648.97 2368.31,1651.65 					"/>
					
						<linearGradient id="SVGID_00000020364526330835518210000015119074677184313232_" gradientUnits="userSpaceOnUse" x1="1885.4404" y1="911.4216" x2="3186.2905" y2="2574.8054">
						<stop  offset="3.597120e-03" style="stop-color:#E38DDD"/>
						<stop  offset="1" style="stop-color:#9571F6"/>
					</linearGradient>
					<polygon style="fill:url(#SVGID_00000020364526330835518210000015119074677184313232_);" points="2470.26,1856.73 
						2372.54,1852.9 2427.36,1409.91 2525.55,1411.29 					"/>
					
						<linearGradient id="SVGID_00000113332554931351485760000007184597151046189200_" gradientUnits="userSpaceOnUse" x1="2111.7683" y1="734.42" x2="3412.6228" y2="2397.8093">
						<stop  offset="3.597120e-03" style="stop-color:#E38DDD"/>
						<stop  offset="1" style="stop-color:#9571F6"/>
					</linearGradient>
					<polygon style="fill:url(#SVGID_00000113332554931351485760000007184597151046189200_);" points="2588.98,1180.61 
						2298.61,1180.3 2303.03,1143.77 2593.53,1143.48 					"/>
				</g>
				<g>
					
						<linearGradient id="SVGID_00000126302940243342455040000010922596166964551570_" gradientUnits="userSpaceOnUse" x1="1784.9792" y1="1803.9413" x2="2736.6262" y2="3096.7969">
						<stop  offset="3.597120e-03" style="stop-color:#E38DDD"/>
						<stop  offset="1" style="stop-color:#9571F6"/>
					</linearGradient>
					<path style="fill:url(#SVGID_00000126302940243342455040000010922596166964551570_);" d="M2187.11,2431.1l36.55-72.07
						l-36.03-2.46l1.97-16.02l52.48,3.54l-1.48,11.99l-37.32,76.2L2187.11,2431.1z"/>
					
						<linearGradient id="SVGID_00000117670399075391762560000016581002058935994557_" gradientUnits="userSpaceOnUse" x1="1834.1248" y1="1767.7654" x2="2785.7717" y2="3060.6206">
						<stop  offset="3.597120e-03" style="stop-color:#E38DDD"/>
						<stop  offset="1" style="stop-color:#9571F6"/>
					</linearGradient>
					<path style="fill:url(#SVGID_00000117670399075391762560000016581002058935994557_);" d="M2320.56,2440.8l-2.7-21.99
						l-26.94-1.92l-8.01,21.17l-16.82-1.22l37.25-89.12l19.17,1.29l14.98,93.01L2320.56,2440.8z M2316.11,2402.41
						c-2.54-19.92-3.96-31.17-4.27-33.78c-0.31-2.61-0.5-4.67-0.59-6.17c-1.77,5.22-6.57,18.09-14.4,38.59L2316.11,2402.41z"/>
					
						<linearGradient id="SVGID_00000170983766037752125710000010417160115315801014_" gradientUnits="userSpaceOnUse" x1="1895.9899" y1="1722.2285" x2="2847.6326" y2="3015.0781">
						<stop  offset="3.597120e-03" style="stop-color:#E38DDD"/>
						<stop  offset="1" style="stop-color:#9571F6"/>
					</linearGradient>
					<path style="fill:url(#SVGID_00000170983766037752125710000010417160115315801014_);" d="M2380.94,2445.19l-9.09-72.69
						l-0.46-0.03c-1.15,14.57-2.03,24.28-2.63,29.14l-5.24,42.32l-14.08-1.02l11.25-90.93l21.49,1.45l9.02,70.89l0.31,0.02
						l27.4-68.43l21.63,1.46l-11.33,91.34l-14.8-1.08l5.35-43.19c0.25-2.04,0.57-4.39,0.95-7.05c0.38-2.66,1.49-9.72,3.32-21.18
						l-0.46-0.03l-28.14,70.07L2380.94,2445.19z"/>
				</g>
				<g>
					
						<linearGradient id="SVGID_00000105404307247702590390000017762040396974812336_" gradientUnits="userSpaceOnUse" x1="1677.2861" y1="2239.0205" x2="2199.7595" y2="2974.7473">
						<stop  offset="3.597120e-03" style="stop-color:#E38DDD"/>
						<stop  offset="1" style="stop-color:#9571F6"/>
					</linearGradient>
					<path style="fill:url(#SVGID_00000105404307247702590390000017762040396974812336_);" d="M2086.74,2858.13l-15.24-1.49
						l6.36-51.76l1.19-8.49l1.39-9.28c-2.92,2.9-4.93,4.8-6.03,5.68l-9.29,7.48l-5.94-12.06l26.02-20.78l12.54,1.16L2086.74,2858.13
						z"/>
					
						<linearGradient id="SVGID_00000137111280672074280110000003121557583310140546_" gradientUnits="userSpaceOnUse" x1="1711.4865" y1="2214.7329" x2="2233.957" y2="2950.4563">
						<stop  offset="3.597120e-03" style="stop-color:#E38DDD"/>
						<stop  offset="1" style="stop-color:#9571F6"/>
					</linearGradient>
					<path style="fill:url(#SVGID_00000137111280672074280110000003121557583310140546_);" d="M2165.16,2820.3
						c-1.93,15.7-5.45,27.13-10.54,34.26c-5.09,7.13-11.96,10.27-20.6,9.43c-8.37-0.82-14.2-5.32-17.48-13.5
						c-3.29-8.18-4-19.85-2.13-35.02c1.95-15.82,5.44-27.29,10.5-34.42c5.06-7.12,11.89-10.29,20.49-9.49
						c8.38,0.77,14.24,5.3,17.57,13.56C2166.3,2793.41,2167.03,2805.13,2165.16,2820.3z M2129.62,2816.92
						c-1.35,11.01-1.56,18.97-0.6,23.88c0.95,4.92,3.25,7.55,6.89,7.9c3.58,0.35,6.46-1.82,8.64-6.5
						c2.18-4.68,3.95-12.47,5.29-23.36c1.36-11.02,1.53-19.01,0.51-23.98c-1.02-4.96-3.3-7.61-6.84-7.94
						c-3.61-0.34-6.49,1.83-8.63,6.49C2132.73,2798.08,2130.98,2805.92,2129.62,2816.92z"/>
					
						<linearGradient id="SVGID_00000071519690214685041640000014288539201590403234_" gradientUnits="userSpaceOnUse" x1="1763.1307" y1="2178.0579" x2="2285.604" y2="2913.7847">
						<stop  offset="3.597120e-03" style="stop-color:#E38DDD"/>
						<stop  offset="1" style="stop-color:#9571F6"/>
					</linearGradient>
					<path style="fill:url(#SVGID_00000071519690214685041640000014288539201590403234_);" d="M2249.01,2873.99l-2.67-22.02
						l-26.76-2.58l-7.96,20.95l-16.71-1.63l37.01-88.08l19.04,1.76l14.86,93.24L2249.01,2873.99z M2244.6,2835.54
						c-2.52-19.95-3.93-31.22-4.24-33.83c-0.3-2.61-0.5-4.67-0.58-6.18c-1.75,5.17-6.53,17.9-14.31,38.19L2244.6,2835.54z"/>
					
						<linearGradient id="SVGID_00000103256376003235304690000002096624818652393644_" gradientUnits="userSpaceOnUse" x1="1825.0494" y1="2134.0872" x2="2347.5227" y2="2869.814">
						<stop  offset="3.597120e-03" style="stop-color:#E38DDD"/>
						<stop  offset="1" style="stop-color:#9571F6"/>
					</linearGradient>
					<path style="fill:url(#SVGID_00000103256376003235304690000002096624818652393644_);" d="M2308.98,2879.84l-9.02-72.81
						l-0.46-0.04c-1.15,14.52-2.02,24.2-2.62,29.03l-5.21,42.13l-13.99-1.37l11.19-90.52l21.34,1.97l8.95,71l0.3,0.03l27.23-67.66
						l21.48,1.99l-11.27,90.93l-14.7-1.44l5.33-42.99c0.25-2.03,0.57-4.37,0.95-7.01c0.38-2.65,1.48-9.67,3.31-21.07l-0.46-0.04
						l-27.96,69.28L2308.98,2879.84z"/>
				</g>
				<g>
					
						<linearGradient id="SVGID_00000105413508971753255590000002570269048518858655_" gradientUnits="userSpaceOnUse" x1="1516.4592" y1="2001.5942" x2="2468.104" y2="3294.4465">
						<stop  offset="3.597120e-03" style="stop-color:#E38DDD"/>
						<stop  offset="1" style="stop-color:#9571F6"/>
					</linearGradient>
					<polygon style="fill:url(#SVGID_00000105413508971753255590000002570269048518858655_);" points="1903.65,2335.6 
						1555.62,2311.82 1562.35,2257.28 1910.53,2279.92 					"/>
					
						<linearGradient id="SVGID_00000008151053002249329890000008720215269285458362_" gradientUnits="userSpaceOnUse" x1="1423.6774" y1="2069.8889" x2="2375.323" y2="3362.7424">
						<stop  offset="3.597120e-03" style="stop-color:#E38DDD"/>
						<stop  offset="1" style="stop-color:#9571F6"/>
					</linearGradient>
					<polygon style="fill:url(#SVGID_00000008151053002249329890000008720215269285458362_);" points="1735.55,2407.85 
						1546.18,2393.98 1553.16,2332.32 1742.6,2345.49 					"/>
				</g>
				<g>
					
						<linearGradient id="SVGID_00000148649689041794796600000006444498401792960934_" gradientUnits="userSpaceOnUse" x1="1452.9211" y1="2398.3521" x2="1975.3939" y2="3134.0781">
						<stop  offset="3.597120e-03" style="stop-color:#E38DDD"/>
						<stop  offset="1" style="stop-color:#9571F6"/>
					</linearGradient>
					<polygon style="fill:url(#SVGID_00000148649689041794796600000006444498401792960934_);" points="1851.77,2765.61 
						1505.28,2733.17 1512.05,2677.38 1858.7,2708.67 					"/>
					
						<linearGradient id="SVGID_00000034787933253838317060000011560917711903639685_" gradientUnits="userSpaceOnUse" x1="1361.1271" y1="2463.5391" x2="1883.6002" y2="3199.2659">
						<stop  offset="3.597120e-03" style="stop-color:#E38DDD"/>
						<stop  offset="1" style="stop-color:#9571F6"/>
					</linearGradient>
					<polygon style="fill:url(#SVGID_00000034787933253838317060000011560917711903639685_);" points="1684.57,2828.7 
						1496.05,2810.17 1502.83,2754.15 1691.45,2772.04 					"/>
				</g>
			</g>
			<g class="st2">
				<path class="st0" d="M1797.1,2303.43c205.52-379.98,512.54-493.72,604.98-885.33c49.97-211.68,15.92-414.29-41.41-582.49
					l383.47-6.47c33.83-0.57,58.41,25.75,54.52,58.5l-261,2195.82c-3.91,32.93-34.58,57.14-68.05,53.81l-839.13-83.54
					C1624.27,2713.24,1705.48,2472.81,1797.1,2303.43z"/>
			</g>
		</g>
		<g>
			<g>
				<g>
					
						<linearGradient id="SVGID_00000152256644485925822340000005637894526657821628_" gradientUnits="userSpaceOnUse" x1="614.2487" y1="957.8254" x2="1301.7954" y2="957.8254">
						<stop  offset="0" style="stop-color:#311944"/>
						<stop  offset="1" style="stop-color:#893976"/>
					</linearGradient>
					<path style="fill:url(#SVGID_00000152256644485925822340000005637894526657821628_);" d="M1301.8,745.36
						c0-22.89-18.7-42.26-41.76-43.26l-598.26-26.02c-25.93-1.13-47.53,17.76-47.53,42.18v477.52c0,24.43,21.54,44.06,47.46,43.85
						l14.01-0.15l0.66-1.05l583.22-11.53c23.05-0.19,42.19-11.1,42.19-33.99V745.36z M778.52,784.19
						c-22.28-0.76-40.41-18.57-40.41-39.78c0-21.21,18.13-37.66,40.41-36.75c22.19,0.91,40.11,18.72,40.11,39.77
						C818.63,768.48,800.7,784.94,778.52,784.19z M969.21,790.67c-21.5-0.73-38.99-18.22-38.99-39.05
						c0-20.84,17.49-37.01,38.99-36.12c21.41,0.88,38.71,18.36,38.71,39.04S990.62,791.4,969.21,790.67z M1153.27,796.92
						c-20.76-0.71-37.65-17.88-37.65-38.35s16.89-36.37,37.65-35.52c20.67,0.85,37.38,18.01,37.38,38.34
						C1190.65,781.72,1173.94,797.63,1153.27,796.92z"/>
					
						<linearGradient id="SVGID_00000021804279211963545480000006911474451805592966_" gradientUnits="userSpaceOnUse" x1="629.8748" y1="752.4417" x2="1314.2961" y2="752.4417">
						<stop  offset="0" style="stop-color:#FF9085"/>
						<stop  offset="1" style="stop-color:#FB6FBB"/>
					</linearGradient>
					<path style="fill:url(#SVGID_00000021804279211963545480000006911474451805592966_);" d="M1314.3,828.23v-82.88
						c0-22.86-18.17-41.71-41.16-42.71L676.98,676.7c-10.89-0.47-21.06,2.39-29.06,7.97c-10.92,7.6-18.05,19.63-18.05,33.7v109.86
						H1314.3z M1166.49,723.6c20.62,0.85,37.29,17.98,37.29,38.3c0,20.3-16.67,36.18-37.29,35.48c-20.7-0.7-37.56-17.84-37.56-38.29
						C1128.93,738.62,1145.79,722.75,1166.49,723.6z M982.9,716.06c21.35,0.88,38.61,18.32,38.61,39c0,20.65-17.26,36.8-38.61,36.08
						c-21.44-0.73-38.9-18.18-38.9-38.99C944,731.32,961.46,715.18,982.9,716.06z M792.7,708.24c22.13,0.91,40.01,18.68,40.01,39.72
						c0,21.02-17.89,37.45-40.01,36.7c-22.22-0.75-40.31-18.53-40.31-39.71C752.39,723.75,770.49,707.33,792.7,708.24z"/>
					<path class="st0" d="M629.87,803.27v392.37c0,24.39,20.3,44.04,46.15,43.83l596.77-4.84c23-0.19,41.5-18.85,41.5-41.72V824.96
						L629.87,803.27z"/>
					<g>
						<path class="st42" d="M1073.65,881.71c0-5.44-3.98-9.94-9.55-10.09l-59.04-1.53c-5.64-0.15-12.66,4.14-12.66,9.62V935
							c0,5.48,7.3,10.05,12.94,10.16l57.41,1.1c5.57,0.11,10.91-4.21,10.91-9.65V881.71z"/>
						<path class="st42" d="M1176.79,884.34c0-5.39-4.58-9.86-10.05-10l-55.22-1.44c-5.53-0.15-9.74,4.17-9.74,9.59v54.76
							c0,5.42,4.14,9.88,9.66,9.99l55.47,1.06c5.47,0.11,9.88-4.19,9.88-9.58V884.34z"/>
						<path class="st42" d="M1279.92,887c0-5.33-4.75-9.77-10.11-9.91l-54.74-1.47c-5.42-0.14-10.16,4.06-10.16,9.44v54.21
							c0,5.37,4.53,9.84,9.95,9.94l54.87,1.08c5.36,0.1,10.18-4.12,10.18-9.45V887z"/>
						<path class="st42" d="M1073.65,982.13c0-5.44-3.98-9.9-9.55-10l-59.04-0.99c-5.64-0.1-12.66,4.24-12.66,9.71v55.3
							c0,5.48,7.3,10.01,12.94,10.06l57.41,0.56c5.57,0.06,10.91-4.31,10.91-9.74V982.13z"/>
						<path class="st42" d="M1176.79,983.79c0-5.39-4.58-9.82-10.05-9.92l-55.22-0.92c-5.53-0.09-9.74,4.25-9.74,9.68v54.76
							c0,5.42,4.14,9.84,9.66,9.9l55.47,0.54c5.47,0.05,9.88-4.28,9.88-9.67V983.79z"/>
						<path class="st42" d="M1279.92,985.46c0-5.33-4.75-9.73-10.11-9.83l-54.74-0.96c-5.42-0.09-10.16,4.15-10.16,9.53v54.21
							c0,5.37,4.53,9.8,9.95,9.85l54.87,0.56c5.36,0.05,10.18-4.2,10.18-9.54V985.46z"/>
						<path class="st42" d="M751.76,977.03c0-5.61-5.21-10.27-11.13-10.37l-59.7-1.06c-5.99-0.1-10.42,4.36-10.42,10.01v57.02
							c0,5.65,4.22,10.3,10.21,10.35l60.24,0.64c5.92,0.06,10.81-4.4,10.81-10V977.03z"/>
						<path class="st42" d="M861.14,978.71c0-5.55-4.23-10.11-10.03-10.21l-59.75-1.02c-5.87-0.1-11.47,4.34-11.47,9.93v56.43
							c0,5.59,5.84,10.19,11.71,10.25l58.98,0.58c5.8,0.06,10.57-4.4,10.57-9.95V978.71z"/>
						<path class="st42" d="M967.4,980.53c0-5.49-4.32-10.07-10.01-10.16l-59.29-1.03c-5.76-0.1-11.96,4.26-11.96,9.79V1035
							c0,5.53,6.35,10.1,12.11,10.15l58.3,0.63c5.69,0.06,10.85-4.3,10.85-9.79V980.53z"/>
						<path class="st42" d="M1073.65,1082.55c0-5.44-3.98-9.87-9.55-9.91l-59.04-0.46c-5.64-0.04-12.66,4.33-12.66,9.81v55.3
							c0,5.48,7.3,9.96,12.94,9.97l57.41,0.03c5.57,0,10.91-4.4,10.91-9.84V1082.55z"/>
						<path class="st42" d="M1176.79,1083.24c0-5.39-4.58-9.79-10.05-9.83l-55.22-0.39c-5.53-0.04-9.74,4.34-9.74,9.77v54.76
							c0,5.42,4.14,9.81,9.66,9.81l55.47,0.01c5.47,0,9.88-4.37,9.88-9.75V1083.24z"/>
						<path class="st42" d="M751.76,1080.53c0-5.61-5.21-10.21-11.13-10.26l-59.7-0.48c-5.99-0.04-10.42,4.46-10.42,10.11v57.02
							c0,5.65,4.22,10.25,10.21,10.25l60.24,0.06c5.92,0,10.81-4.51,10.81-10.11V1080.53z"/>
						<path class="st42" d="M861.14,1081.17c0-5.55-4.23-10.07-10.03-10.11l-59.75-0.45c-5.87-0.04-11.47,4.44-11.47,10.03v56.43
							c0,5.59,5.84,10.15,11.71,10.15l58.98,0.02c5.8,0,10.57-4.5,10.57-10.05V1081.17z"/>
						<path class="st42" d="M967.4,1081.97c0-5.49-4.32-10.02-10.01-10.07l-59.29-0.48c-5.76-0.04-11.96,4.36-11.96,9.89v55.87
							c0,5.53,6.35,10.05,12.11,10.05l58.3,0.08c5.69,0,10.85-4.39,10.85-9.89V1081.97z"/>
					</g>
					<path class="st42" d="M788.96,605.6c-37.37-1.89-68.3,28.54-71.29,72.89l31.57,1.37c2.57-26.5,19.74-46.12,39.73-45.16
						c21.6,1.03,39.77,26.13,39.77,54.95c0,28.82-18.18,52.41-39.77,51.59c-11.25-0.43-21.6-7.46-28.97-18.15
						c-4.27,5.88-11.64,19.42-4.66,36.22c10.05,6.61,21.5,10.56,33.64,10.99c39.05,1.38,70.61-34.14,70.61-79.31
						C859.58,645.81,828.01,607.57,788.96,605.6z"/>
					<path class="st42" d="M978.96,615.11c-36.08-1.83-65.93,28.09-68.82,71.67l30.47,1.33c2.49-26.04,19.06-45.33,38.35-44.4
						c20.85,1,38.4,25.64,38.4,53.96c0,28.31-17.55,51.51-38.4,50.72c-10.86-0.41-20.85-7.31-27.97-17.81
						c-4.12,5.78-11.23,19.09-4.5,35.59c9.7,6.49,20.76,10.36,32.47,10.77c37.7,1.33,68.18-33.59,68.18-77.98
						C1047.14,654.56,1016.66,617.02,978.96,615.11z"/>
					<path class="st42" d="M1163,624.52c-34.82-1.76-63.63,27.65-66.41,70.47l29.4,1.28c2.4-25.58,18.39-44.54,37.01-43.65
						c20.12,0.96,37.06,25.16,37.06,52.98c0,27.82-16.94,50.62-37.06,49.86c-10.48-0.4-20.12-7.17-26.99-17.48
						c-3.98,5.68-10.84,18.76-4.35,34.96c9.36,6.37,20.03,10.16,31.34,10.56c36.39,1.28,65.81-33.05,65.81-76.66
						C1228.81,663.22,1199.4,626.36,1163,624.52z"/>
					<path class="st43" d="M1314.3,1177.86v15.06c0,22.86-18.17,41.55-41.16,41.73l-596.75,4.82
						c-25.85,0.21-46.51-19.44-46.51-43.82V718.37c0-14.07,6.95-26.34,17.87-33.94c23.73,8.53,54.3,32.36,69.95,96.92
						c27.6,113.78,51.36,162.38,157.79,159.96c68.03-1.55,120.2,1.58,152.71,31.57c17.46,16.07,29.33,39.95,34.97,75.07
						c3.3,20.55,18.06,33.66,39.12,43.27c20.63,9.44,47.44,15.52,75.33,22.07C1228.84,1125.3,1286.17,1138.91,1314.3,1177.86z"/>
				</g>
			</g>
			<g>
				<path class="st42" d="M1822.55,1091.12c-2.67,0-5.26-1.75-6.63-4.26l-137.59-251.33h-312.77c-4.17,0-7.55-2.71-7.55-6.89
					s3.38-6.89,7.55-6.89h317.24c2.76,0,5.3,1.18,6.62,3.59l139.74,254.76c2.01,3.65,0.66,8.16-2.99,10.17
					C1825.02,1090.9,1823.78,1091.12,1822.55,1091.12z"/>
			</g>
		</g>
		<g>
			<g>
				
					<linearGradient id="SVGID_00000035508438197357981500000002934926382725205154_" gradientUnits="userSpaceOnUse" x1="1973.8873" y1="1588.0504" x2="1865.2938" y2="1890.969">
					<stop  offset="0" style="stop-color:#FFC444"/>
					<stop  offset="0.9964" style="stop-color:#F36F56"/>
				</linearGradient>
				<path style="fill:url(#SVGID_00000035508438197357981500000002934926382725205154_);" d="M1884.87,1761.74
					c0,0,14.06-21.61,22.77-37.49c8.71-15.89,52.06-62.37,52.06-62.37s4.26,6.29-4.91,17.91c-9.17,11.62-28.89,31.93-23.2,39.15
					c5.69,7.22,20.27,12.66,11.65,28.18c-8.62,15.53-27.05,7.3-34.83,19.84c-7.79,12.54-15.68,26.16-15.68,26.16L1884.87,1761.74z"
					/>
				<path class="st0" d="M1914.55,1795.13c-8.07,33.96-22.99,81.47-52.25,132.93c-12.91,22.7-53.29,89.5-127.01,147.27
					c-59.99,46.98-151.5,95.35-229.14,112.45c-52.35,11.55-98.43,8.82-124.25-18.14c-57.27-59.78,10.94-211.31,23.56-238.57
					c32.06,11.4,84.27,25.53,149.46,23.74c21.37-0.61,76.92-2.65,137.23-27.83c111.7-46.58,166.89-142.11,185.17-177.72
					c8.28,10.22,16.57,20.44,24.85,30.62C1906.3,1784.98,1910.42,1790.04,1914.55,1795.13z"/>
				
					<linearGradient id="SVGID_00000005961070400578050880000014806285821248945026_" gradientUnits="userSpaceOnUse" x1="1442.226" y1="1983.8358" x2="1914.5499" y2="1983.8358">
					<stop  offset="0" style="stop-color:#AA80F9"/>
					<stop  offset="0.9964" style="stop-color:#6165D7"/>
				</linearGradient>
				<path style="opacity:0.1;fill:url(#SVGID_00000005961070400578050880000014806285821248945026_);" d="M1914.55,1795.13
					c-8.07,33.96-22.99,81.47-52.25,132.93c-12.91,22.7-53.29,89.5-127.01,147.27c-59.99,46.98-151.5,95.35-229.14,112.45
					c-32.09-43.32-63.86-86.31-63.9-86.35c-1.47-1.97,52.07-32.85,55.22-34.42c34.78-17.03,72.18-26.93,111.16-23.06
					c54.33,5.45,84.02-32.95,116.43-68.81c37.58-41.52,87.21-69.32,123.46-112.42c20.94-24.92,38.98-53.54,53.64-82.83
					C1906.3,1784.98,1910.42,1790.04,1914.55,1795.13z"/>
				
					<linearGradient id="SVGID_00000042700327292011492210000000669349018277531572_" gradientUnits="userSpaceOnUse" x1="1390.449" y1="3200.0933" x2="1472.6708" y2="3200.0933" gradientTransform="matrix(-0.996 0.0897 0.0897 0.996 2456.5469 -160.4537)">
					<stop  offset="0" style="stop-color:#444B8C"/>
					<stop  offset="0.9964" style="stop-color:#26264F"/>
				</linearGradient>
				<path style="fill:url(#SVGID_00000042700327292011492210000000669349018277531572_);" d="M1281.83,3139.4
					c-4.27,3.92-4.54,13.08-4.71,19.07c-0.08,2.67-0.12,4.01,0.24,4.93c2.59,6.72,15.92,6.63,36.89,7.49
					c33.14,1.36,43.1,3.35,45.38-1.71c2.14-4.74-4.17-11.91-4.88-12.7c-3.81-4.24-8.25-5.6-16.82-7.85
					c-15.85-4.17-26.52-6.33-29.75-6.98C1288.01,3137.57,1284.63,3136.82,1281.83,3139.4z"/>
				
					<linearGradient id="SVGID_00000022547548940002735340000002303782346872626846_" gradientUnits="userSpaceOnUse" x1="950.2767" y1="3157.2007" x2="986.3503" y2="3082.5366" gradientTransform="matrix(-0.9976 0.0694 0.0694 0.9976 2040.621 -60.6691)">
					<stop  offset="0" style="stop-color:#FFC444"/>
					<stop  offset="0.9964" style="stop-color:#F36F56"/>
				</linearGradient>
				<path style="fill:url(#SVGID_00000022547548940002735340000002303782346872626846_);" d="M1305.08,3106.35l1.29,37.73
					c-1.03,1.76-12.48,6.61-21.1,1.47l-6.5-37.36L1305.08,3106.35z"/>
				
					<linearGradient id="SVGID_00000155122419040266400490000014528175613223055525_" gradientUnits="userSpaceOnUse" x1="1032.5656" y1="3201.5781" x2="1119.9204" y2="3201.5781" gradientTransform="matrix(-0.977 0.2133 0.2133 0.977 1968.0525 -210.6557)">
					<stop  offset="0" style="stop-color:#444B8C"/>
					<stop  offset="0.9964" style="stop-color:#26264F"/>
				</linearGradient>
				<path style="fill:url(#SVGID_00000155122419040266400490000014528175613223055525_);" d="M1561.02,3134.18
					c-5.7,5.66-7.51,16.53-3.12,22.17c4.32,5.55,11.45,1.94,31.03,3.57c20.98,1.75,26.2,7.01,40.69,3.83
					c5.85-1.29,16.25-4.61,16.27-8.74c0.02-2.9-5.09-4.68-22.1-11.41c-24.15-9.55-24.02-10-29.19-11.14
					C1581.6,3129.6,1568.54,3126.72,1561.02,3134.18z"/>
				
					<linearGradient id="SVGID_00000089557917112766402060000014476086938921457807_" gradientUnits="userSpaceOnUse" x1="857.2936" y1="3186.0649" x2="894.1309" y2="3109.8206" gradientTransform="matrix(-0.9894 0.1453 0.1453 0.9894 1974.5804 -128.6684)">
					<stop  offset="0" style="stop-color:#FFC444"/>
					<stop  offset="0.9964" style="stop-color:#F36F56"/>
				</linearGradient>
				<path style="fill:url(#SVGID_00000089557917112766402060000014476086938921457807_);" d="M1576.31,3100.63l8.67,35.62
					c-0.9,1.84-11.95,7.54-20.93,3.07l-13.83-34.86L1576.31,3100.63z"/>
				
					<linearGradient id="SVGID_00000005225176950651592380000002380079746671783609_" gradientUnits="userSpaceOnUse" x1="2016.5697" y1="2909.9019" x2="1783.5773" y2="2384.6814" gradientTransform="matrix(0.9986 0.0533 -0.0533 0.9986 -237.5799 -19.3005)">
					<stop  offset="0" style="stop-color:#AA80F9"/>
					<stop  offset="0.9964" style="stop-color:#6165D7"/>
				</linearGradient>
				<path style="fill:url(#SVGID_00000005225176950651592380000002380079746671783609_);" d="M1523.67,2327.86
					c-4.78,117.89-3.82,250.79,7.79,395.74c11.47,143.26,31.32,273.21,54.43,387.78c-13.64,2.9-27.28,5.8-40.92,8.7
					c-32.41-33.63-72.77-86-89.76-157.87c-10.54-44.61-5.04-66.94-10.33-121.4c-8.42-86.7-32.38-133.17-55.93-203.98
					c-21.16-63.63-45.22-156.64-54.21-279.73C1397.72,2347.35,1460.7,2337.61,1523.67,2327.86z"/>
				
					<linearGradient id="SVGID_00000083773505171119215620000012223708140428552580_" gradientUnits="userSpaceOnUse" x1="1980.4382" y1="2925.929" x2="1747.446" y2="2400.7092" gradientTransform="matrix(0.9986 0.0533 -0.0533 0.9986 -237.5799 -19.3005)">
					<stop  offset="0" style="stop-color:#AA80F9"/>
					<stop  offset="0.9964" style="stop-color:#6165D7"/>
				</linearGradient>
				<path style="opacity:0.3;fill:url(#SVGID_00000083773505171119215620000012223708140428552580_);" d="M1504.83,2878.83
					c-15.02-59.48-43.95-75.2-44.98-131.34c-0.73-39.71,13.54-42.96,12.59-80.97c-1.44-57.65-35.21-87.88-52.18-124.15
					c-17.92-38.3-24.79-99.82,23.51-202.15c-36.34,5.62-72.69,11.25-109.03,16.87c8.99,123.09,33.05,216.1,54.21,279.73
					c23.55,70.81,47.5,117.28,55.93,203.98c5.29,54.45-0.21,76.79,10.33,121.4c16.99,71.87,57.34,124.24,89.76,157.87
					c3.47-0.74,6.94-1.47,10.41-2.21c-35.04-41.82-47.4-79.18-50.55-109.49C1499.72,2959.07,1519.98,2938.8,1504.83,2878.83z"/>
				
					<linearGradient id="SVGID_00000175316034012306762260000002653620863501725593_" gradientUnits="userSpaceOnUse" x1="1443.4674" y1="3037.595" x2="1210.4694" y2="2512.3616" gradientTransform="matrix(0.9976 -0.0694 0.0694 0.9976 -160.8932 92.9864)">
					<stop  offset="0" style="stop-color:#AA80F9"/>
					<stop  offset="0.9964" style="stop-color:#6165D7"/>
				</linearGradient>
				<path style="fill:url(#SVGID_00000175316034012306762260000002653620863501725593_);" d="M1387.35,2320.49
					c-16.23,149.4-31.15,301.66-44.57,456.72c-10.07,116.35-19.05,231.29-26.99,344.75c-13.82,0.96-27.65,1.93-41.48,2.89
					c-11.95-25.42-27.56-64.14-37.05-113.2c-11.53-59.59-6.27-94.33-9.44-155.62c-3.57-68.74-13.25-84.2-27.22-171.42
					c-28.34-177.02-42.51-265.53,2.43-317.71C1217.62,2349.95,1262.77,2307.91,1387.35,2320.49z"/>
				<path class="st0" d="M1162.41,1958.66c-43.26,38.99-50.21,93.09-57.15,147.04c-11.58,90.13,8.7,178.42,15.68,208.83
					c10.23,44.53,19.34,63.59,15.4,100.11c-4.89,45.33-24.83,70.61-11.34,89.72c9.22,13.06,27.97,14.64,61.24,14.75
					c72.4,0.25,95.13-7.97,148.42-9.29c35.01-0.86,74.55-1.84,125.1,8.8c40.63,8.55,70.49,20.84,97.49,5.31
					c18.91-10.88,26.89-29.89,28.95-34.91c12.92-31.48,0.72-63.75-4.21-77.66c-6.7-18.92-17.88-91.44-40.24-236.47
					c-6.56-42.54-10.71-76.78-26.15-126.01c-10.95-34.92-16.42-52.37-26.66-66.47c-45.45-62.58-140.23-63.69-174.21-64.08
					C1268.2,1917.77,1208.56,1917.07,1162.41,1958.66z"/>
				
					<linearGradient id="SVGID_00000176730901083707227190000009076803217849114241_" gradientUnits="userSpaceOnUse" x1="2105.6702" y1="2236.8289" x2="1810.0255" y2="2744.6421" gradientTransform="matrix(0.9921 0.1254 -0.1254 0.9921 -342.8332 -378.4023)">
					<stop  offset="0" style="stop-color:#AA80F9"/>
					<stop  offset="0.9964" style="stop-color:#6165D7"/>
				</linearGradient>
				<path style="opacity:0.1;fill:url(#SVGID_00000176730901083707227190000009076803217849114241_);" d="M1577.45,2393.66
					c-24.89-13.67-43.63-28.74-57.92-42.79c-71-69.79-70.79-117.99-127.49-156.35c-51.01-34.51-76.08-8.13-127.53-36.43
					c-38.78-21.32-85.57-69.87-107.6-194.17c-38.35,38.51-45.02,90.21-51.64,141.77c-11.58,90.13,8.7,178.42,15.68,208.83
					c10.23,44.53,19.34,63.59,15.4,100.11c-4.89,45.33-24.83,70.61-11.34,89.72c9.22,13.06,27.97,14.64,61.24,14.75
					c72.4,0.25,95.13-7.97,148.42-9.29c35.01-0.86,74.55-1.84,125.1,8.8c40.63,8.55,70.49,20.84,97.49,5.31
					c18.91-10.88,26.89-29.89,28.95-34.91c12.92-31.48,0.72-63.75-4.21-77.66C1580.68,2407.61,1579.18,2401.74,1577.45,2393.66z"/>
				
					<linearGradient id="SVGID_00000008132743001627302290000014270468309037826177_" gradientUnits="userSpaceOnUse" x1="1284.6067" y1="1942.4835" x2="1286.9255" y2="1845.0929">
					<stop  offset="0" style="stop-color:#FFC444"/>
					<stop  offset="0.9964" style="stop-color:#F36F56"/>
				</linearGradient>
				<path style="fill:url(#SVGID_00000008132743001627302290000014270468309037826177_);" d="M1290.2,1883.39
					c-6.09,8.92-2.01,12.79-6.96,20.87c-3.26,5.33-9,10.11-48.7,20.87c-20.68,5.61-24.38,5.73-24.35,6.96
					c0.12,4.83,57.89,7.52,114.78,0c0,0,34.89-4.62,34.78-10.43c-0.09-4.71-24.47-2.27-34.78-17.39
					c-9.34-13.69,0.88-30.04-6.96-34.78C1311.37,1865.46,1297.21,1873.12,1290.2,1883.39z"/>
				<g>
					<g>
						<path class="st0" d="M1262.94,1834.29c-8.87-11.1-10.45-32.6,1.17-43.07c6.88-6.2,18.25-8.42,26.69-4.93
							c9.35,3.87,8.71,12.1,18.52,15.36c7.93,2.64,10.59-2,20.87,0c2.7,0.53,14.03,2.73,19.31,11.44
							c7.38,12.19-3.72,28.21-7.96,37.35c-2.1,4.53-6,5.94-9.57,9.28c-4.96,4.63-12.71,11.98-25.36,24.3
							c-1.04-3.84-2.62-8.6-5.08-13.8c-0.95-2-4.76-9.81-10.46-16.39C1279.4,1840.35,1270.63,1843.92,1262.94,1834.29z"/>
						
							<linearGradient id="SVGID_00000067215557689218923740000004756342010700646312_" gradientUnits="userSpaceOnUse" x1="4766.8286" y1="-7.8205" x2="4763.6812" y2="245.7701" gradientTransform="matrix(-0.9971 -0.0753 -0.0753 0.9971 6056.3887 2194.3374)">
							<stop  offset="0" style="stop-color:#FFC444"/>
							<stop  offset="0.9964" style="stop-color:#F36F56"/>
						</linearGradient>
						<path style="fill:url(#SVGID_00000067215557689218923740000004756342010700646312_);" d="M1324.75,1873.98
							c0,0-7.42,11.18-22.43,16.08c-5.62,1.83-12.68,4.46-19.8,1.97c-13.93-4.87-17.37-25.16-18.4-31.25
							c-3.96-23.32,5.36-48.12,13.91-48.7c3.97-0.26,5.06,4.87,13.91,6.96c7.08,1.66,13.6,0.08,13.91,0
							c5.64-1.43,6.7-3.68,10.43-3.48c5.64,0.31,9.58,5.77,10.43,6.96c5.75,7.96,3.71,21.6-4.42,34.65
							c4.78-4.33,10.57-5.82,14.71-3.85c0.66,0.32,2.42,1.48,3.42,3.19C1344.05,1862.68,1338.21,1870.11,1324.75,1873.98z"/>
					</g>
					<path class="st0" d="M1263.17,1854.7c0,0,0.94,16.52,7.89,13.04c6.96-3.48,13.91-6.96,20.87,0
						c6.96,6.96,36.74-22.03,36.74-22.03l5,4.64c0,0-13.91,6.96-13.91,13.91c0,6.96-12.94,29.49-17.39,38.26
						c-5.42,10.69-30.99,25.86-45.22-6.96C1252.16,1884.06,1263.17,1854.7,1263.17,1854.7z"/>
				</g>
				<path class="st0" d="M1006.6,2514.35c-12.76-12.99-162.19-169.72-109.47-341.06c51.07-165.96,267.35-266.19,321.49-228.98
					c16.24,11.16,16.6,33.8,16.87,50.24c1.75,109.15-128.52,148.59-185.27,255.63c-26.43,49.85-45.34,130.25-0.87,260.11
					C1035.1,2511.63,1020.85,2512.99,1006.6,2514.35z"/>
				
					<linearGradient id="SVGID_00000147899718471227661410000002039308413001490322_" gradientUnits="userSpaceOnUse" x1="1281.0083" y1="1874.6238" x2="1283.7476" y2="1904.7562">
					<stop  offset="0" style="stop-color:#FFC444"/>
					<stop  offset="0.9964" style="stop-color:#F36F56"/>
				</linearGradient>
				<path style="fill:url(#SVGID_00000147899718471227661410000002039308413001490322_);" d="M1268.74,1874.29
					c0,0,13.34,7.14,24.77,3.1C1293.5,1877.39,1275.88,1890.96,1268.74,1874.29z"/>
				
					<linearGradient id="SVGID_00000112627564345102153420000013337177532246240155_" gradientUnits="userSpaceOnUse" x1="987.2289" y1="2898.5093" x2="1062.0022" y2="3056.7793" gradientTransform="matrix(0.9781 0.2084 -0.2084 0.9781 659.1533 -533.8928)">
					<stop  offset="0" style="stop-color:#FFC444"/>
					<stop  offset="0.9964" style="stop-color:#F36F56"/>
				</linearGradient>
				<path style="fill:url(#SVGID_00000112627564345102153420000013337177532246240155_);" d="M1049.35,2510.28
					c0,0,7.98,20.8-6.12,61.88c-14.09,41.08-30.42,19.97-32.58,10.69c-2.16-9.28,7.81-69.63,7.81-69.63L1049.35,2510.28z"/>
			</g>
			
				<linearGradient id="SVGID_00000169541188190156698540000009235141207904703362_" gradientUnits="userSpaceOnUse" x1="493.0883" y1="3001.9033" x2="511.6499" y2="3336.0144" gradientTransform="matrix(-1 0 0 1 1493.4886 0)">
				<stop  offset="0" style="stop-color:#444B8C"/>
				<stop  offset="0.9964" style="stop-color:#26264F"/>
			</linearGradient>
			<path style="fill:url(#SVGID_00000169541188190156698540000009235141207904703362_);" d="M953.9,3120.71
				c0,0-2.32,18.47-0.76,24.66c1.56,6.19,55.26,10.66,73.49,8.51c18.23-2.15-10.86-20.77-22.47-24.27
				C992.54,3126.11,953.9,3120.71,953.9,3120.71z"/>
			
				<linearGradient id="SVGID_00000018945643468679071820000015422367000684520362_" gradientUnits="userSpaceOnUse" x1="512.5538" y1="3109.0488" x2="540.3488" y2="3109.0488" gradientTransform="matrix(-1 0 0 1 1493.4886 0)">
				<stop  offset="0" style="stop-color:#FFC444"/>
				<stop  offset="0.9964" style="stop-color:#F36F56"/>
			</linearGradient>
			<path style="fill:url(#SVGID_00000018945643468679071820000015422367000684520362_);" d="M980.93,3089.9l-5.66,37.06
				c0,0-14.43,6.49-21.37,0.08l-0.76-38.79L980.93,3089.9z"/>
			
				<linearGradient id="SVGID_00000174569670387937224330000009854318629276392374_" gradientUnits="userSpaceOnUse" x1="829.0564" y1="2983.238" x2="847.618" y2="3317.3486" gradientTransform="matrix(-1 0 0 1 1493.4886 0)">
				<stop  offset="0" style="stop-color:#444B8C"/>
				<stop  offset="0.9964" style="stop-color:#26264F"/>
			</linearGradient>
			<path style="fill:url(#SVGID_00000174569670387937224330000009854318629276392374_);" d="M678.21,3088.24
				c0,0,11.39,8.46,8.36,18.58c-3.04,10.13-29.62,50.7-48.57,62.22c-18.95,11.52-13.01-12.48-7.49-27.42
				c5.51-14.94,19.6-47.86,25.1-53.38C661.1,3082.72,678.21,3088.24,678.21,3088.24z"/>
			
				<linearGradient id="SVGID_00000111180858795179759910000008330630327780736134_" gradientUnits="userSpaceOnUse" x1="794.7875" y1="3091.9097" x2="850.067" y2="3091.9097" gradientTransform="matrix(-1 0 0 1 1493.4886 0)">
				<stop  offset="0" style="stop-color:#FFC444"/>
				<stop  offset="0.9964" style="stop-color:#F36F56"/>
			</linearGradient>
			<path style="fill:url(#SVGID_00000111180858795179759910000008330630327780736134_);" d="M698.7,3047.53
				c-5.51,15.35-10.81,27.98-14.95,37.29c-9.17,20.6-14.18,28.33-19.85,35.03c-4.95,5.84-16.66,18.29-19.81,16.22
				c-3.2-2.1,5.37-17.24,21.89-61.59c2.4-6.44,9.98-26.94,9.98-26.94l0,0H698.7z"/>
			
				<linearGradient id="SVGID_00000109743805129712060560000013324078572301468316_" gradientUnits="userSpaceOnUse" x1="497.6364" y1="3075.5696" x2="488.3552" y2="2716.7085" gradientTransform="matrix(-1 0 0 1 1493.4886 0)">
				<stop  offset="0" style="stop-color:#311944"/>
				<stop  offset="1" style="stop-color:#893976"/>
			</linearGradient>
			<path style="fill:url(#SVGID_00000109743805129712060560000013324078572301468316_);" d="M1093.4,2405.99
				c3.93,38.59,7.7,98.49,2.06,171.18c-7.35,94.71-26.29,154.64-50.04,255.63c-14.51,61.72-34.07,152.55-51.77,266.15
				c-4.11,2.35-16.19,8.53-31.74,6.22c-8.71-1.29-15.22-4.76-19.07-7.24c-46.44-141.9-32.72-229.83-10.31-284.61
				c9.55-23.35,21.13-41.78,27.32-77.67c8.19-47.49-1.94-74.04-16.38-184.05c-10.3-78.41-8.51-90.53-1.66-102.29
				C969.19,2402.28,1052.94,2403.2,1093.4,2405.99z"/>
			
				<linearGradient id="SVGID_00000088826225671825037670000000868970661609168013_" gradientUnits="userSpaceOnUse" x1="703.9789" y1="3070.2336" x2="694.6977" y2="2711.3721" gradientTransform="matrix(-1 0 0 1 1493.4886 0)">
				<stop  offset="0" style="stop-color:#311944"/>
				<stop  offset="1" style="stop-color:#893976"/>
			</linearGradient>
			<path style="fill:url(#SVGID_00000088826225671825037670000000868970661609168013_);" d="M933.56,2422.49
				c-28.45,146.91-56.37,224.07-77.5,267.71c-5.21,10.76-22.6,45.49-39.03,95.27c-14.55,44.07-20.61,76.48-23.72,90.75
				c-9.81,45.03-34.05,110.78-99.27,197.03c-0.81,0.48-11.94,6.77-22.57,1.16c-5.38-2.84-8.06-7.37-9.13-9.48
				c8.53-82.45,18.31-151.74,26.81-205.21c1.78-11.22,9.63-60.28,21.94-125.11c4.82-25.37,11.88-62.54,20.33-100.72
				c10.53-47.55,26.68-112.23,51.56-189.74C833.19,2436.92,883.37,2429.71,933.56,2422.49z"/>
			
				<linearGradient id="SVGID_00000086649436549119383470000012273844128966943381_" gradientUnits="userSpaceOnUse" x1="1124.2686" y1="1995.2009" x2="1173.7899" y2="2376.8076">
				<stop  offset="3.597120e-03" style="stop-color:#E38DDD"/>
				<stop  offset="1" style="stop-color:#9571F6"/>
			</linearGradient>
			<path style="fill:url(#SVGID_00000086649436549119383470000012273844128966943381_);" d="M1030.36,1988.16
				c96.18,40.37,153.2,95.73,183.52,131.09c33.46,39.02,67.31,79.71,58.26,128.17c-5.58,29.86-26.35,56.86-52.43,69.91
				c-59.16,29.6-146.18-12.32-177.69-69.91c-9.17-16.77-11.24-30.47-11.65-171.87C1030.25,2040.31,1030.29,2010.45,1030.36,1988.16z
				"/>
			<path class="st0" d="M966.14,1943.3c-34.51,12.04-30.58,31.36-59.02,39.35c-27.29,7.67-65.3-0.45-81.37-25.84
				c-14.52-22.94-6.61-52.82-5.92-55.27c5.77-20.54,17.13-25.01,14.86-37.77c-3.19-17.91-27.17-17.93-30.91-35.33
				c-3.48-16.16,12.34-38.89,30.68-43.57c19.77-5.04,29.77,14.12,53.59,9.06c14.69-3.12,13.88-11.06,30.48-14.78
				c23.57-5.28,43.49,6.6,46.1,8.21c4.82,2.97,20.37,12.57,25.43,30.16c5.04,17.52-4.64,27.96,2.12,35.12
				c7.74,8.2,22.09-3.74,37.45,4.21c12.89,6.67,20.86,24.42,18.26,39.97c-2.73,16.31-16.49,25.26-24.67,30.6
				C1002.21,1941.11,990.61,1934.76,966.14,1943.3z"/>
			
				<linearGradient id="SVGID_00000140001312596456272560000014260450678541398425_" gradientUnits="userSpaceOnUse" x1="1121.665" y1="1995.5388" x2="1171.1863" y2="2377.1445">
				<stop  offset="0" style="stop-color:#AA80F9"/>
				<stop  offset="0.9964" style="stop-color:#6165D7"/>
			</linearGradient>
			<path style="fill:url(#SVGID_00000140001312596456272560000014260450678541398425_);" d="M1151.25,2222.66
				c-4.9-14.04-26.2-75.06-5.83-90.3c11.76-8.8,40.69-4.72,118.13,56.61c-11.3-24.54-30.54-47.4-49.67-69.72
				c-30.32-35.36-87.34-90.72-183.52-131.09c-0.07,22.29-0.1,52.14,0,87.39c0.42,141.4,2.48,155.1,11.65,171.87
				c30.58,55.89,113.45,97.01,172.39,72.33C1191.91,2298.09,1166.46,2266.27,1151.25,2222.66z"/>
			
				<linearGradient id="SVGID_00000155841529743797764720000016385423453382331300_" gradientUnits="userSpaceOnUse" x1="939.1095" y1="2149.552" x2="850.2067" y2="2825.9856">
				<stop  offset="0" style="stop-color:#AA80F9"/>
				<stop  offset="0.9964" style="stop-color:#6165D7"/>
			</linearGradient>
			<path style="fill:url(#SVGID_00000155841529743797764720000016385423453382331300_);" d="M1117.91,2393.19
				c-0.89-12.77-2.64-34.63-14.73-119.55c-17.55-123.37-16.83-96.02-20.39-134c-3.35-35.71-5.34-68.14-20.39-110.69
				c-5.27-14.91-10.66-26.88-14.56-34.96c-14.57-4.85-73.02-19.16-101.96-20.39c-33.25-1.41-64.38-2.73-88.91-1.24
				c-2.29-0.8-29.49,1.4-53.83,9.98c-19.89,7.01-35.73,14.64-46.61,20.39c17.96,13.93,42,37.34,46.61,69.91
				c5.13,36.29-18.54,50.85-40.78,119.43c-15.78,48.66-21.18,94.72-23.3,113.61c-6.88,61.12,0.31,79.02-17.48,104.87
				c-20.18,29.31-44.89,28.73-49.52,52.43c-5.12,26.21,19.84,53.84,37.87,67c37.59,27.44,80.85,12.55,145.65,2.91
				c165.63-24.64,230.72,14.93,259.94-29.62C1124.59,2489.45,1122.36,2457.36,1117.91,2393.19z"/>
			
				<linearGradient id="SVGID_00000083795021773689727740000007978779046731243962_" gradientUnits="userSpaceOnUse" x1="863.532" y1="2139.2271" x2="774.1994" y2="2818.9304">
				<stop  offset="3.597120e-03" style="stop-color:#E38DDD"/>
				<stop  offset="1" style="stop-color:#9571F6"/>
			</linearGradient>
			<path style="opacity:0.3;fill:url(#SVGID_00000083795021773689727740000007978779046731243962_);" d="M768.19,2529.99
				c23.9-13.49,19.38-37.39,43.69-52.43c36.33-22.47,69.39,16.68,110.69,0c52.44-21.17,60.21-108.92,61.17-122.35
				c1.82-25.34,5.54-77.24-26.22-104.87c-40.08-34.87-101.58-0.59-122.35-32.04c-11.77-17.83,5.93-31.94,2.91-75.74
				c-2.19-31.73-15.48-82.19-44.25-97.86c4.49,8.41,7.85,17.73,9.3,27.95c5.13,36.29-18.54,50.85-40.78,119.43
				c-15.78,48.66-21.18,94.72-23.3,113.61c-6.88,61.12,0.31,79.02-17.48,104.87c-20.18,29.31-44.89,28.73-49.52,52.43
				c-5.12,26.21,19.84,53.84,37.87,67c1.39,1.01,2.79,1.98,4.21,2.9C733.01,2538.07,752.27,2538.97,768.19,2529.99z"/>
			
				<linearGradient id="SVGID_00000047057234126048028550000012039386739414523567_" gradientUnits="userSpaceOnUse" x1="895.4471" y1="2018.1556" x2="1028.1996" y2="1899.8958">
				<stop  offset="0" style="stop-color:#FFC444"/>
				<stop  offset="0.9964" style="stop-color:#F36F56"/>
			</linearGradient>
			<path style="fill:url(#SVGID_00000047057234126048028550000012039386739414523567_);" d="M968.46,1920.52
				c-2.91,2.91-14.56,26.22-32.04,40.78c-9.23,7.69-43.7,11.65-52.43,11.65c-8.74,0-2.91,8.74,37.87,14.57
				c40.78,5.83,67,5.83,75.74-2.91c0,0-29.13-5.83-20.39-26.22C985.94,1937.99,968.46,1920.52,968.46,1920.52z"/>
			
				<linearGradient id="SVGID_00000169535816920608494140000002211055604132579005_" gradientUnits="userSpaceOnUse" x1="3679.9431" y1="1965.4297" x2="3677.814" y2="2136.9683" gradientTransform="matrix(0.9919 -0.1271 0.1271 0.9919 -2930.2454 427.9954)">
				<stop  offset="0" style="stop-color:#FFC444"/>
				<stop  offset="0.9964" style="stop-color:#F36F56"/>
			</linearGradient>
			<path style="fill:url(#SVGID_00000169535816920608494140000002211055604132579005_);" d="M956,1938.33
				c0,0,7.57,17.56,26.21,15.17c16.69-2.14,16.49-44.05,5.29-51.35c-3.74-2.44-11.38-3.46-17.1-1.47
				c-4.02,1.4-16.06,10.96-13.63,25.27c-3.64-2.01-7.3-1.76-8.59-0.03c-1.64,2.2,0.9,6.28,1.48,7.2
				C951.65,1936.33,954.61,1937.77,956,1938.33z"/>
			
				<linearGradient id="SVGID_00000098211642466365252400000009200900834130047128_" gradientUnits="userSpaceOnUse" x1="-879.7664" y1="2404.6536" x2="-860.5284" y2="2437.4434" gradientTransform="matrix(-0.0199 0.9998 -0.9998 -0.0199 3435.3225 3186.1096)">
				<stop  offset="0" style="stop-color:#FFC444"/>
				<stop  offset="0.9964" style="stop-color:#F36F56"/>
			</linearGradient>
			<path style="fill:url(#SVGID_00000098211642466365252400000009200900834130047128_);" d="M1187.05,2165.94
				c0.87-2.48,3.07-4.35,5.69-4.08c2.93,0.3,5.85,2.06,5.73,7.92c-0.23,11.65-6.35,26.1-12.23,28.89
				c-5.88,2.8-14.56-0.29-11.42-11.88C1177.34,2177.51,1185.37,2170.75,1187.05,2165.94z"/>
			<g>
				<g>
					
						<linearGradient id="SVGID_00000135682438044654338100000016278366002405142968_" gradientUnits="userSpaceOnUse" x1="-186.1881" y1="2515.271" x2="-222.6885" y2="2463.4407" gradientTransform="matrix(0.229 -0.9731 -0.8037 -0.1892 3179.0959 2454.583)">
						<stop  offset="0" style="stop-color:#444B8C"/>
						<stop  offset="0.9964" style="stop-color:#26264F"/>
					</linearGradient>
					<path style="fill:url(#SVGID_00000135682438044654338100000016278366002405142968_);" d="M1156.82,2264.81l-89.35,7.96
						c-3.45,0.31-7.52-4.41-6.64-7.74l46.26-164.69c0.77-2.89,3.25-4.84,5.94-4.69l89.83,3.01c2.88,0.17,1.48,7.55,0.49,10.99
						l-39.29,148.05C1163.38,2260.09,1159.06,2264.61,1156.82,2264.81z"/>
					
						<linearGradient id="SVGID_00000170269446205307080500000003364394913723780522_" gradientUnits="userSpaceOnUse" x1="-255.6493" y1="2600.5159" x2="-171.2461" y2="2429.072" gradientTransform="matrix(0.2291 -0.9734 -0.8037 -0.1892 3179.1196 2455.2729)">
						<stop  offset="0" style="stop-color:#311944"/>
						<stop  offset="1" style="stop-color:#893976"/>
					</linearGradient>
					<path style="fill:url(#SVGID_00000170269446205307080500000003364394913723780522_);" d="M1159.56,2260.97l-89.8,9.16
						c-3.44,0.35-5.7-2.46-4.72-5.91l46.41-164.51c0.76-2.7,3.12-4.58,5.67-4.52l85.35,2.02c2.79,0.07,4.55,3.18,3.66,6.44
						l-41.43,152.53C1164.02,2258.69,1161.83,2260.73,1159.56,2260.97z"/>
				</g>
				
					<linearGradient id="SVGID_00000018944772256661795330000017623097313340093318_" gradientUnits="userSpaceOnUse" x1="-303.4337" y1="2487.489" x2="-119.3585" y2="2487.489" gradientTransform="matrix(0.2291 -0.9734 -0.8037 -0.1892 3179.1196 2455.2729)">
					<stop  offset="0" style="stop-color:#311944"/>
					<stop  offset="1" style="stop-color:#893976"/>
				</linearGradient>
				<path style="opacity:0.3;fill:url(#SVGID_00000018944772256661795330000017623097313340093318_);" d="M1118.13,2166.09
					c2.07,14.67,13.41,10.96,21.85,28.44c10.72,22.19-1.2,42.77,9.12,50.6c3.15,2.39,8.58,3.66,18.57,0.13l-2.96,10.91
					c-0.68,2.51-2.87,4.56-5.14,4.79l-89.8,9.16c-3.44,0.35-5.7-2.46-4.72-5.91l46.41-164.51c0.76-2.7,3.12-4.58,5.67-4.52
					l12.82,0.3c1.29,5.52,2.12,11.92,1.72,19.07C1130.29,2139.11,1115.7,2148.91,1118.13,2166.09z"/>
			</g>
			
				<linearGradient id="SVGID_00000046313995715035224280000008244533611970404271_" gradientUnits="userSpaceOnUse" x1="866.9705" y1="2203.8755" x2="603.3425" y2="2646.6548">
				<stop  offset="0" style="stop-color:#AA80F9"/>
				<stop  offset="0.9964" style="stop-color:#6165D7"/>
			</linearGradient>
			<path style="fill:url(#SVGID_00000046313995715035224280000008244533611970404271_);" d="M814.79,2081.38
				c-0.14,21.13-5.43,24.08-14.57,61.17c-10.87,44.16-18.75,76.15-5.83,99.04c16.32,28.91,59.71,32.46,90.3,34.96
				c74.54,6.09,138.42-18.74,182.03-42.86c0.99-0.55,2.1-0.79,3.23-0.69c9.8,0.86,12.24,2.53,19.99,3.62
				c3.23,0.45,5.45,3.49,4.89,6.71c-4.95,28.44-26.65,134.75-134.4,181.8c-15.87,6.93-99.66,41.49-192.26,2.91
				c-27.13-11.3-79.61-39.13-113.61-99.04c-38.19-67.3-37.38-147.38-8.74-209.74c20.51-44.65,50.44-69.65,78.65-93.22
				c34.28-28.63,46.75-27.61,52.43-26.22C802.33,2006.03,815.01,2049.56,814.79,2081.38z"/>
			
				<linearGradient id="SVGID_00000022527678136619768660000016686805542710547892_" gradientUnits="userSpaceOnUse" x1="866.8708" y1="2203.8162" x2="603.2432" y2="2646.5952">
				<stop  offset="3.597120e-03" style="stop-color:#E38DDD"/>
				<stop  offset="1" style="stop-color:#9571F6"/>
			</linearGradient>
			<path style="opacity:0.3;fill:url(#SVGID_00000022527678136619768660000016686805542710547892_);" d="M951.71,2387.25
				c-31.06-2.95-37.78-19.28-87.39-29.13c-75-14.89-105.91,13.25-128.17-8.74c-25.64-25.32,11.4-66.54-11.65-134
				c-16.29-47.67-43.35-52.14-52.43-84.48c-4.51-16.06-4.06-37.16,9.3-65.14c-13.22,14.56-25.5,31.67-35.52,53.49
				c-28.64,62.36-29.45,142.44,8.74,209.74c33.99,59.91,86.48,87.74,113.61,99.04c92.6,38.58,176.39,4.02,192.26-2.91
				c45.53-19.88,75.65-50.34,95.67-81.03C1011.87,2382.3,977.26,2389.67,951.71,2387.25z"/>
			
				<linearGradient id="SVGID_00000169524582007173235390000008514644663630989484_" gradientUnits="userSpaceOnUse" x1="1110.2313" y1="2150.0381" x2="1053.9128" y2="2252.9651">
				<stop  offset="0" style="stop-color:#FFC444"/>
				<stop  offset="0.9964" style="stop-color:#F36F56"/>
			</linearGradient>
			<path style="fill:url(#SVGID_00000169524582007173235390000008514644663630989484_);" d="M1095.39,2187.52
				c0,0-3.86-12.92-15.51-12.92c-11.65,0-20.39,11.65-11.65,34.96c8.74,23.3,5.83,26.22,5.83,26.22s14.57,5.83,14.57,0
				c0-5.83-5.28-26.03-4.1-30.49C1085.7,2200.81,1087.59,2188.79,1095.39,2187.52z"/>
		</g>
		<g>
			
				<linearGradient id="SVGID_00000103229157273083620470000012544864169317790880_" gradientUnits="userSpaceOnUse" x1="2714.595" y1="3029.6807" x2="2731.5913" y2="3335.6174">
				<stop  offset="0" style="stop-color:#444B8C"/>
				<stop  offset="0.9964" style="stop-color:#26264F"/>
			</linearGradient>
			<path style="fill:url(#SVGID_00000103229157273083620470000012544864169317790880_);" d="M2757.17,3138.47
				c0,0,2.12,16.91,0.7,22.58c-1.43,5.67-50.6,9.76-67.29,7.79c-16.69-1.97,9.94-19.02,20.58-22.22
				C2721.79,3143.42,2757.17,3138.47,2757.17,3138.47z"/>
			
				<linearGradient id="SVGID_00000077321018881553506410000011480667107419074219_" gradientUnits="userSpaceOnUse" x1="2746.6948" y1="3180.4512" x2="2737.6658" y2="2767.386">
				<stop  offset="0" style="stop-color:#FFC444"/>
				<stop  offset="0.9964" style="stop-color:#F36F56"/>
			</linearGradient>
			<path style="fill:url(#SVGID_00000077321018881553506410000011480667107419074219_);" d="M2732.42,3110.25l5.18,33.93
				c0,0,13.22,5.94,19.57,0.07l0.7-35.52L2732.42,3110.25z"/>
			
				<linearGradient id="SVGID_00000083068605213507251930000015271709067674454450_" gradientUnits="userSpaceOnUse" x1="3022.2202" y1="3012.595" x2="3039.2158" y2="3318.5203">
				<stop  offset="0" style="stop-color:#444B8C"/>
				<stop  offset="0.9964" style="stop-color:#26264F"/>
			</linearGradient>
			<path style="fill:url(#SVGID_00000083068605213507251930000015271709067674454450_);" d="M3009.61,3108.74
				c0,0-10.43,7.74-7.65,17.01c2.78,9.27,27.13,46.42,44.48,56.97c17.35,10.54,11.91-11.42,6.86-25.11
				c-5.05-13.68-17.95-43.82-22.99-48.88C3025.27,3103.69,3009.61,3108.74,3009.61,3108.74z"/>
			
				<linearGradient id="SVGID_00000095322230313143681230000010723557080720110474_" gradientUnits="userSpaceOnUse" x1="3017.5344" y1="3174.5305" x2="3008.5056" y2="2761.4722">
				<stop  offset="0" style="stop-color:#FFC444"/>
				<stop  offset="0.9964" style="stop-color:#F36F56"/>
			</linearGradient>
			<path style="fill:url(#SVGID_00000095322230313143681230000010723557080720110474_);" d="M2990.84,3071.46
				c5.04,14.06,9.9,25.62,13.69,34.14c8.39,18.86,12.98,25.94,18.18,32.07c4.53,5.34,15.26,16.75,18.14,14.85
				c2.93-1.92-4.92-15.79-20.05-56.39c-2.2-5.89-9.14-24.67-9.14-24.67l0,0H2990.84z"/>
			
				<linearGradient id="SVGID_00000003823547074588068900000017302953402721927347_" gradientUnits="userSpaceOnUse" x1="2615.5515" y1="2911.9805" x2="2787.0967" y2="2681.7488">
				<stop  offset="0" style="stop-color:#444B8C"/>
				<stop  offset="0.9964" style="stop-color:#26264F"/>
			</linearGradient>
			<path style="fill:url(#SVGID_00000003823547074588068900000017302953402721927347_);" d="M2629.44,2484.04
				c-3.6,35.34-7.05,90.18-1.89,156.74c6.73,86.72,24.07,141.6,45.81,234.06c13.29,56.51,31.2,139.68,47.4,243.69
				c3.76,2.15,14.82,7.81,29.07,5.7c7.97-1.19,13.94-4.35,17.46-6.63c42.52-129.93,29.96-210.44,9.44-260.6
				c-8.75-21.38-19.35-38.25-25.02-71.12c-7.5-43.49,1.77-67.8,15-168.53c9.43-71.8,7.79-82.89,1.52-93.66
				C2743.17,2480.65,2666.49,2481.49,2629.44,2484.04z"/>
			
				<linearGradient id="SVGID_00000011739620094720779530000008778365164981500050_" gradientUnits="userSpaceOnUse" x1="1789.1097" y1="2251.7476" x2="1851.3953" y2="2632.6484" gradientTransform="matrix(0.981 -0.194 0.194 0.981 124.1931 236.6994)">
				<stop  offset="0" style="stop-color:#FFC444"/>
				<stop  offset="0.9964" style="stop-color:#F36F56"/>
			</linearGradient>
			<path style="fill:url(#SVGID_00000011739620094720779530000008778365164981500050_);" d="M2365.02,2120.47
				c0,0-5.97-23.41-15.9-29.58c-9.93-6.18-23.97-12.78-27.18-15.5c-3.22-2.71-6.97,5.4,2.3,11.61c9.27,6.21,9.27,6.21,9.27,6.21
				c0.19,1.71-0.07,3.04-0.38,3.98c-1.47,4.39-6.48,7.41-12.67,7.98c-23.78,4.98-33.07,5.22-36.7,4.16
				c-0.54-0.16-2.61-0.83-3.48,0.09c-1.4,1.47,1.12,6.14,2.19,7.78c6.43,9.83,28.77,14.1,45.49,6.42c6.11-2.8,8.45-5.82,12.9-5.06
				c7.08,1.2,11.42,10.54,14,18.27L2365.02,2120.47z"/>
			
				<linearGradient id="SVGID_00000155118648523882451030000008311402584835788431_" gradientUnits="userSpaceOnUse" x1="2742.9836" y1="2940.5535" x2="3144.7603" y2="2565.863">
				<stop  offset="0" style="stop-color:#444B8C"/>
				<stop  offset="0.9964" style="stop-color:#26264F"/>
			</linearGradient>
			<path style="fill:url(#SVGID_00000155118648523882451030000008311402584835788431_);" d="M2775.8,2499.15
				c26.05,134.52,51.61,205.17,70.96,245.13c4.77,9.85,20.69,41.65,35.74,87.23c13.32,40.35,18.87,70.03,21.72,83.09
				c8.98,41.23,31.17,101.44,90.89,180.4c0.74,0.44,10.93,6.2,20.66,1.06c4.93-2.6,7.38-6.74,8.36-8.68
				c-7.81-75.5-16.77-138.94-24.55-187.9c-1.63-10.27-8.82-55.2-20.09-114.56c-4.41-23.23-10.88-57.27-18.62-92.23
				c-9.64-43.54-24.42-102.76-47.21-173.73C2867.7,2512.37,2821.75,2505.76,2775.8,2499.15z"/>
			<path class="st0" d="M2345.84,2127.9c6.77-6.02,13.54-12.04,20.31-18.06c2.48,2.5,38.63,37.78,89.16,27.09
				c34.79-7.36,54.86-35.94,67.72-54.17c38.61-54.78,15.52-94.97,57.09-132.2c11.55-10.34,34.19-22.85,49-19.04
				c35.28,9.09,55.59,115.18,21.44,198.63c-6.89,16.84-44.84,109.58-130.92,119.63C2450.14,2257.9,2376.44,2208.93,2345.84,2127.9z"
				/>
			
				<linearGradient id="SVGID_00000088828827642501189720000009045905291715352979_" gradientUnits="userSpaceOnUse" x1="3023.6802" y1="2269.7427" x2="2904.7092" y2="2101.2007">
				<stop  offset="0" style="stop-color:#444B8C"/>
				<stop  offset="0.9964" style="stop-color:#26264F"/>
			</linearGradient>
			<path style="fill:url(#SVGID_00000088828827642501189720000009045905291715352979_);" d="M2753.61,1967.09
				c-14.77-13.65-43.03-29.39-57.21-65.99c-4.27-11.01-19.38-50.04,2.92-79.89c13.23-17.72,37.82-29.75,59.49-25.49
				c18.52,3.64,21.41,16.54,52.87,42.49c12.25,10.1,31.93,26.34,53.84,35.37c37.54,15.47,60.09,0.91,97.77,2.57
				c46.3,2.04,100.08,27.88,125.99,65.45c45.99,66.68-20.63,134.33,29.74,212.45c16.51,25.59,24.64,19.86,63.73,69.4
				c39.15,49.61,58.72,74.41,55.24,104.81c-4.83,42.19-50.27,82.48-93.06,85.22c-41.8,2.68-68.37-30.21-89.65-15.82
				c-15.15,10.23-6.49,30.15-22.57,54.07c-20.74,30.85-61.49,37-68.07,37.99c-61.09,9.22-143.47-62.42-178.46-147.3
				C2723.09,2189.36,2833.92,2041.32,2753.61,1967.09z"/>
			
				<linearGradient id="SVGID_00000105401271916039982720000013375258531921994644_" gradientUnits="userSpaceOnUse" x1="2637.4338" y1="2928.2852" x2="2808.9785" y2="2698.0537">
				<stop  offset="0" style="stop-color:#444B8C"/>
				<stop  offset="0.9964" style="stop-color:#26264F"/>
			</linearGradient>
			<path style="opacity:0.3;fill:url(#SVGID_00000105401271916039982720000013375258531921994644_);" d="M2776.74,2857.01
				c-8.75-21.38-19.35-38.25-25.02-71.12c-7.5-43.49,1.77-67.8,15-168.53c9.43-71.8,7.79-82.89,1.52-93.66
				c-13.62-23.39-42.5-33.77-71.96-38.01c0.39,1.51,0.79,3.02,1.11,4.49c15.46,70.6-43.54,113.68-16.93,191.29
				c13.12,38.26,34.06,47.03,38.93,91.42c4.57,41.58-12,50.24-8.46,88.03c5.29,56.49,45.42,70.16,55.86,113.42
				c6.78,28.11,1.07,69.21-48.49,128.71c0.82,5.13,1.64,10.27,2.46,15.5c3.76,2.15,14.82,7.81,29.07,5.7
				c7.97-1.19,13.94-4.35,17.46-6.63C2809.82,2987.68,2797.26,2907.17,2776.74,2857.01z"/>
			
				<linearGradient id="SVGID_00000051369217341483389570000011389512033644715946_" gradientUnits="userSpaceOnUse" x1="2345.8384" y1="2130.3748" x2="2668.1011" y2="2130.3748">
				<stop  offset="0" style="stop-color:#AA80F9"/>
				<stop  offset="0.9964" style="stop-color:#6165D7"/>
			</linearGradient>
			<path style="opacity:0.15;fill:url(#SVGID_00000051369217341483389570000011389512033644715946_);" d="M2621.21,2033.09
				c-63.62,50.25-56.54,146.63-95.65,151.51c-11.95,1.49-11.29-7.67-39.78-16.93c-41.67-13.55-61.25,0.14-90.57-10.16
				c-12.14-4.26-27.93-13.37-43.49-34.86c-1.96,1.75-3.93,3.49-5.89,5.23c30.6,81.03,104.3,130,173.8,121.89
				c86.08-10.05,124.03-102.79,130.92-119.63c16.02-39.16,20.05-83.29,16.17-120.06
				C2652.04,2014.38,2636.09,2021.34,2621.21,2033.09z"/>
			<path class="st0" d="M2575.06,1956.91c3.9-6.06,16.29-22.83,68.89-35.2c26.36-6.2,75.1-16.81,137.82-3.52
				c86.14,18.25,139.79,69.94,159.99,91.67c-16.54,10.77-62.17,43.62-84.76,105.94c-7.03,19.39-27.8,85.68,1.9,147.77
				c17.12,35.78,47.4,62.64,70.39,83.04c34.49,30.6,52.36,35.3,63.92,62.72c12.59,29.85-0.1,44.41,15.54,64.85
				c16.8,21.95,36.47,11.74,64.94,33.94c29.16,22.73,18.78,41.44,45.32,66.57c38.56,36.5,89.68,24.65,92.06,41.07
				c2.05,14.13-34.28,33.3-65.15,41.07c-61.13,15.4-114.45-10.45-130.3-18.41c-43.9-22.05-36.31-36.33-69.78-53.14
				c-56.04-28.15-94.34,3.17-221.98,6.4c-69.12,1.75-104.07,2.14-123.22-21.24c-17.49-21.36-8.3-44.79,2.2-145.77c0,0,0,0,0-0.01
				c3.37-33.72,10.43-104.33,10.48-144.57c0.03-23.78-8.22-62.63-24.72-140.34c-0.97-4.58-9.9-46.56-17.11-102.65
				C2565,1986.6,2565.94,1971.09,2575.06,1956.91z"/>
			<g class="st87">
				
					<linearGradient id="SVGID_00000126282678392159927780000014408000849705235849_" gradientUnits="userSpaceOnUse" x1="2895.2891" y1="1912.7247" x2="2993.4871" y2="2513.2458">
					<stop  offset="0" style="stop-color:#AA80F9"/>
					<stop  offset="0.9964" style="stop-color:#6165D7"/>
				</linearGradient>
				<path style="fill:url(#SVGID_00000126282678392159927780000014408000849705235849_);" d="M3119.02,2574.69
					c-26.54-25.12-16.16-43.84-45.32-66.57c-28.47-22.2-48.15-11.99-64.94-33.94c-15.64-20.44-2.95-34.99-15.54-64.85
					c-11.56-27.41-29.43-32.12-63.92-62.72c-23-20.4-53.28-47.26-70.39-83.04c-29.71-62.09-8.94-128.38-1.9-147.77
					c22.6-62.32,68.23-95.18,84.76-105.94c-1.59-1.72-3.47-3.67-5.48-5.73c-108.94,14.97-172.46,77.92-180.31,96.56
					c-18.16,43.09,10.59,58.92,11.33,183.18c0.35,59.4-6.05,82.85,13.22,107.64c22.04,28.35,47.44,19.58,79.31,56.65
					c24.49,28.48,20.57,46.54,43.43,58.54c24.59,12.9,40.25-2.14,67.98,3.78c46.33,9.88,56.24,63.3,86.87,92.53
					c23.16,22.1,65.99,37.55,150.44,20.97c1.95-2.84,2.9-5.62,2.52-8.22C3208.7,2599.34,3157.58,2611.19,3119.02,2574.69z"/>
			</g>
			<g>
				
					<linearGradient id="SVGID_00000013886373249473728950000003446968473560217487_" gradientUnits="userSpaceOnUse" x1="2730.4214" y1="1961.9323" x2="2894.8379" y2="2967.406">
					<stop  offset="0" style="stop-color:#AA80F9"/>
					<stop  offset="0.9964" style="stop-color:#6165D7"/>
				</linearGradient>
				<path style="fill:url(#SVGID_00000013886373249473728950000003446968473560217487_);" d="M2647.17,2107.58
					c0,0,119.34-155.83,187.18-172.88c-15.94-6.67-33.41-12.45-52.57-16.51c-53.9-11.42-97.42-5.19-125.34,0.72
					C2650.04,1939.45,2624.93,2026.32,2647.17,2107.58z"/>
			</g>
			<path class="st0" d="M2789.02,2134.21c-11.58,24.59,41.64,81.87,100.78,109.07c12.05,5.54,98.59,45.33,137.16,7.07
				c31.87-31.62,11.3-97,3.96-120.34c-36.06-114.61-146.79-172.91-193.2-193.94c-34.63,86.6-14.24,125.19-6.21,137.24
				c8.39,12.59,31.79,39.03,56.65,62.32c17.49,16.38,28.38,24.36,26.91,26.91c-1.82,3.18-22.32-2.83-101.93-41.58
				C2803.91,2122.45,2792.97,2125.81,2789.02,2134.21z"/>
			
				<linearGradient id="SVGID_00000119832694258873364830000002707702927782142119_" gradientUnits="userSpaceOnUse" x1="2732.0667" y1="1934.2323" x2="2837.0242" y2="1781.8745">
				<stop  offset="0" style="stop-color:#FFC444"/>
				<stop  offset="0.9964" style="stop-color:#F36F56"/>
			</linearGradient>
			<path style="fill:url(#SVGID_00000119832694258873364830000002707702927782142119_);" d="M2746.42,1850.85
				c0,0,5.49,43.92,21.7,53.99c16.21,10.06,42.42,23.2,45.31,26.77c2.89,3.56-100.43,14.67-151.62-11.16l0,0
				c16.87-3.52,21.46-4.81,21.46-4.81c4.58-1.29,13.12-3.7,21.68-8.58c5.83-3.32,15.22-9.8,23.84-22.05l-0.19-24.32L2746.42,1850.85
				z"/>
			
				<linearGradient id="SVGID_00000079481944915288149100000008477272015317540018_" gradientUnits="userSpaceOnUse" x1="2722.5532" y1="1856.9526" x2="2888.4563" y2="1757.0721">
				<stop  offset="0" style="stop-color:#FFC444"/>
				<stop  offset="0.9964" style="stop-color:#F36F56"/>
			</linearGradient>
			<path style="fill:url(#SVGID_00000079481944915288149100000008477272015317540018_);" d="M2748.88,1866.4
				c0,0-10.57,14.51-27.15,8.46c-14.84-5.41-5.98-43.75,5.79-48.12c3.93-1.46,11.14-0.81,15.96,2.19
				c3.39,2.11,12.44,13.36,7.25,25.96c3.75-1.09,7.05-0.1,7.88,1.76c1.05,2.36-2.13,5.56-2.84,6.29
				C2753.28,1865.47,2750.27,1866.17,2748.88,1866.4z"/>
			
				<linearGradient id="SVGID_00000031195337649342588110000012973708026051831985_" gradientUnits="userSpaceOnUse" x1="2644.6616" y1="2478.2776" x2="2664.8884" y2="2300.7288">
				<stop  offset="0" style="stop-color:#FF9085"/>
				<stop  offset="1" style="stop-color:#FB6FBB"/>
			</linearGradient>
			<path style="fill:url(#SVGID_00000031195337649342588110000012973708026051831985_);" d="M2592.12,1990.47l140.92,13.2
				c2.95,0.28,5.44,2.34,6.25,5.19l52.59,183.63c1.39,4.86-2.52,9.6-7.56,9.16l-142.08-12.54c-2.99-0.26-5.5-2.35-6.31-5.24
				l-51.43-184.29C2583.15,1994.72,2587.09,1990,2592.12,1990.47z"/>
			
				<linearGradient id="SVGID_00000131338307072799102160000000829194838219354763_" gradientUnits="userSpaceOnUse" x1="2767.9497" y1="2089.8545" x2="2839.4778" y2="2527.2781">
				<stop  offset="0" style="stop-color:#FFC444"/>
				<stop  offset="0.9964" style="stop-color:#F36F56"/>
			</linearGradient>
			<path style="fill:url(#SVGID_00000131338307072799102160000000829194838219354763_);" d="M2809.12,2128.46
				c0,0-48.53-49.66-68.28-56.99c-19.75-7.34-2.26,45.04,9.31,52.43c11.57,7.39,16.09,10.21,25.12,11.34
				c9.03,1.13,9.03,1.13,9.03,1.13l11.85,6.32C2796.15,2142.68,2811.38,2140.87,2809.12,2128.46z"/>
			
				<linearGradient id="SVGID_00000129188861356049544040000011563661463615192741_" gradientUnits="userSpaceOnUse" x1="2606.3066" y1="2473.9067" x2="2626.5337" y2="2296.3582">
				<stop  offset="0" style="stop-color:#FF9085"/>
				<stop  offset="1" style="stop-color:#FB6FBB"/>
			</linearGradient>
			<path style="opacity:0.3;fill:url(#SVGID_00000129188861356049544040000011563661463615192741_);" d="M2685.92,2149.3
				c-5.31-29.03,11.06-51.54-4.63-78.74c-16.14-27.99-44.49-23.26-64.85-46.32c-6.48-7.34-12.3-17.74-15.15-32.91l-9.16-0.86
				c-5.03-0.47-8.97,4.24-7.61,9.11l51.43,184.29c0.81,2.89,3.32,4.98,6.31,5.24l72.15,6.37
				C2696.04,2179.01,2688.45,2163.15,2685.92,2149.3z"/>
		</g>
		<g>
			<g>
				<g>
					<g>
						
							<linearGradient id="SVGID_00000119091175795434546180000007763614823389403046_" gradientUnits="userSpaceOnUse" x1="2685.0903" y1="1066.149" x2="2736.512" y2="1017.176" gradientTransform="matrix(0.9992 -0.0396 0.0396 0.9992 158.4824 22.5709)">
							<stop  offset="0" style="stop-color:#FF9085"/>
							<stop  offset="1" style="stop-color:#FB6FBB"/>
						</linearGradient>
						<path style="fill:url(#SVGID_00000119091175795434546180000007763614823389403046_);" d="M3220.11,1042.38
							c8.67,218.49-162.22,400.78-383.7,407.22c-223.72,6.5-413.9-168.56-422.73-391.08c-8.83-222.51,167.18-404.91,391.05-407.36
							C3026.38,648.72,3211.45,823.89,3220.11,1042.38z"/>
						
							<linearGradient id="SVGID_00000001625772297796398420000002170635382193701771_" gradientUnits="userSpaceOnUse" x1="2527.248" y1="749.2466" x2="2704.3389" y2="1515.4758" gradientTransform="matrix(0.9992 -0.0396 0.0396 0.9992 158.4824 22.5709)">
							<stop  offset="0" style="stop-color:#FF9085"/>
							<stop  offset="1" style="stop-color:#FB6FBB"/>
						</linearGradient>
						<path style="fill:url(#SVGID_00000001625772297796398420000002170635382193701771_);" d="M3211.78,1042.55
							c8.49,213.93-158.86,392.39-375.7,398.65c-218.99,6.32-405.12-165.06-413.76-382.85c-8.64-217.79,163.61-396.35,382.75-398.79
							C3022.07,657.13,3203.3,828.61,3211.78,1042.55z"/>
						<path class="st97" d="M3171.5,1043.35c7.61,191.91-142.59,351.85-337.03,357.28c-196.17,5.48-362.75-148.12-370.48-343.12
							c-7.74-195.01,146.4-355.03,342.69-357.4C3001.25,697.77,3163.89,851.45,3171.5,1043.35z"/>
						<path class="st97" d="M2871.12,1324.32c-23.07-42.96-18.47-64.41-41.54-226.78c-34.34-241.62-57.02-282.02-75.39-307.32
							c-18.76-25.84-52.02-62.09-112.96-93.18c-134.82,63.84-225.22,202.21-218.91,361.31c8.64,217.79,194.77,389.17,413.76,382.85
							c42.3-1.22,82.7-8.99,120.26-22.28C2922.06,1394.31,2892.1,1363.38,2871.12,1324.32z"/>
					</g>
				</g>
				<g>
					<g>
						<path class="st0" d="M2801.55,811.86l-91.8,33.05c28.13,31.9,46.08,70.39,55.04,111.81l78.71-28.34
							c32.04-11.54,48.82-47.2,37.28-79.24l0,0C2869.26,817.1,2833.6,800.32,2801.55,811.86z"/>
						<path class="st98" d="M2809.66,888.88c-9.83,14.48-28.09,16.95-41.17,14.82c-29.88-7.02-68.34-15.06-88.63,4.56
							c-24.17,23.69-51.38,38.97-85.4,39.09c0.41,1.47,0.85,2.94,1.38,4.39c11.54,32.04,47.2,48.82,79.24,37.28l168.43-60.65
							c32.04-11.54,48.82-47.2,37.28-79.24c-2.14-5.94-5.11-11.36-8.73-16.17C2847.7,845.99,2826.44,864.41,2809.66,888.88z"/>
						
							<linearGradient id="SVGID_00000023262401753110926680000006762833010138294176_" gradientUnits="userSpaceOnUse" x1="2518.1763" y1="768.0381" x2="2782.6836" y2="1025.0735" gradientTransform="matrix(0.9409 -0.3388 0.3388 0.9409 -86.0092 989.5967)">
							<stop  offset="0" style="stop-color:#AA80F9"/>
							<stop  offset="0.9964" style="stop-color:#6165D7"/>
						</linearGradient>
						<path style="fill:url(#SVGID_00000023262401753110926680000006762833010138294176_);" d="M2709.76,844.91l-76.63,27.59
							c-32.04,11.54-48.82,47.2-37.28,79.24l0,0c11.54,32.04,47.2,48.82,79.24,37.28l89.71-32.3
							C2755.84,915.3,2737.89,876.81,2709.76,844.91z"/>
						
							<linearGradient id="SVGID_00000026858273607102640250000005209458589782763690_" gradientUnits="userSpaceOnUse" x1="2535.9836" y1="895.977" x2="2695.6719" y2="895.977" gradientTransform="matrix(0.9409 -0.3388 0.3388 0.9409 -86.0092 989.5967)">
							<stop  offset="0" style="stop-color:#FF9085"/>
							<stop  offset="1" style="stop-color:#FB6FBB"/>
						</linearGradient>
						<path style="opacity:0.3;fill:url(#SVGID_00000026858273607102640250000005209458589782763690_);" d="M2745.17,898.75
							c-24.46-4.35-50.03-5.25-65.31,9.52c-24.17,23.69-51.38,38.97-85.4,39.09c0.19,0.68,0.39,1.35,0.6,2.03
							c0.25,0.79,0.5,1.58,0.78,2.36c11.54,32.04,47.2,48.82,79.24,37.28l89.71-32.3C2760.44,936.56,2753.93,917.1,2745.17,898.75z"
							/>
					</g>
					<g>
						<path class="st0" d="M3032.08,1003.21l-96.37-15.22c9.3,41.51,6.5,83.88-5.58,124.5l82.64,13.05
							c33.64,5.31,65.51-17.86,70.82-51.5l0,0C3088.9,1040.39,3065.72,1008.52,3032.08,1003.21z"/>
						<path class="st98" d="M3002.1,1074.62c-15.59,7.96-32.78,1.34-43.22-6.83c-22.81-20.54-52.65-46.1-79.88-38.67
							c-32.59,9.13-63.79,9.42-93.66-6.85c-0.35,1.48-0.66,2.98-0.91,4.51c-5.31,33.64,17.86,65.51,51.5,70.82l176.82,27.93
							c33.64,5.31,65.51-17.86,70.82-51.5c0.99-6.24,0.99-12.42,0.13-18.37C3056.1,1055.34,3028.59,1061.25,3002.1,1074.62z"/>
						
							<linearGradient id="SVGID_00000150103813912510090950000013506385256532718984_" gradientUnits="userSpaceOnUse" x1="2811.5906" y1="938.2608" x2="3076.0969" y2="1195.2954" gradientTransform="matrix(0.9878 0.156 -0.156 0.9878 152.2883 -445.0218)">
							<stop  offset="0" style="stop-color:#FF9085"/>
							<stop  offset="1" style="stop-color:#FB6FBB"/>
						</linearGradient>
						<path style="fill:url(#SVGID_00000150103813912510090950000013506385256532718984_);" d="M2935.71,987.99l-80.45-12.71
							c-33.64-5.31-65.51,17.86-70.82,51.5l0,0c-5.31,33.64,17.86,65.51,51.5,70.82l94.19,14.88
							C2942.21,1071.87,2945.01,1029.49,2935.71,987.99z"/>
						
							<linearGradient id="SVGID_00000143601036954790178640000009832784301042891672_" gradientUnits="userSpaceOnUse" x1="2829.3979" y1="1066.1992" x2="2989.0854" y2="1066.1992" gradientTransform="matrix(0.9878 0.156 -0.156 0.9878 152.2883 -445.0218)">
							<stop  offset="0" style="stop-color:#FF9085"/>
							<stop  offset="1" style="stop-color:#FB6FBB"/>
						</linearGradient>
						<path style="opacity:0.3;fill:url(#SVGID_00000143601036954790178640000009832784301042891672_);" d="M2940.83,1052.22
							c-19.35-15.58-41.32-28.69-61.82-23.1c-32.59,9.13-63.79,9.42-93.66-6.85c-0.16,0.68-0.31,1.37-0.45,2.07
							c-0.16,0.81-0.32,1.62-0.45,2.45c-5.31,33.64,17.86,65.51,51.5,70.82l94.19,14.88
							C2936.01,1092.71,2939.67,1072.52,2940.83,1052.22z"/>
					</g>
				</g>
			</g>
			<g>
				
					<linearGradient id="SVGID_00000065761156675527036030000009908191295843046037_" gradientUnits="userSpaceOnUse" x1="2644.7246" y1="1205.2332" x2="2847.0247" y2="1205.2332">
					<stop  offset="0" style="stop-color:#D8DEE8"/>
					<stop  offset="0.9964" style="stop-color:#97A6B7"/>
				</linearGradient>
				<path style="fill:url(#SVGID_00000065761156675527036030000009908191295843046037_);" d="M2845.89,1204.57
					c8.81,51.06-35.11,94.29-87.02,99.18c-52.83,4.98-103.72-33.66-112.82-86.38c-9.09-52.72,29.4-107.63,82.52-110.93
					C2780.77,1103.19,2837.09,1153.51,2845.89,1204.57z"/>
				<path class="st0" d="M2848.76,1191.83c8.81,51.06-25.47,96.36-77.38,101.25c-52.83,4.98-103.73-33.66-112.82-86.38
					c-9.09-52.72,27.3-98.18,80.42-101.49C2791.17,1101.97,2839.95,1140.77,2848.76,1191.83z"/>
				<path class="st104" d="M2762.18,1285.18c-22.1,0-44.05-8.12-61.8-22.86c-17.89-14.86-29.82-35.11-33.6-57.03
					c-3.97-23,1.38-45.21,15.07-62.52c13.75-17.4,34.23-27.78,57.66-29.24c1.85-0.11,3.74-0.17,5.6-0.17
					c45.8,0,87.73,35.09,95.45,79.89c3.88,22.49-1.25,44.36-14.43,61.59c-13.14,17.18-32.86,27.81-55.52,29.95
					C2767.81,1285.05,2764.98,1285.18,2762.18,1285.18z"/>
				<path class="st105" d="M2741.67,1120.85c-4.78,0.31-8.01,4.39-7.19,9.1l23.64,137.1c0.81,4.72,5.34,8.19,10.1,7.76
					c4.75-0.43,7.94-4.6,7.13-9.3l-23.58-136.71C2750.97,1124.1,2746.45,1120.54,2741.67,1120.85z"/>
				<path class="st104" d="M2775.36,1265.51l-23.58-136.71c-0.81-4.7-5.33-8.27-10.11-7.96c-1.64,0.11-3.09,0.66-4.27,1.53
					c0.28-0.05,0.56-0.08,0.85-0.1c4.77-0.31,9.3,3.25,10.11,7.96l23.58,136.71c0.54,3.16-0.72,6.07-3.04,7.77
					C2773.27,1273.97,2776.13,1269.99,2775.36,1265.51z"/>
			</g>
		</g>
	</g>
</g>
</svg>
