<svg xmlns="http://www.w3.org/2000/svg" viewBox="0 0 694.45 674.61"><defs><style>.cls-1{fill:#53ade4;}</style></defs><g id="Layer_2" data-name="Layer 2"><g id="Layer_1-2" data-name="Layer 1"><circle class="cls-1" cx="389.13" cy="86.21" r="9.07"/><circle class="cls-1" cx="305.32" cy="86.21" r="9.07"/><path class="cls-1" d="M504.74,389.18a15,15,0,0,0-15,15v15.19a29,29,0,0,1-58.05,0V84.47a84.47,84.47,0,1,0-168.93,0V418.81a29,29,0,0,1-58,0V403.62a15,15,0,0,0-30,0v15.19a59,59,0,0,0,118,0V343.65h0a10.89,10.89,0,1,1,21.77,0V506.13a12.5,12.5,0,0,0,25,0V372.45a7.67,7.67,0,1,1,15.33,0h0V505.13a12.5,12.5,0,0,0,25,0V343.65a10.89,10.89,0,1,1,21.77,0h0v75.72a59,59,0,0,0,118.05,0V404.18A15,15,0,0,0,504.74,389.18ZM389.13,66.73a19.48,19.48,0,1,1-19.48,19.48A19.48,19.48,0,0,1,389.13,66.73Zm-83.81,0a19.48,19.48,0,1,1-19.47,19.48A19.48,19.48,0,0,1,305.32,66.73Zm109.3,182.45a67.4,67.4,0,1,1-134.79,0v-84.9H414.62Z"/></g></g></svg>