<?xml version="1.0" encoding="utf-8"?>
<!-- Generator: Adobe Illustrator 25.4.1, SVG Export Plug-In . SVG Version: 6.00 Build 0)  -->
<svg version="1.1" xmlns="http://www.w3.org/2000/svg" xmlns:xlink="http://www.w3.org/1999/xlink" x="0px" y="0px"
	 viewBox="0 0 3710 3710" style="enable-background:new 0 0 3710 3710;" xml:space="preserve">
<style type="text/css">
	.st0{fill:#FFFFFF;}
	.st1{fill:#F4F7FA;}
	.st2{fill:url(#SVGID_1_);}
	.st3{clip-path:url(#SVGID_00000101081127185668761130000005443499094011670448_);}
	.st4{fill:#FCFDFE;}
	
		.st5{clip-path:url(#SVGID_00000108987930475493224410000017041649475991273870_);fill:url(#SVGID_00000026862762012581173490000001637195341312762277_);}
	.st6{clip-path:url(#SVGID_00000108987930475493224410000017041649475991273870_);}
	.st7{fill:url(#SVGID_00000042735976074956701760000013824683413278000534_);}
	.st8{fill:url(#SVGID_00000106114891434781396830000009516641314299420331_);}
	.st9{opacity:0.5;fill:#D8DEE8;}
	.st10{fill:#BFC8D6;}
	.st11{fill:url(#SVGID_00000160149385369887887670000014044900075494376076_);}
	.st12{fill:url(#SVGID_00000005972469475749176290000006276891378973122437_);}
	.st13{fill:url(#SVGID_00000085242699462994499990000014860342325078101670_);}
	.st14{fill:url(#SVGID_00000169557716762155833130000002600116668075133850_);}
	.st15{fill:url(#SVGID_00000106837824669817949420000001840096043026266295_);}
	.st16{fill:url(#SVGID_00000152249165870232428690000010542134702694648234_);}
	.st17{fill:url(#SVGID_00000101796833814122811140000002684349858555857808_);}
	.st18{opacity:0.3;fill:url(#SVGID_00000146499736569346240150000008934535890586772626_);}
	.st19{fill:url(#SVGID_00000048492071978879495060000010750089089645350569_);}
	.st20{fill:url(#SVGID_00000000215339427403437670000016384066016492935834_);}
	.st21{fill:url(#SVGID_00000036953431941772883380000015788062640226031543_);}
	.st22{fill:url(#SVGID_00000018218733442961478780000010604129937553527719_);}
	.st23{fill:url(#SVGID_00000159460236615357907520000006269994806039430792_);}
	.st24{fill:url(#SVGID_00000025438625804251077990000002649906656051475611_);}
	.st25{fill:url(#SVGID_00000135666696701580244530000016526498158038007225_);}
	.st26{fill:url(#SVGID_00000057833167160610210050000013857862265722731442_);}
	.st27{opacity:0.3;fill:url(#SVGID_00000075855230454326908870000017120003110452713140_);}
	.st28{fill:url(#SVGID_00000149366412994844269310000002534430955488731313_);}
	.st29{fill:url(#SVGID_00000128453106524202112550000006277341937726286248_);}
	.st30{fill:url(#SVGID_00000091728771093459728750000004192543078465275060_);}
	.st31{fill:url(#SVGID_00000067942245525124380310000007760116681187385741_);}
	.st32{opacity:0.3;fill:url(#SVGID_00000016046356626174817540000008448611769742956693_);}
	.st33{fill:url(#SVGID_00000183217204783906089320000004619449079263825850_);}
	.st34{fill:url(#SVGID_00000060743833128680169780000005412579064791451549_);}
	.st35{fill:url(#SVGID_00000039848942358747740220000004877178845890061456_);}
	.st36{fill:url(#SVGID_00000104704625238406512260000010544917290605502884_);}
	.st37{fill:url(#SVGID_00000122712784807063737220000015248699420206118829_);}
	.st38{fill:url(#SVGID_00000124867531026117345780000006254995711747069330_);}
	.st39{fill:url(#SVGID_00000167368790519848335730000010548189893363900323_);}
	.st40{opacity:0.3;fill:url(#SVGID_00000178888120265934327670000013228502077782035123_);}
	.st41{fill:url(#SVGID_00000018224315563953000950000009573295907640449160_);}
	.st42{fill:url(#SVGID_00000026848515918385847100000009720191419076389817_);}
	.st43{fill:url(#SVGID_00000175314409409603136520000012755051828760411800_);}
	.st44{fill:url(#SVGID_00000025435764439952546150000013077768186387492524_);}
	.st45{fill:url(#SVGID_00000164482338604467974140000004751885276110703799_);}
	.st46{fill:url(#SVGID_00000038397973917700759370000004327292553566905767_);}
	.st47{fill:url(#SVGID_00000109718511722864561870000004994532580561098880_);}
	.st48{fill:url(#SVGID_00000073000513894758172260000008533002182347916709_);}
	.st49{fill:url(#SVGID_00000052098773016213274460000012231902620695036310_);}
	.st50{fill:url(#SVGID_00000179630447591675164620000008879991782439390115_);}
	.st51{fill:url(#SVGID_00000060718580397872060150000007707035887484487842_);}
	.st52{fill:url(#SVGID_00000039823299359640520620000010805609839030314927_);}
	.st53{fill:url(#SVGID_00000111899129770081843580000006062774038727253427_);}
	.st54{fill:#26264F;}
	.st55{fill:url(#SVGID_00000095322646060203204370000012666100575893785496_);}
	.st56{fill:url(#SVGID_00000108310404053416328020000008386425505090084993_);}
	.st57{fill:url(#SVGID_00000012458012960182463020000016708643562866269579_);}
</style>
<g id="Background">
	<g>
		<g>
			<rect class="st0" width="3710" height="3710"/>
		</g>
	</g>
</g>
<g id="Illustration">
	<g>
		<path class="st1" d="M3219.74,1604.55c-78.53-514-400.49-1145.48-1036.56-1211.56c0,0-482.93-58.74-959,30.29
			c-282.55,52.84-530.3,210.13-687.06,436.19c-156.77,226.06-209.13,501.72-145.58,764.52c41.28,170.69,69.17,347.35,61.51,522.75
			c-13.32,305.26-5.66,590.2,290.59,772.25c264.51,162.55,597.41,305.91,915,331.02c215.83,17.06,457.87-10.55,665.89-66.74
			C3384.65,2896.88,3298.27,2118.55,3219.74,1604.55z"/>
		<g>
			<g>
				
					<linearGradient id="SVGID_1_" gradientUnits="userSpaceOnUse" x1="-4127.8882" y1="-2835.2815" x2="-3663.7825" y2="131.6872" gradientTransform="matrix(-0.6654 -0.7465 -0.7465 0.6654 -1586.514 940.047)">
					<stop  offset="3.597120e-03" style="stop-color:#E38DDD"/>
					<stop  offset="1" style="stop-color:#9571F6"/>
				</linearGradient>
				<path class="st2" d="M2119.07,3125.46c-16.04-5.6-45.99-31.92-50.97-42c-33.14-67.08-103.35-188.65-82.55-264.96
					c3.55-13.03,65.11-12.88,75.92-23.25c39.27-9.43,53.48-10.26,86.4-37.56c97.21-80.6-39.86-299.17,177.52-320.15
					c159.23-15.36,274.58,62.64,307.29-172.65c32.71-235.3,305.5-619.22,516.36-405.94c121.02,122.4-63.14,289.61-21.42,450.29
					c39.64,152.69-42.89,254.16-207.19,306.23s-99.26,132.35-84.22,272.69c18.08,168.58-230.54,145.48-344.41,125.03
					C2400.11,2996.72,2155.51,3016.64,2119.07,3125.46z"/>
				<g>
					<defs>
						<path id="SVGID_00000061432822684938917580000007150802143487255466_" d="M1952.41,2790.69
							c12.44,116.1,20.31,234.76,32.2,351.75c63.88,18.94,139.49,39.66,170.67-37.22c43.36-106.89,245.23-109.14,336.76-92.19
							c113.29,20.97,362.38,43.55,344.19-124.89c-15.14-140.23-80.07-220.62,84.21-272.67c164.28-52.04,246.79-153.54,207.18-306.24
							c-41.69-160.69,142.4-327.81,21.42-450.28c-210.82-213.41-483.76,170.88-516.3,405.86
							c-32.54,234.98-148.64,158.27-307.2,172.5c-216.46,19.44-82.78,243.62-176.63,318.4
							C2075.33,2814.33,2031.83,2791.65,1952.41,2790.69z"/>
					</defs>
					<clipPath id="SVGID_00000049934473862192898360000006172065269490738576_">
						<use xlink:href="#SVGID_00000061432822684938917580000007150802143487255466_"  style="overflow:visible;"/>
					</clipPath>
					<g style="clip-path:url(#SVGID_00000049934473862192898360000006172065269490738576_);">
						<path class="st4" d="M2027.47,2958.03l-0.86-3.42c271.15-68.13,514.12-217.48,702.63-431.91
							c179.37-204.03,307.07-462.66,369.29-747.93l3.44,0.75c-62.35,285.85-190.32,545.03-370.09,749.5
							C2542.9,2740,2299.32,2889.73,2027.47,2958.03z"/>
						<path class="st4" d="M2851.8,2957.32c-131.74-76.19-368.19-127.24-527.03-113.79l-0.3-3.51
							c159.47-13.5,396.82,37.76,529.08,114.25L2851.8,2957.32z"/>
						<path class="st4" d="M2133.08,2930.21l-1.77-3.05c71.63-41.68,119.44-117.97,142.1-226.76c16.61-79.76,19.57-174.8,8.79-282.5
							l3.5-0.35c10.82,108.06,7.85,203.46-8.84,283.57C2254,2810.93,2205.62,2888.01,2133.08,2930.21z"/>
						<path class="st4" d="M2756.29,2495.01l-1.92-2.95c130.95-85.49,295.35-81.15,410.21-62.45l-0.56,3.47
							C3049.76,2414.5,2886.29,2410.14,2756.29,2495.01z"/>
						<path class="st4" d="M2953.82,2196.44l-3.38-0.97c20.88-72.7,40.49-225.15-62.76-429.41l3.14-1.59
							C2994.61,1969.81,2974.84,2123.25,2953.82,2196.44z"/>
					</g>
				</g>
			</g>
		</g>
		<g>
			<g>
				<defs>
					<path id="SVGID_00000170984274752512997220000011128233445862319765_" d="M2325.84,3195.12
						c-86.48-12.72-172.86-27.42-259.09-44.11c-1.4,1.27-29.75-186.7,59.54-285.28c176.56-190.97,57.63-362.36,23.71-463.92
						c-54.29-143.21-26.47-317.27,131.27-284.66c153.67,28.08,176.98-288.28,150.45-532c-22.64-118.62,89.28-262.54,200.97-295.43
						c114.02-36.44,227.8,38.15,262.67,274.59c52.79,273.76-147,438.85-220.98,576.1c-72.79,134.74,96.54,243.75-39.75,363.13
						c-114.64,106.08-259.14,182.33-206.28,315.58C2482.64,2950.86,2469.64,3058.57,2325.84,3195.12z"/>
				</defs>
				<clipPath id="SVGID_00000118367543696142872900000015286824364355130785_">
					<use xlink:href="#SVGID_00000170984274752512997220000011128233445862319765_"  style="overflow:visible;"/>
				</clipPath>
				
					<linearGradient id="SVGID_00000162353651761353711280000006339891588982547625_" gradientUnits="userSpaceOnUse" x1="78.2588" y1="-856.4518" x2="-542.647" y2="908.2294" gradientTransform="matrix(-0.8674 -0.4976 -0.4976 0.8674 2274.7078 2110.0093)">
					<stop  offset="0" style="stop-color:#FF9085"/>
					<stop  offset="1" style="stop-color:#FB6FBB"/>
				</linearGradient>
				
					<path style="clip-path:url(#SVGID_00000118367543696142872900000015286824364355130785_);fill:url(#SVGID_00000162353651761353711280000006339891588982547625_);" d="
					M2325.84,3195.12c-86.48-12.72-172.86-27.42-259.09-44.11c-1.4,1.27-29.75-186.7,59.54-285.28
					c176.56-190.97,57.63-362.36,23.71-463.92c-53.75-143.1-25.48-298.06,120.17-300.35c161.54-5.7,190.83-273.08,161.55-516.31
					c-22.64-118.62,89.28-262.54,200.97-295.43c114.02-36.44,227.8,38.15,262.67,274.59c52.79,273.76-147,438.85-220.98,576.1
					c-72.79,134.74,96.54,243.75-39.75,363.13c-114.64,106.08-259.14,182.33-206.28,315.58
					C2482.64,2950.86,2469.64,3058.57,2325.84,3195.12z"/>
				<g style="clip-path:url(#SVGID_00000118367543696142872900000015286824364355130785_);">
					<path class="st4" d="M2210.2,3206.28l-3.52-0.05c-0.02-1.67,82.63-397.15,225.1-781.99c19.68-62.32,41.05-125.17,61.73-185.95
						c55.36-162.76,112.61-331.06,139.79-498.63c30.39-187.31,19.56-356.01-33.11-515.74l3.34-1.1
						c52.84,160.28,63.72,329.53,33.24,517.41c-27.23,167.86-84.53,336.31-139.94,499.2c-20.67,60.76-42.04,123.6-61.73,185.96
						C2291.51,2813.27,2210.41,3203.98,2210.2,3206.28z"/>
					<path class="st4" d="M2596.92,1923.74l-2.62-2.36c96.4-107.1,212.71-259.31,275.2-341.09c50.32-65.85,50.59-65.71,52.66-65.42
						l-0.54,3.48l0.27-1.74l0.72,1.57c-2.55,1.75-23.63,29.34-50.31,64.25C2809.78,1664.25,2693.41,1816.53,2596.92,1923.74z"/>
					<path class="st4" d="M2626.05,1776.83c-19.94-122.76-70.5-203.5-109.39-249.62c-42.95-50.93-82.53-73.14-86.57-73.64
						c0.01,0,0.39,0.04,0.84-0.25l-1.96-2.93c0.89-0.59,1.91-0.45,4.26,0.57c10.67,4.64,50.56,29.59,92.41,81.6
						c52.7,65.5,88.62,149.77,103.88,243.7L2626.05,1776.83z"/>
					<path class="st4" d="M2350.5,2676.01l-3.49-0.42c13.59-114.21-13.02-237.07-79.11-365.15
						c-34.47-66.8-78.42-132.24-130.65-194.5c-3.78-4.51-5.11-6.11-5.53-6.83l3.05-1.77c0.31,0.52,2.46,3.09,5.19,6.34
						c52.39,62.46,96.49,128.12,131.08,195.14C2337.45,2437.54,2364.19,2561.08,2350.5,2676.01z"/>
					<path class="st4" d="M2389.47,2555.76l-2.99-1.85c101.76-164.41,314.38-178.59,323.84-178.59c0.18,0,0.28,0.01,0.31,0.01
						l1.31,1.65l-1.2,1.73l-0.56-1.65l-0.15,1.72c-0.01,0-0.01,0-0.03,0C2706.52,2378.78,2491.52,2390.89,2389.47,2555.76z
						 M2709.62,2375.38l0.56,1.66L2709.62,2375.38z"/>
					<path class="st4" d="M2224.64,3141.78l-3.52-0.13c1.83-49.72-15.95-134.48-111-255.9c-5.17-6.6-5.17-6.6-5.03-7.58l3.49,0.5
						l-1.74-0.25l1.61-0.66c0.27,0.5,2.2,2.97,4.44,5.82C2208.6,3005.84,2226.48,3091.47,2224.64,3141.78z"/>
					<path class="st4" d="M2246.59,3048.11l-3.38-0.98c10.96-37.82,54.1-111.92,219.87-183.29c2.29-0.99,3.77-1.62,4.29-1.89
						l1.61,3.13c-0.55,0.29-2.1,0.96-4.51,1.99C2300.03,2937.86,2257.38,3010.88,2246.59,3048.11z"/>
				</g>
			</g>
		</g>
		<g>
			<g>
				
					<linearGradient id="SVGID_00000127760133360514644890000014075986484771095991_" gradientUnits="userSpaceOnUse" x1="1849.5251" y1="4524.062" x2="1867.8251" y2="2199.78">
					<stop  offset="0" style="stop-color:#311944"/>
					<stop  offset="1" style="stop-color:#893976"/>
				</linearGradient>
				<path style="fill:url(#SVGID_00000127760133360514644890000014075986484771095991_);" d="M2603.55,3039.81l-381.42,11.84
					c-105.34-6.09-226.49-4.18-355.7-0.44c-129.6,3.75-251.79,9.46-358.48,21.76l-391.29,11.56v79.45h0.05
					c-0.01,0-0.05,0.08-0.05,0.23c0,50.75,337.93,81.34,751.19,68.52c409.35-12.7,737.72-65.95,736.94-115.81
					c0-0.15-0.06-3.04-0.07-3.04L2603.55,3039.81z"/>
				
					<linearGradient id="SVGID_00000065785792435811409390000008291141589644581814_" gradientUnits="userSpaceOnUse" x1="1983.1348" y1="2718.5579" x2="1586.9347" y2="3826.1128">
					<stop  offset="0" style="stop-color:#311944"/>
					<stop  offset="1" style="stop-color:#893976"/>
				</linearGradient>
				<path style="fill:url(#SVGID_00000065785792435811409390000008291141589644581814_);" d="M2603.58,3040.75
					c0.78,49.78-327.34,100.07-736.35,112.38c-412.92,12.43-750.56-18.52-750.56-69.19c0-50.61,337-101.04,749.13-112.58
					C2274.05,2959.93,2602.81,2991.02,2603.58,3040.75z"/>
			</g>
			<path class="st9" d="M2122.98,1867.96l-189.06,148.7l192.94,143.57c215.4,160.01,343.47,413.41,347.37,686.46l2.67,187.11
				c0.05,3.5-3.07,6.48-8.36,10l-582.66-13.71l-39.25,1.12l-591.58,47.83c-5.5-3.25-7.27-6.14-7.28-9.69l-0.26-189.85
				c-0.38-277.04,126.69-539.34,343.25-709.26l191-150.2l-192.83-143.92c-216.79-160.95-343.37-414.09-343.73-682.95l-0.27-192.84
				l587.29,24.91l38.73-0.21l576.85-30.92l2.71,190.16C2454.29,1449.38,2333.5,1702.29,2122.98,1867.96z"/>
			<path class="st10" d="M2476.15,3033.76c0.05,3.5-2.69,7-7.98,10.52c-47.14,31.07-297.97,61.18-602.59,70.22
				c-306.78,9.1-563.04-6.28-611.94-34.94c-5.5-3.25-8.37-6.64-8.37-10.19c-0.05-35.06,278.32-71.29,619.33-80.91
				C2202.93,2978.92,2475.66,2999.21,2476.15,3033.76z"/>
			
				<linearGradient id="SVGID_00000103222570631709417930000011933081413109081756_" gradientUnits="userSpaceOnUse" x1="1865.0536" y1="1654.7772" x2="1832.8419" y2="4288.1968">
				<stop  offset="0" style="stop-color:#FFC444"/>
				<stop  offset="0.9964" style="stop-color:#F36F56"/>
			</linearGradient>
			<polygon style="fill:url(#SVGID_00000103222570631709417930000011933081413109081756_);" points="1875.87,2470 1844.43,2470.7 
				1840.52,1961.52 1871.79,1961.01 			"/>
			
				<linearGradient id="SVGID_00000032627676795094029140000012123559722817249431_" gradientUnits="userSpaceOnUse" x1="1856.6111" y1="1448.048" x2="1835.0541" y2="3210.4133">
				<stop  offset="0" style="stop-color:#FFC444"/>
				<stop  offset="0.9964" style="stop-color:#F36F56"/>
			</linearGradient>
			<path style="fill:url(#SVGID_00000032627676795094029140000012123559722817249431_);" d="M1855.5,1661.94l-362.49,4.66
				l18.86,31.38c0,0,134.7,192.78,346.24,296.3c208.84-110.02,338.8-305.27,338.8-305.27l18.07-31.69L1855.5,1661.94z"/>
			
				<linearGradient id="SVGID_00000001651629383265438160000005323415243823553715_" gradientUnits="userSpaceOnUse" x1="1966.1375" y1="358.7295" x2="1784.6237" y2="2457.4873">
				<stop  offset="0" style="stop-color:#FFC444"/>
				<stop  offset="0.9964" style="stop-color:#F36F56"/>
			</linearGradient>
			<path style="fill:url(#SVGID_00000001651629383265438160000005323415243823553715_);" d="M2214.91,1651.3
				c0.22,18.97-160.22,36.48-359.19,39.1c-199.88,2.64-362.66-10.74-362.74-29.87c-0.08-19.13,162.46-36.64,362.2-39.12
				C2054,1618.95,2214.69,1632.34,2214.91,1651.3z"/>
			
				<linearGradient id="SVGID_00000133487640565729605410000011950174775743844529_" gradientUnits="userSpaceOnUse" x1="1859.272" y1="2429.0488" x2="1859.2662" y2="2429.5166">
				<stop  offset="0" style="stop-color:#FFC444"/>
				<stop  offset="0.9964" style="stop-color:#F36F56"/>
			</linearGradient>
			<path style="fill:url(#SVGID_00000133487640565729605410000011950174775743844529_);" d="M1859.27,2429.19
				c-0.14-0.04,0-0.09,0-0.09S1859.41,2429.15,1859.27,2429.19z"/>
			
				<linearGradient id="SVGID_00000114033830227995739960000016829107549157497223_" gradientUnits="userSpaceOnUse" x1="1874.1495" y1="2031.3063" x2="1832.2523" y2="5456.5498">
				<stop  offset="0" style="stop-color:#FFC444"/>
				<stop  offset="0.9964" style="stop-color:#F36F56"/>
			</linearGradient>
			<path style="fill:url(#SVGID_00000114033830227995739960000016829107549157497223_);" d="M2368.24,3036.63
				c-179.21,40.06-458.61,52.38-499.27,53.57c0,0-2.67,0.08-4.52,0.13c-1.85,0.05-4.52,0.13-4.52,0.13
				c-21.62,0.64-111.05,2.11-217.69-1.11c-94.04-2.91-201.27-9.36-287.11-23.33c-0.18,0.01,0.43-0.65,0.43-0.7c0,0,0-0.05,0-0.14
				c0-1.15,0-9.27,0-22.27c0-0.05,0-0.05,0-0.09c3.85-66.29,13.64-257.87,47.05-299.23c39.78-49.23,443.52-305.29,456.92-314.27
				c13.54,8.4,417.15,244.45,456.88,291.21c10.68,12.55,19.26,40.67,26.21,74.82c7.91,38.78,13.59,85.83,17.58,128.05
				C2366.06,2985.2,2368.24,3036.63,2368.24,3036.63z"/>
			<g>
				<path class="st0" d="M1511.46,1283.47c-4.28-119.53,6.07-206.32,6.07-206.32s-32.5-75.46-146.85-40.64
					c-29.9,88.26-41.62,173.03-40.02,248.49L1511.46,1283.47z"/>
				<path class="st0" d="M1514.22,1336.68l-180.37,1.63c40.36,397.02,428.04,624.44,428.04,624.44l91.97-1.5
					C1599.89,1862.14,1529.7,1558.98,1514.22,1336.68z"/>
			</g>
			<g>
				<path class="st0" d="M1525.8,3008.21l-163.08,4.62c-21.12-73.08-29.67-146.43-28.6-210.74l183.73-4.76
					C1514.59,2916.63,1525.32,3003.63,1525.8,3008.21z"/>
				<path class="st0" d="M1520.19,2742.36l-183.07,4.62c38.74-411.49,425.66-653.96,425.66-653.96l92.09-1.64
					C1601.65,2204.19,1533.91,2513.93,1520.19,2742.36z"/>
			</g>
			<g>
				
					<linearGradient id="SVGID_00000152237192645977408620000012631728062981802901_" gradientUnits="userSpaceOnUse" x1="1920.2186" y1="2110.406" x2="1828.9871" y2="821.7659">
					<stop  offset="0" style="stop-color:#311944"/>
					<stop  offset="1" style="stop-color:#893976"/>
				</linearGradient>
				<path style="fill:url(#SVGID_00000152237192645977408620000012631728062981802901_);" d="M2571.63,994.44l-373.33,2.25
					c-103.09-8.22-221.65-9.36-348.1-8.72c-126.82,0.64-246.37,3.23-350.75,12.58l-382.78,2.06v72.92h0.05
					c-0.01,0-0.05,1.32-0.05,1.47c0,48.56,330.56,86.14,734.89,83.28c400.59-2.83,722.01-44.06,721.27-91.81
					c0-0.15-0.05-0.66-0.05-0.66L2571.63,994.44z"/>
				
					<linearGradient id="SVGID_00000163790451517360532540000017576295092141185685_" gradientUnits="userSpaceOnUse" x1="1957.5396" y1="680.8015" x2="1592.3514" y2="1701.6641">
					<stop  offset="0" style="stop-color:#311944"/>
					<stop  offset="1" style="stop-color:#893976"/>
				</linearGradient>
				<path style="fill:url(#SVGID_00000163790451517360532540000017576295092141185685_);" d="M2571.65,993.91
					c0.74,47.67-320.42,88.33-720.69,90.81c-404,2.5-734.29-34.8-734.29-83.28c0-48.43,329.67-89.03,732.93-90.71
					C2249.12,909.07,2570.91,946.29,2571.65,993.91z"/>
			</g>
			
				<linearGradient id="SVGID_00000106149083492714255860000013419237466382544575_" gradientUnits="userSpaceOnUse" x1="1867.0939" y1="2607.5139" x2="1847.9412" y2="4173.3228">
				<stop  offset="0" style="stop-color:#FFC444"/>
				<stop  offset="0.9964" style="stop-color:#F36F56"/>
			</linearGradient>
			<path style="opacity:0.3;fill:url(#SVGID_00000106149083492714255860000013419237466382544575_);" d="M2368.24,3036.63
				c-179.21,40.06-458.61,52.38-499.27,53.57c0,0-2.67,0.08-4.52,0.13c-1.85,0.05-4.52,0.13-4.52,0.13
				c-21.62,0.64-111.05,2.11-217.69-1.11c-94.04-2.91-201.27-9.36-287.11-23.33c-0.18,0.01,0.43-0.65,0.43-0.7c0,0,0-0.05,0-0.14
				c0-1.15-0.64-9.26-0.08-22.28c100.91,0.1,310.88-7.3,401.94-66.43c121.43-78.88,222.7-83.96,355.49-62.48
				c108.99,17.65,187.79-43.31,229.68-118.64c7.9,38.78,13.58,85.83,17.62,128.05C2366.07,2985.2,2368.24,3036.63,2368.24,3036.63z"
				/>
		</g>
		<g>
			
				<linearGradient id="SVGID_00000158723455542316055660000007781627352477018039_" gradientUnits="userSpaceOnUse" x1="-1950.8573" y1="324.2351" x2="-1278.4653" y2="780.9538" gradientTransform="matrix(-1 0 0 1 314.5472 0)">
				<stop  offset="0" style="stop-color:#311944"/>
				<stop  offset="1" style="stop-color:#6B3976"/>
			</linearGradient>
			<path style="fill:url(#SVGID_00000158723455542316055660000007781627352477018039_);" d="M2228.46,567.17
				c12.65-8.2,1.12-32.06,0.44-83.3c-0.83-62.8,15.84-74.5,2.45-99.13c-16.38-30.13-57.61-42.59-84.93-43.18
				c-6.02-0.13-7.43-3.42-57.91,9.65c-90.94,23.55-113.71-1.7-154.43,23.52c-39.35,24.37-22.12,51.05-60.33,79.63
				c-61.93,46.32-127.06-3.76-171.32,34.99c-41.87,36.65-42.83,130.02,1.21,180.98c49.92,57.77,139.94,40.41,200.28,28.96
				c12.69-2.41,76.81-15.87,143.57-65.15c36.93-27.26,62.29-56.37,78.42-77.82c3.79-4.26,9.69-9.42,17.49-10.26
				c9.36-1,16.89,4.73,20.51,7.24C2182.95,566.48,2216.04,575.23,2228.46,567.17z"/>
			
				<linearGradient id="SVGID_00000100375714879174291180000000662076377565261995_" gradientUnits="userSpaceOnUse" x1="2307.7051" y1="102.9716" x2="2321.9622" y2="1906.584">
				<stop  offset="0" style="stop-color:#FF9085"/>
				<stop  offset="1" style="stop-color:#FB6FBB"/>
			</linearGradient>
			<path style="fill:url(#SVGID_00000100375714879174291180000000662076377565261995_);" d="M2142.92,503.43
				c16.26-14.82,109.02,17.27,147.49,55.17c45.19,44.53,41.71,80.63,81.15,135.95c19.6,27.5,53.21,64.53,112.77,96.96
				c-4.22,10.54-8.43,21.08-12.65,31.62c-28.79,1.73-85.32,0.71-138.06-33.72c-36.64-23.92-55.49-55.62-91.69-118.04
				C2205.59,608.72,2122.59,521.95,2142.92,503.43z"/>
			
				<linearGradient id="SVGID_00000029045510005562120350000004177076861118260126_" gradientUnits="userSpaceOnUse" x1="-1690.2662" y1="192.2695" x2="-1591.4502" y2="192.2695" gradientTransform="matrix(-0.831 -0.5562 -0.5562 0.831 1250.5945 279.3084)">
				<stop  offset="0" style="stop-color:#311944"/>
				<stop  offset="1" style="stop-color:#6B3976"/>
			</linearGradient>
			<path style="fill:url(#SVGID_00000029045510005562120350000004177076861118260126_);" d="M2532.85,1368.86l-18.49-39.29
				c-2.63-5.58-6.72-10.34-11.85-13.78l-9.16-6.13c0,0-21.89-0.58-25.3,13.18c-0.73,17.47,33.22,56.52,54.7,72.02
				c3.57,2.57,8.65,6,11.74,4.24C2539.72,1396.11,2536.05,1380.04,2532.85,1368.86z"/>
			
				<linearGradient id="SVGID_00000006695484658243468220000000985907485467047085_" gradientUnits="userSpaceOnUse" x1="-2206.7732" y1="1401.1299" x2="-2045.5237" y2="917.3799" gradientTransform="matrix(-1 0 0 1 314.5472 0)">
				<stop  offset="0" style="stop-color:#FFC444"/>
				<stop  offset="0.9964" style="stop-color:#F36F56"/>
			</linearGradient>
			<path style="fill:url(#SVGID_00000006695484658243468220000000985907485467047085_);" d="M2498.1,1288.3
				c-2.91,16.85,0.77,25.64,4.74,30.56c2.79,3.46,25.48,40.86,16.16,46.9c-4.2,2.72-33.02-33.06-35.81-38.54
				c-2.53-4.96-4.18-3.79-4.32-17.32c-0.1-8.91-1.91-16.07-3.33-20.56C2483.06,1289,2490.58,1288.65,2498.1,1288.3z"/>
			
				<linearGradient id="SVGID_00000124870268858479172820000011685458587494305420_" gradientUnits="userSpaceOnUse" x1="-2233.8105" y1="1178.9865" x2="-2178.4299" y2="1178.9865" gradientTransform="matrix(-1 0 0 1 314.5472 0)">
				<stop  offset="0" style="stop-color:#311944"/>
				<stop  offset="1" style="stop-color:#6B3976"/>
			</linearGradient>
			<path style="fill:url(#SVGID_00000124870268858479172820000011685458587494305420_);" d="M2530.85,1154.73
				c0,0,20.47,24.43,17.14,51.2c-3.33,26.77-39.18-12.37-44.18-25.6c-5-13.23-10.84-32.08-10.84-32.08
				S2518.12,1132.61,2530.85,1154.73z"/>
			
				<linearGradient id="SVGID_00000033351901307145859100000016198791195773653392_" gradientUnits="userSpaceOnUse" x1="-2265.9072" y1="1331.0507" x2="-2175.4773" y2="1059.7594" gradientTransform="matrix(-1 0 0 1 314.5472 0)">
				<stop  offset="0" style="stop-color:#FFC444"/>
				<stop  offset="0.9964" style="stop-color:#F36F56"/>
			</linearGradient>
			<path style="fill:url(#SVGID_00000033351901307145859100000016198791195773653392_);" d="M2523.04,1116.51
				c0,0-5.55,28.46,5.04,43.47c5.28,7.48,12.39,13.82,10.3,19.91c-1.4,4.08-6.73,7.01-11.24,6.55c-8.63-0.89-13.42-14.12-16.8-23.46
				c-4.99-13.79-7.77-43.3-7.77-43.3L2523.04,1116.51z"/>
			
				<linearGradient id="SVGID_00000079462420649848711520000015532990873459023268_" gradientUnits="userSpaceOnUse" x1="-8618.0068" y1="4657.8438" x2="-8177.3911" y2="4408.3779" gradientTransform="matrix(-1 0 0 1 314.5472 0)">
				<stop  offset="3.597120e-03" style="stop-color:#E38DDD"/>
				<stop  offset="1" style="stop-color:#9571F6"/>
			</linearGradient>
			<path style="fill:url(#SVGID_00000079462420649848711520000015532990873459023268_);" d="M2506.73,1140.5
				c6.3-2.29,12.59-4.59,18.89-6.88c9.82-22.43,21.81-59.28,17.8-104.06c-10.3-115.16-116.81-176.19-128.64-182.72
				c-29.02,14.56-58.42,35.1-59.48,61c-1.34,32.51,42.95,49.69,84.58,97.22C2464.86,1033.59,2491.56,1076.11,2506.73,1140.5z"/>
			
				<linearGradient id="SVGID_00000139253037319163195040000009119077886071600314_" gradientUnits="userSpaceOnUse" x1="2117.6895" y1="732.3926" x2="2231.0833" y2="1215.126" gradientTransform="matrix(1 0 0 1 84.2618 0)">
				<stop  offset="3.597120e-03" style="stop-color:#E38DDD"/>
				<stop  offset="1" style="stop-color:#9571F6"/>
			</linearGradient>
			<path style="fill:url(#SVGID_00000139253037319163195040000009119077886071600314_);" d="M2499.94,1301.47
				c20.8-81.25,15.49-147.56,9.49-185.75c-9.07-57.73-27.51-175.16-105.92-218.95c-17.12-9.56-41.6-18.12-71.43-44.71
				c-24.91-22.2-40.75-45.55-50.3-62c-104.85-30.76-201.57-18.29-244.24,37.94c-4.93,6.5-17.28,20.59-19.66,41.37
				c-5.39,46.89,40.68,103.34,92.38,115.13c65.71,14.98,103.83-52.48,162.04-30.04c16.28,6.28,30.09,21.84,57.7,52.96
				c35.13,39.59,54.87,76.12,62.34,90.73c22.24,43.53,39.11,75.66,41.57,117.3c0.57,9.7,0.91,29.3,12.28,50.44
				c8.72,16.23,20.54,27.04,29.34,33.73C2483.67,1300.24,2491.81,1300.86,2499.94,1301.47z"/>
			
				<linearGradient id="SVGID_00000152949563823741987110000006488349607417652381_" gradientUnits="userSpaceOnUse" x1="-2059.2168" y1="1336.1337" x2="-1963.3107" y2="1032.6068" gradientTransform="matrix(-1 0 0 1 314.5472 0)">
				<stop  offset="3.597120e-03" style="stop-color:#E38DDD"/>
				<stop  offset="1" style="stop-color:#9571F6"/>
			</linearGradient>
			<path style="opacity:0.3;fill:url(#SVGID_00000152949563823741987110000006488349607417652381_);" d="M2017.88,869.38
				c2.39-20.78,14.73-34.88,19.66-41.37c42.68-56.24,139.39-68.7,244.24-37.94c9.55,16.45,25.39,39.8,50.3,62
				c29.83,26.58,54.31,35.15,71.43,44.71c47.88,26.74,73.37,80.93,88.05,132.23c-21.78-33.77-40.43-42.75-54.85-42.91
				c-20.65-0.23-29.88,17.43-54.54,15.02c-26.36-2.58-32.38-24.37-53.75-26.87c-6.39-0.75-14.26,0.24-23.71,5.27
				c-12.61-13.2-22.01-21.02-32.41-25.03c-58.21-22.45-96.33,45.02-162.04,30.04C2058.56,972.72,2012.49,916.27,2017.88,869.38z"/>
			
				<linearGradient id="SVGID_00000147909719475550782640000016737013825294736781_" gradientUnits="userSpaceOnUse" x1="-8593.6396" y1="4700.8672" x2="-8153.0244" y2="4451.4014" gradientTransform="matrix(-1 0 0 1 314.5472 0)">
				<stop  offset="3.597120e-03" style="stop-color:#E38DDD"/>
				<stop  offset="1" style="stop-color:#9571F6"/>
			</linearGradient>
			<path style="fill:url(#SVGID_00000147909719475550782640000016737013825294736781_);" d="M2445.62,933.11
				c-11.87-0.63-30.14-1-52.19,1.18c-104.62,10.34-133.46,62.09-219.93,74.72c-20.45,2.99-111.53,16.29-150.97-36.36
				c-28.32-37.8-24.03-102.93,6.94-128.55c13.11-10.84,26.09-10.54,110.04-9.78c31.62,0.29,63.24,0.39,94.85,0.79
				c133.83,1.71,159.43-7.56,183.78,14.57C2429.5,860.02,2446.11,882.2,2445.62,933.11z"/>
			<g>
				<g>
					
						<linearGradient id="SVGID_00000152961032214633075790000005196833721956338347_" gradientUnits="userSpaceOnUse" x1="2130.967" y1="103.4215" x2="2145.0715" y2="1887.7222">
						<stop  offset="0" style="stop-color:#FF9085"/>
						<stop  offset="1" style="stop-color:#FB6FBB"/>
					</linearGradient>
					<path style="fill:url(#SVGID_00000152961032214633075790000005196833721956338347_);" d="M2163.08,503.71
						c0,0-105.64-30.81-152.17,21.86c-8.54,9.67-15.29,22.38-20.21,46.93c-25.04,125.08,69.68,200.2,32.36,266.19
						c-14.82,26.2-40.92,34.1-59.47,81.19c-3.14,7.97-14.5,36.81-4.08,45.9c9.18,8,24.27-8.89,51.09-5.63
						c28.4,3.46,35.03,25.27,54.13,22.09c12.46-2.07,17.83-12.71,36.18-39.22c26.57-38.39,39.85-57.58,49.37-64.31
						c37.57-26.55,66.61,8.08,109.45-18.22c15.51-9.52,72.98-83.51,56.07-63.19c-40.24-50.21-49.6-91.63-50.56-120.43
						c-1.05-31.57,8.05-45.92,0-83.25c0,0-1.74-19.63-34.13-55.39C2226.48,533.1,2213.7,505.73,2163.08,503.71z"/>
				</g>
			</g>
			<g>
				
					<linearGradient id="SVGID_00000106867299211302406960000016943617948786676924_" gradientUnits="userSpaceOnUse" x1="3644.4092" y1="166.2805" x2="3650.3752" y2="7.3673" gradientTransform="matrix(0.984 0.1784 -0.1784 0.984 -1433.8892 -244.2395)">
					<stop  offset="0" style="stop-color:#FFC444"/>
					<stop  offset="0.9964" style="stop-color:#F36F56"/>
				</linearGradient>
				<path style="fill:url(#SVGID_00000106867299211302406960000016943617948786676924_);" d="M2120.33,443.34
					c1.24,5.8,7.56,36.94-5.18,44.95c-2.76,1.74-8.07,2.73-18.68,4.72c-6.95,1.3-12.78,2.1-16.89,2.59
					c0.59,5.22,2.35,13.72,8.38,21.45c16.89,21.67,50.76,16.06,55.59,15.18c17.03-3.1,33.8-8.37,37.85-11.58
					c6.16-4.9,11.01-8.57,13.88-12.31c-6.59-3.19-19.9-11.59-28.83-14.34c-6.68-2.05-12.94-3.52-18.64-4.57
					c-0.94-6.01-1.87-12.03-2.81-18.04C2136.77,462.04,2128.55,452.69,2120.33,443.34z"/>
				
					<linearGradient id="SVGID_00000182500808725177149490000010555989877981090997_" gradientUnits="userSpaceOnUse" x1="3642.5471" y1="25.9913" x2="3639.9934" y2="231.7412" gradientTransform="matrix(0.984 0.1784 -0.1784 0.984 -1433.8892 -244.2395)">
					<stop  offset="0" style="stop-color:#FFC444"/>
					<stop  offset="0.9964" style="stop-color:#F36F56"/>
				</linearGradient>
				<path style="fill:url(#SVGID_00000182500808725177149490000010555989877981090997_);" d="M2119.74,458.85
					c0,0,2.3,22.82,24.48,26.84c19.86,3.6,34.81-44.39,24.65-56.8c-3.39-4.14-11.76-8.08-19.02-7.87
					c-5.1,0.15-22.34,6.71-24.75,23.96c-3.43-3.62-7.71-4.66-9.82-3.14c-2.68,1.92-1.24,7.51-0.92,8.77
					C2115.49,454.99,2118.36,457.71,2119.74,458.85z"/>
			</g>
			
				<linearGradient id="SVGID_00000065059371289034181850000011393931902271982476_" gradientUnits="userSpaceOnUse" x1="1870.9487" y1="822.1104" x2="2234.6377" y2="822.1104" gradientTransform="matrix(1 0 0 1 84.2618 0)">
				<stop  offset="0" style="stop-color:#FF9085"/>
				<stop  offset="1" style="stop-color:#FB6FBB"/>
			</linearGradient>
			<path style="opacity:0.3;fill:url(#SVGID_00000065059371289034181850000011393931902271982476_);" d="M2315.82,797.29
				c-4.84-6.04-9.21-11.95-13.2-17.73c-22.2-7.44-41.4-10.2-56.89-10.96c-34.94-1.69-54.07,6.53-77.86-7.79
				c-27-16.25-22.22-38.8-48.27-51.38c-27.42-13.25-46.81,1.72-73.18-3.11c-15.93-2.92-35.33-13.57-55.14-44.65
				c15.16,74.82,59.26,128.41,31.78,177c-14.82,26.2-40.92,34.1-59.47,81.19c-3.14,7.97-14.5,36.81-4.08,45.9
				c9.18,8,24.27-8.89,51.09-5.63c28.4,3.46,35.03,25.27,54.13,22.09c12.46-2.07,17.83-12.71,36.18-39.22
				c26.57-38.39,39.85-57.58,49.37-64.31c37.57-26.55,66.61,8.08,109.45-18.22C2275.26,850.96,2332.73,776.97,2315.82,797.29z"/>
			<g>
				
					<linearGradient id="SVGID_00000012447829690664521220000016158121757708698764_" gradientUnits="userSpaceOnUse" x1="1963.0575" y1="829.5488" x2="2224.3176" y2="829.5488" gradientTransform="matrix(-1 0 0 1 4317.1064 0)">
					<stop  offset="0" style="stop-color:#444B8C"/>
					<stop  offset="0.9964" style="stop-color:#3E4177"/>
				</linearGradient>
				<path style="fill:url(#SVGID_00000012447829690664521220000016158121757708698764_);" d="M2347.65,810.13l-239.03,11.63
					c-3.29,0.16-6.29,1.92-8.03,4.72l-6.61,10.62c-3.29,5.28,0.66,12.1,6.89,11.86l253.19-9.65L2347.65,810.13z"/>
				
					<linearGradient id="SVGID_00000173151359329263580660000000890660057036041102_" gradientUnits="userSpaceOnUse" x1="1712.3113" y1="759.8799" x2="2070.9106" y2="759.8799" gradientTransform="matrix(-1 0 0 1 4317.1064 0)">
					<stop  offset="0" style="stop-color:#444B8C"/>
					<stop  offset="0.9964" style="stop-color:#3E4177"/>
				</linearGradient>
				<path style="fill:url(#SVGID_00000173151359329263580660000000890660057036041102_);" d="M2596.26,677.02l-246.94,4.79
					c-7.31,0.14-14,4.12-17.61,10.47l-85.51,150.45l260.8-10.39c7.16-0.29,13.69-4.16,17.37-10.31l79.23-132.36
					C2606.97,684.04,2602.83,676.9,2596.26,677.02z"/>
				
					<linearGradient id="SVGID_00000142886884377894445540000002863329053134021788_" gradientUnits="userSpaceOnUse" x1="1787.5229" y1="762.2211" x2="2070.9106" y2="762.2211" gradientTransform="matrix(-1 0 0 1 4317.1064 0)">
					<stop  offset="0" style="stop-color:#444B8C"/>
					<stop  offset="0.9964" style="stop-color:#3E4177"/>
				</linearGradient>
				<path style="fill:url(#SVGID_00000142886884377894445540000002863329053134021788_);" d="M2331.71,692.29
					c3.61-6.35,10.3-10.33,17.61-10.48l5.41-0.1c0.81,7.97,3.25,15.26,8.13,21.15c15.23,18.38,40.52,7.04,59.38,26.49
					c20.71,21.37,1.58,46.8,20.1,66.69c19.49,20.93,51.01,3.89,87.25,17.28l-5.22,8.72c-3.68,6.15-10.21,10.02-17.37,10.31
					l-260.8,10.39L2331.71,692.29z"/>
			</g>
			<g>
				
					<linearGradient id="SVGID_00000054969378309920103640000016731872671242340494_" gradientUnits="userSpaceOnUse" x1="2001.2209" y1="104.4473" x2="2015.3254" y2="1888.7457">
					<stop  offset="0" style="stop-color:#FF9085"/>
					<stop  offset="1" style="stop-color:#FB6FBB"/>
				</linearGradient>
				<path style="fill:url(#SVGID_00000054969378309920103640000016731872671242340494_);" d="M2128.1,802.14
					c3.11-8.22,6.22-16.43,9.33-24.65c-34.38-9.43-81.94-23.36-130.72-40.79c-7.64-2.73-16.71-6.11-19.69-14.15
					c-8.34-22.55,44.68-45.92,65.3-95.15c19.06-45.54,8.57-108.73-13.55-116.2c-46.04-15.53-209.3,187.68-150.99,273.35
					C1920.74,832.99,2022.36,840.7,2128.1,802.14z"/>
			</g>
			
				<linearGradient id="SVGID_00000178201366450777350640000017141223552401334180_" gradientUnits="userSpaceOnUse" x1="2106.1738" y1="778.0316" x2="2019.3265" y2="859.8742" gradientTransform="matrix(1 0 0 1 84.2618 0)">
				<stop  offset="0" style="stop-color:#FFC444"/>
				<stop  offset="0.9964" style="stop-color:#F36F56"/>
			</linearGradient>
			<path style="fill:url(#SVGID_00000178201366450777350640000017141223552401334180_);" d="M2137.43,777.5
				c21.59-11.47,47.43,0.29,49.09,1.07c4.74,2.24,11.65,6.23,18.62,13.35c0.79,1.08,10.15,14.05,6.74,18.21
				c-2.73,3.33-13.32,0.57-26.05-7.34c-5.33-0.75-13.28-1.44-22.79-0.56c-17.47,1.61-25.47,7.13-31.82,2.37
				c-4.64-3.49-6.23-10.86-4.56-16.34C2128.47,782.36,2133.78,779.44,2137.43,777.5z"/>
		</g>
		<g>
			<g>
				
					<linearGradient id="SVGID_00000173859754857222386870000009697882950314700223_" gradientUnits="userSpaceOnUse" x1="683.041" y1="1284.6968" x2="943.3185" y2="1703.1545">
					<stop  offset="0" style="stop-color:#311944"/>
					<stop  offset="1" style="stop-color:#893976"/>
				</linearGradient>
				<path style="fill:url(#SVGID_00000173859754857222386870000009697882950314700223_);" d="M1162.91,1384.4v291.42
					c0,42.15-35.24,76.22-78.93,76.02l-162.27-0.65l-21.43-0.08l-75.72,92.79c-5.74,4.47-19.5,4.66-24.12-0.93l-11.23-14.84
					l-58.75-77.72l-5.43-0.04l-148.39-0.58c-15.95-0.08-29.61-5.86-41.05-15.53c-15.14-12.71-23.87-32.17-23.87-53.95V1416
					c0-38.22,28.8-70.98,65.87-73.17l31.47-1.89l475.75-28.17c11.95-0.69,22.6,1.19,32.81,5.16
					C1144.7,1328.49,1162.91,1353.77,1162.91,1384.4z"/>
				
					<linearGradient id="SVGID_00000155126607640740782820000010167004752105368481_" gradientUnits="userSpaceOnUse" x1="671.7927" y1="1278.0842" x2="931.1778" y2="1695.1071">
					<stop  offset="0" style="stop-color:#FF9085"/>
					<stop  offset="1" style="stop-color:#FB6FBB"/>
				</linearGradient>
				<path style="fill:url(#SVGID_00000155126607640740782820000010167004752105368481_);" d="M1151.35,1376.89v290.61
					c0,42.04-36.39,76.02-79.82,75.91l-153.46-0.31l-30.2-0.08l-75.35,88.47c-5.47,6.4-15.19,6.36-20.51-0.08l-2.76-3.28
					l-64.21-77.76l-6.4-7.75l-153.01-0.35c-11.21-0.04-21.21-2.93-30.46-8.02c-21.19-11.56-35.01-34.64-35.01-61.19v-263.64
					c0-38.15,29.07-70.86,65.99-73.1l36.11-2.2l468.65-28.55c17.69-1.08,34.79,3.58,48.01,12.33
					C1138.14,1330.61,1151.35,1351.99,1151.35,1376.89z"/>
			</g>
			
				<linearGradient id="SVGID_00000137123324542582665140000006062528358016778382_" gradientUnits="userSpaceOnUse" x1="500.3474" y1="1383.1881" x2="736.1743" y2="1762.3357">
				<stop  offset="0" style="stop-color:#FF9085"/>
				<stop  offset="1" style="stop-color:#FB6FBB"/>
			</linearGradient>
			<path style="opacity:0.3;fill:url(#SVGID_00000137123324542582665140000006062528358016778382_);" d="M922,1751.19l-21.58-0.08
				l-75.79,92.79c-5.74,4.47-19.54,4.66-24.16-0.93l-11.25-14.84l-64.2-77.76l-148.39-0.58c-15.95-0.08-30.04-5.86-41.48-15.53
				c-21.19-11.56-35.01-34.64-35.01-61.19v-263.64c0-38.15,29.07-70.86,65.99-73.1l36.11-2.2c2.27,2.16,4.34,4.39,6.46,6.78
				c24.2,26.63,41.28,65.89,38.16,123.77c-9.21,172.12,105.16,199.98,208.51,232.27c32.02,10.02,51.15,27.2,62.33,46.12
				C919.28,1745.76,920.69,1748.45,922,1751.19z"/>
		</g>
		<g>
			
				<linearGradient id="SVGID_00000004539757874453603520000012790538864496080828_" gradientUnits="userSpaceOnUse" x1="-980.1251" y1="2411.1377" x2="-1050.3508" y2="2487.0139" gradientTransform="matrix(-0.127 -0.9919 -0.9919 0.127 3033.6333 714.7271)">
				<stop  offset="0" style="stop-color:#FFC444"/>
				<stop  offset="0.9964" style="stop-color:#F36F56"/>
			</linearGradient>
			<path style="fill:url(#SVGID_00000004539757874453603520000012790538864496080828_);" d="M763.41,2003.51l14.81-21.21
				l30.24-12.45c0,0-12.12-22.05-40.06-5.6c-8.82,9.35-21.05,31.13-34.4,41.42C720.66,2015.96,763.41,2003.51,763.41,2003.51z"/>
			
				<linearGradient id="SVGID_00000067212799326774616870000006854938038542618504_" gradientUnits="userSpaceOnUse" x1="808.7822" y1="1172.9706" x2="710.0096" y2="2451.0366">
				<stop  offset="3.597120e-03" style="stop-color:#E38DDD"/>
				<stop  offset="1" style="stop-color:#9571F6"/>
			</linearGradient>
			<path style="fill:url(#SVGID_00000067212799326774616870000006854938038542618504_);" d="M654.05,2019.21
				c30.91-33.84,67.83-50.82,87.43-58.41c6,2.48,15.23,7.33,21.01,16.71c25.2,40.86-54.27,103.75-35.02,143.98
				c12.84,26.83,53.23,9.4,105.33,53.94c25,21.37,27.28,35.29,24.22,45.65c-4.85,16.41-24.14,27.44-30.01,30.8
				c-50.98,29.16-156.81,21.19-201.49-43.44C588.14,2154.34,603.37,2074.69,654.05,2019.21z"/>
			
				<linearGradient id="SVGID_00000077285549806342177060000007299964598990199951_" gradientUnits="userSpaceOnUse" x1="954.5145" y1="3131.7664" x2="992.8991" y2="3165.9097" gradientTransform="matrix(-0.9902 -0.14 -0.14 0.9902 2088.2761 206.9384)">
				<stop  offset="0" style="stop-color:#444B8C"/>
				<stop  offset="0.9964" style="stop-color:#26264F"/>
			</linearGradient>
			<path style="fill:url(#SVGID_00000077285549806342177060000007299964598990199951_);" d="M693.88,3191.75
				c-1.09-6.02-20.53-11.46-30.15-3.4c-4.78,4-8.07,12.11-5.3,15.78c1.01,1.33-3.11,3.68,0.83,3.72
				C672.35,3208,694.96,3197.73,693.88,3191.75z"/>
			
				<linearGradient id="SVGID_00000129198384272827035760000004983048883124160690_" gradientUnits="userSpaceOnUse" x1="66.2234" y1="3165.957" x2="66.2234" y2="3099.0876" gradientTransform="matrix(-0.9902 -0.14 -0.14 0.9902 1172.075 77.4224)">
				<stop  offset="0" style="stop-color:#FFC444"/>
				<stop  offset="0.9964" style="stop-color:#F36F56"/>
			</linearGradient>
			<path style="fill:url(#SVGID_00000129198384272827035760000004983048883124160690_);" d="M673.51,3193.94l-19.99-2.82
				c9.26-11.15,7.54-46.65,7.54-46.65l21.25,4.74c0,0-2.42,9.74-6.54,24.12C674.37,3178.25,673.74,3185.95,673.51,3193.94z"/>
			
				<linearGradient id="SVGID_00000046309893072955574380000013003699166961584018_" gradientUnits="userSpaceOnUse" x1="958.3735" y1="3127.429" x2="996.7578" y2="3161.572" gradientTransform="matrix(-0.9902 -0.14 -0.14 0.9902 2088.2761 206.9384)">
				<stop  offset="0" style="stop-color:#444B8C"/>
				<stop  offset="0.9964" style="stop-color:#26264F"/>
			</linearGradient>
			<path style="fill:url(#SVGID_00000046309893072955574380000013003699166961584018_);" d="M675.28,3191.48
				c0,0-24.06-5.54-26.66-0.77c-2.6,4.77-4.62,17.55,10.64,17.14C674.52,3207.43,676.64,3195.52,675.28,3191.48z"/>
			
				<linearGradient id="SVGID_00000005232975502011694710000014958886846053848220_" gradientUnits="userSpaceOnUse" x1="1009.0791" y1="3195.6052" x2="1047.4653" y2="3229.75" gradientTransform="matrix(-1 0 0 1 1985.4333 0)">
				<stop  offset="0" style="stop-color:#444B8C"/>
				<stop  offset="0.9964" style="stop-color:#26264F"/>
			</linearGradient>
			<path style="fill:url(#SVGID_00000005232975502011694710000014958886846053848220_);" d="M968.1,3214.31
				c-1.92-5.8-21.93-8.48-30.33,0.85c-4.17,4.63-6.29,13.12-3.04,16.36c1.18,1.18-2.57,4.08,1.35,3.57
				C949.06,3233.42,970.01,3220.08,968.1,3214.31z"/>
			
				<linearGradient id="SVGID_00000114055622299868681520000011761743058530544287_" gradientUnits="userSpaceOnUse" x1="120.7445" y1="3229.8181" x2="120.7445" y2="3162.9458" gradientTransform="matrix(-1 0 0 1 1060.123 0)">
				<stop  offset="0" style="stop-color:#FFC444"/>
				<stop  offset="0.9964" style="stop-color:#F36F56"/>
			</linearGradient>
			<path style="fill:url(#SVGID_00000114055622299868681520000011761743058530544287_);" d="M948.24,3219.33h-20.18
				c7.61-12.33,0.94-47.25,0.94-47.25l21.71,1.72c0,0-1.03,9.99-3.1,24.8C946.89,3203.67,947.35,3211.39,948.24,3219.33z"/>
			
				<linearGradient id="SVGID_00000155838275757572145490000000720646611489444515_" gradientUnits="userSpaceOnUse" x1="1232.8425" y1="3260.4834" x2="982.537" y2="2249.8777" gradientTransform="matrix(1 0 0 1 -290.3139 0)">
				<stop  offset="0" style="stop-color:#444B8C"/>
				<stop  offset="0.9964" style="stop-color:#26264F"/>
			</linearGradient>
			<path style="fill:url(#SVGID_00000155838275757572145490000000720646611489444515_);" d="M1000.55,2456.05
				c9.35,30.88,22.7,80.71,31.3,143.23c24.52,178.34-27.59,184.03-17.86,381.65c3.11,63.08-54.65,208.54-59.74,211.75
				c-2.46,0.24-5.14,0.4-7.99,0.31c-5.02-0.15-12.11-0.92-20.34-3.39c-9.15-1.58-42.14-90.92-34.49-144.04
				c5.41-37.6,3.84-77.95,0.71-158.65c-0.51-13.08-33.96-254.4-33.96-254.4c-10.18,89.32-21.88,165.22-32.03,224.07
				c-32.6,189.06-138.59,303.48-144.12,305.32c-1.09,0.44-11.04,4.05-19.17-1.31c-3.62-2.39-4.85-5.46-4.85-5.46
				c-2.84-2.22,0.84-188.75,33.16-329.13c46.92-203.76,26.49-251.44,41.36-342.45C745.39,2404.81,1000.55,2456.05,1000.55,2456.05z"
				/>
			
				<linearGradient id="SVGID_00000099625568585480665310000010780881092807497110_" gradientUnits="userSpaceOnUse" x1="944.0221" y1="1166.8524" x2="845.2497" y2="2444.9158">
				<stop  offset="3.597120e-03" style="stop-color:#E38DDD"/>
				<stop  offset="1" style="stop-color:#9571F6"/>
			</linearGradient>
			<path style="fill:url(#SVGID_00000099625568585480665310000010780881092807497110_);" d="M1013.1,2486.82
				c-28.15,14.5-100.75,40.36-187.22,27.52c-39.51-5.88-71.12-19.04-93.34-30.75c22.4-67.93,4.81-104.3-3.5-137.83
				c-11.81-47.77-12.03-44.18-21.78-82.12c-16.07-62.63-18.72-126.65-7.68-139.72c23.03-27.3,60.3-34.26,88.94-36.37
				c8.44-0.63,16.12-0.85,22.49-1.03c15.94-0.49,42.52-3.59,69.95-1.8c26.13,1.8,53.02,8.04,72.24,25.37
				c0.68,0.58-7.41,4.94-3.41,9.56c3.68,4.36,16.34,19.48,27.84,39.96c8.35,14.86,15.85,32.15,23.43,57.92
				c13.34,45.43,17.2,84.14,18.45,101.02C1026.75,2413.32,1019.57,2457.1,1013.1,2486.82z"/>
			
				<linearGradient id="SVGID_00000099620103871414675720000008370078806405679526_" gradientUnits="userSpaceOnUse" x1="1012.9388" y1="3191.2681" x2="1051.3242" y2="3225.4119" gradientTransform="matrix(-1 0 0 1 1985.4333 0)">
				<stop  offset="0" style="stop-color:#444B8C"/>
				<stop  offset="0.9964" style="stop-color:#26264F"/>
			</linearGradient>
			<path style="fill:url(#SVGID_00000099620103871414675720000008370078806405679526_);" d="M949.65,3216.65
				c0,0-24.6-2.12-26.51,2.97c-1.91,5.09-2.12,18.03,12.94,15.48C951.13,3232.55,951.56,3220.46,949.65,3216.65z"/>
			
				<linearGradient id="SVGID_00000045586989943727379430000015394470355867208587_" gradientUnits="userSpaceOnUse" x1="-92.6813" y1="1401.4462" x2="-145.4721" y2="1486.843" gradientTransform="matrix(-0.9717 -0.2361 -0.2361 0.9717 1065.225 640.4756)">
				<stop  offset="0" style="stop-color:#FFC444"/>
				<stop  offset="0.9964" style="stop-color:#F36F56"/>
			</linearGradient>
			<path style="fill:url(#SVGID_00000045586989943727379430000015394470355867208587_);" d="M831.48,2042.01
				c-4.41-2.64-7.78,3.04-5.7,8c2.08,4.96,9.07,8.07,13.31,5.11C843.32,2052.17,837.42,2045.57,831.48,2042.01z"/>
			
				<linearGradient id="SVGID_00000090991206255114199060000000581507638270709178_" gradientUnits="userSpaceOnUse" x1="824.2305" y1="1981.431" x2="874.3226" y2="2433.2222">
				<stop  offset="0" style="stop-color:#FFC444"/>
				<stop  offset="0.9964" style="stop-color:#F36F56"/>
			</linearGradient>
			<path style="fill:url(#SVGID_00000090991206255114199060000000581507638270709178_);" d="M886.22,2091.68
				c0,8.58-22.27,15.53-49.79,15.53c-27.48,0-49.75-6.96-49.75-15.53c0-1.44,0.63-2.83,1.84-4.13c8.44-0.63,16.12-0.85,22.49-1.03
				c15.94-0.49,42.52-3.59,69.95-1.8C884.34,2086.83,886.22,2089.21,886.22,2091.68z"/>
			<g>
				
					<linearGradient id="SVGID_00000158737944825791261490000014295858503572864414_" gradientUnits="userSpaceOnUse" x1="822.1501" y1="1981.6616" x2="872.2422" y2="2433.4534">
					<stop  offset="0" style="stop-color:#FFC444"/>
					<stop  offset="0.9964" style="stop-color:#F36F56"/>
				</linearGradient>
				<path style="fill:url(#SVGID_00000158737944825791261490000014295858503572864414_);" d="M849.81,2085.03
					c-2.88-6.48-5.75-12.96-8.64-19.44c2.52-2.48,19-14.81,18.66-28.77c-0.46-18.95-15.53-33.42-18.48-36.32
					c-12.38-12.15-15.01-13.52-19.56-14.89l-6.23-1.62c0,0-0.34-0.03-0.69-0.04c-3.73-0.17-15.3,3.01-17.47,4.22
					c-6.93,3.86-5.55,36.5,9.82,78.53c0.19,1.72,0.4,3.45,0.62,5.2c1.38,10.85,3.23,21.22,5.41,31.09
					C813.25,2102.98,841.62,2104.2,849.81,2085.03z"/>
			</g>
			<path class="st54" d="M834.2,1977.5c4.02,13.25-4.87,18.94-7.35,22.19c-0.32,0.42-2.07,2.95-3.19,6.71
				c-0.15,0.51-0.25,1.08-0.27,1.8c-0.34,9.23,15.94,14.97,14.52,19.49c-1.02,3.28-11.15,2.42-11.5,5.09
				c-0.33,2.51,8.56,4.77,8.22,7.76c-0.25,2.26-5.42,1.85-7.39,5.79c-0.98,1.96-0.19,3.04-0.3,8.15c-0.06,2.89-0.39,6.14-0.84,8.03
				c-2.19,9.18-14.27,15.99-17.72,13.65c-0.96-0.65-0.59-1.56-2.19-4.26c0,0-1.48-2.49-4.32-5.03c-4.05-3.63-11.49-4.83-19.46-7.52
				c-14.76-4.99-20.32-11.4-22.08-13.61c-0.62-0.79-1.05-1.39-1.36-1.83c-6.14-8.79-10.55-23.11-8.87-33.27
				c2.81-17.02,21.54-15.1,30.61-33.89c5.06-10.47,8.1-21.45,20.28-25.76c9.48-3.35,18.22,0.04,23.88,8.09
				C828.61,1964.38,832.31,1971.27,834.2,1977.5z"/>
			
				<linearGradient id="SVGID_00000119096156763050553520000018264323514671120258_" gradientUnits="userSpaceOnUse" x1="826.821" y1="1981.1438" x2="876.9133" y2="2432.936">
				<stop  offset="0" style="stop-color:#FFC444"/>
				<stop  offset="0.9964" style="stop-color:#F36F56"/>
			</linearGradient>
			<path style="fill:url(#SVGID_00000119096156763050553520000018264323514671120258_);" d="M832.2,2026.03
				c-4.61-3.46-9.03,2.48-7.29,8.25c1.74,5.78,9.17,10.06,14.24,7.25C844.22,2038.74,838.41,2030.69,832.2,2026.03z"/>
			
				<linearGradient id="SVGID_00000026136517805183657050000014016657170234740410_" gradientUnits="userSpaceOnUse" x1="1771.7833" y1="1331.0394" x2="1819.2252" y2="1371.4292" gradientTransform="matrix(0.9067 -0.4217 0.4217 0.9067 -1359.3041 1493.8378)">
				<stop  offset="0" style="stop-color:#FFC444"/>
				<stop  offset="0.9964" style="stop-color:#F36F56"/>
			</linearGradient>
			<path style="fill:url(#SVGID_00000026136517805183657050000014016657170234740410_);" d="M874.57,1957.4l-20.5-12.64
				c0,0-19-8.62-39.82,5.07c-20.82,13.69-11.9,23.61-11.9,23.61l15.31-6.92c0,0,9.86-4.53,25.14,2.24
				c17.62,5.12,29.9,3.84,29.9,3.84L874.57,1957.4z"/>
			
				<linearGradient id="SVGID_00000025441237989803140310000017795897287448628100_" gradientUnits="userSpaceOnUse" x1="1036.9039" y1="1174.0305" x2="938.1313" y2="2452.0972">
				<stop  offset="3.597120e-03" style="stop-color:#E38DDD"/>
				<stop  offset="1" style="stop-color:#9571F6"/>
			</linearGradient>
			<path style="fill:url(#SVGID_00000025441237989803140310000017795897287448628100_);" d="M970.44,1939.55
				c-43.44-14.61-83.96-11.57-104.79-8.7c-4.04,5.08-9.76,13.8-10.27,24.81c-2.24,47.95,97.77,64.43,100.43,108.95
				c1.77,29.69-42,34.03-65.98,98.23c-11.5,30.81-6.76,44.09,0.94,51.67c12.19,12,34.42,12.3,41.18,12.39
				c58.73,0.79,147.43-57.49,155.17-135.67C1093.61,2025.79,1041.67,1963.51,970.44,1939.55z"/>
		</g>
	</g>
</g>
</svg>
